<svg width="577" height="525" viewBox="0 0 577 525" fill="none" xmlns="http://www.w3.org/2000/svg">
<path d="M559.079 524.741C568.345 524.741 575.911 517.31 576.052 508.042C576.763 461.849 580.484 393.713 493.491 374.87C423.092 359.621 464.831 234.513 275.239 242.596C139.141 248.398 175.299 363.112 69.4785 372.665C-0.934789 379.022 -1.54279 468.077 1.16255 508.881C1.75455 517.808 9.15858 524.741 18.1039 524.741H559.079Z" fill="#B5DFEA"/>
<g opacity="0.550003">
<g opacity="0.550003">
<path opacity="0.550003" d="M493.489 374.87C423.09 359.62 464.83 234.512 275.238 242.595C242.869 243.976 220.256 251.525 203.146 262.346C208.909 261.593 215.028 261.059 221.546 260.782C411.14 252.698 369.401 377.806 439.798 393.055C525.865 411.698 523.14 478.584 522.386 524.74H559.077C568.345 524.74 575.909 517.31 576.052 508.042C576.761 461.848 580.482 393.714 493.489 374.87Z" fill="#90CEDD"/>
</g>
</g>
<path d="M192.029 218.399H195.023V5.45264e-05H192.029V218.399Z" fill="#79C9E8"/>
<path d="M406.658 251.948H409.652V-7.50864e-06H406.658V251.948Z" fill="#79C9E8"/>
<path d="M409.367 237.262L186.771 211.28C177.257 210.17 168.645 216.982 167.535 226.494L150.921 368.834C149.811 378.346 156.623 386.958 166.136 388.068L388.731 414.051C398.244 415.16 406.856 408.348 407.965 398.836L424.58 256.496C425.691 246.984 418.879 238.372 409.367 237.262Z" fill="#D7F0F9"/>
<path d="M422.936 270.586L424.58 256.497C425.691 246.985 418.879 238.371 409.367 237.262L186.771 211.281C177.257 210.17 168.647 216.982 167.536 226.494L165.891 240.583L422.936 270.586Z" fill="#0582C1"/>
<path d="M227.779 330.49L231.419 299.304C231.445 299.088 231.154 298.993 231.047 299.182L214.375 328.6C214.082 329.118 214.413 329.77 215.005 329.84L226.854 331.222C227.311 331.276 227.726 330.948 227.779 330.49ZM201.903 326.772L230.121 277.057C231.927 273.872 235.467 272.077 239.105 272.502C244.105 273.086 247.685 277.613 247.101 282.613L241.231 332.901L241.482 332.93C244.947 333.334 247.427 336.47 247.023 339.934C246.619 343.4 243.482 345.88 240.018 345.477L239.767 345.446L238.698 354.605C238.261 358.346 234.874 361.026 231.133 360.589C227.391 360.153 224.713 356.765 225.149 353.024L226.218 343.865L205.905 341.494C202.434 341.089 199.949 337.948 200.354 334.477L200.893 329.862C201.019 328.774 201.363 327.724 201.903 326.772" fill="#79C9E8"/>
<path d="M352.309 345.026L355.947 313.839C355.974 313.623 355.683 313.527 355.575 313.718L338.905 343.134C338.611 343.654 338.942 344.305 339.534 344.375L351.383 345.758C351.839 345.811 352.255 345.483 352.309 345.026ZM326.433 341.307L354.649 291.591C356.457 288.407 359.995 286.613 363.633 287.038C368.633 287.621 372.214 292.147 371.63 297.147L365.761 347.437L366.011 347.465C369.475 347.87 371.957 351.005 371.553 354.47C371.149 357.935 368.011 360.415 364.547 360.011L364.295 359.982L363.226 369.141C362.79 372.882 359.403 375.561 355.662 375.123C351.921 374.687 349.241 371.301 349.678 367.558L350.747 358.399L330.434 356.03C326.962 355.623 324.478 352.483 324.883 349.011L325.422 344.397C325.549 343.31 325.893 342.259 326.433 341.307" fill="#79C9E8"/>
<path d="M278.818 345.681C278.086 351.954 280.568 354.658 284.958 355.172C289.35 355.685 292.388 353.624 293.121 347.35L298.656 299.928C299.388 293.654 296.906 290.949 292.516 290.436C288.124 289.924 285.086 291.985 284.353 298.258L278.818 345.681ZM270.452 297.525C272.092 283.474 280.429 276.309 293.98 277.89C307.529 279.472 313.993 288.365 312.354 302.417L307.024 348.082C305.382 362.134 297.044 369.3 283.494 367.718C269.945 366.137 263.481 357.244 265.121 343.192L270.452 297.525Z" fill="#79C9E8"/>
<path d="M192.131 230.95C191.832 233.506 189.519 235.338 186.962 235.039C184.406 234.741 182.575 232.426 182.874 229.87C183.171 227.313 185.486 225.482 188.043 225.781C190.599 226.079 192.43 228.394 192.131 230.95Z" fill="white"/>
<path d="M214.46 233.556C214.162 236.112 211.847 237.944 209.291 237.645C206.735 237.347 204.904 235.032 205.202 232.476C205.5 229.919 207.815 228.088 210.371 228.387C212.928 228.685 214.759 231 214.46 233.556Z" fill="#79C9E8"/>
<path d="M237.604 236.258C237.305 238.814 234.992 240.645 232.434 240.346C229.878 240.049 228.048 237.734 228.346 235.177C228.644 232.621 230.958 230.79 233.516 231.089C236.072 231.387 237.902 233.702 237.604 236.258Z" fill="#FFBF4D"/>
<path d="M148.059 398.389C148.059 398.389 145.052 411.719 145.553 425.351C146.001 437.552 144.551 517.763 144.551 517.763H154.348C154.348 517.763 168.295 454.941 168.816 449.98C169.336 445.02 176.352 395.408 176.352 395.408L148.059 398.389Z" fill="#00668E"/>
<path d="M154.572 394.731C154.572 394.731 156.827 411.869 160.662 424.047C164.495 436.224 183.338 517.763 183.338 517.763H193.135C193.135 517.763 191.331 454.941 190.655 449.981C189.978 445.02 185.016 395.408 185.016 395.408L154.572 394.731Z" fill="#0582C1"/>
<path d="M184.139 517.747V524.585H202.789C203.848 524.585 204.263 523.213 203.38 522.625C200.653 520.809 196.284 518.306 192.223 517.747H184.139Z" fill="#0582C1"/>
<path d="M145.049 517.747V524.585H163.699C164.758 524.585 165.173 523.213 164.291 522.625C161.563 520.809 157.194 518.306 153.133 517.747H145.049Z" fill="#0582C1"/>
<path d="M178.7 315.007C178.7 315.007 185.114 305.267 177.749 304.316C172.094 303.587 169.768 305.271 169.768 305.271C169.768 305.271 163.257 304.553 159.694 307.643C157.252 309.759 148.29 326.173 162.782 332.112C177.274 338.051 174.185 322.847 174.185 322.847L178.7 315.007Z" fill="#00668E"/>
<path d="M177.749 304.316C172.094 303.586 169.768 305.27 169.768 305.27C169.768 305.27 163.257 304.553 159.693 307.642C157.252 309.758 148.29 326.173 162.782 332.112C169.594 334.904 172.521 333.022 173.71 330.246C159.961 334.114 158.47 317.542 160.737 312.826C163.041 308.036 168.57 310.246 168.57 310.246C170.732 304.804 177.778 305.394 180.684 305.817C180.154 305.061 179.236 304.508 177.749 304.316Z" fill="#05556D"/>
<path d="M169.673 319.758C169.673 319.758 167.773 317.858 166.346 319.758C164.922 321.659 165.871 325.935 168.247 326.173C168.247 326.173 167.534 332.35 162.783 332.113V337.101H173.95V333.299C173.95 333.299 180.839 330.449 180.601 324.747C180.363 319.046 178.701 315.007 178.701 315.007C178.701 315.007 174.899 319.283 169.673 319.758Z" fill="#F98D3D"/>
<path d="M171.381 334.897C172.486 335.357 172.293 336.055 172.342 337.1H173.949V333.3C173.949 333.3 171.242 334.16 167.279 331.901C167.279 331.901 169.586 334.149 171.381 334.897" fill="#ED701B"/>
<path d="M173.667 310.665C173.667 310.665 167.879 308.36 167.203 310.089C166.76 311.221 167.885 312.196 169.431 313.181L168.068 313.405C167.765 313.455 167.656 313.841 167.895 314.035C168.275 314.341 169.324 314.548 171.512 314.624L173.667 310.665Z" fill="#F98D3D"/>
<path d="M147.454 391.387L145.49 387.096L139.236 373.428L149.614 361.804L147.749 387.312L147.454 391.387ZM214.994 325.161C203.958 316.983 173.816 310.444 173.816 310.444L171.333 314.969C171.333 314.969 198.697 325.575 196.89 327.155C195.829 328.087 182.457 334.215 177.93 336.276C176.958 336.717 175.898 336.933 174.818 336.915L160.964 336.836C160.964 336.836 150.969 335.647 143.105 344.681C136.074 352.771 124.125 371.504 124.125 371.504L144.253 401.107L146.482 404.376L146.502 404.337L146.482 404.612C146.482 404.612 147.198 404.691 148.465 404.808C154.936 405.408 175.673 407.047 186.649 404.72L186.954 404.651L186.433 356.089C203.958 342.216 212.324 331.504 215.318 328.136C216.105 327.244 215.957 325.879 214.994 325.161" fill="#FFBF4D"/>
<path d="M145.489 387.096L147.453 391.387L146.501 404.338L146.481 404.376L144.252 401.107L145.489 387.096Z" fill="#EFAA3A"/>
<g opacity="0.289993">
<g opacity="0.289993">
<path opacity="0.289993" d="M181.75 354.344C179.886 355.699 180.358 367.708 179.897 375.217C179.126 387.792 178.375 398.673 178.93 405.689C181.77 405.501 184.414 405.195 186.647 404.72L186.953 404.651L186.431 356.091C203.958 342.216 212.323 331.505 215.318 328.137C216.103 327.244 215.955 325.879 214.994 325.161C214.994 325.161 201.139 340.264 181.75 354.344Z" fill="#F98D2B"/>
</g>
</g>
<path d="M190.656 449.981C190.168 446.401 187.449 419.575 185.972 404.913L178.932 405.689C178.932 405.689 189.202 490.131 189.878 517.763H193.136C193.136 517.763 191.332 454.942 190.656 449.981Z" fill="#00668E"/>
<path d="M145.509 321.143L143.386 317.337C144.45 315.33 145.058 313.045 145.058 310.615C145.058 302.677 138.622 296.241 130.683 296.241C122.743 296.241 116.309 302.677 116.309 310.615C116.309 318.555 122.743 324.991 130.683 324.991C134.679 324.991 138.293 323.358 140.898 320.725L145.509 321.143Z" fill="#0582C1"/>
<path d="M123.205 309.317H123.765V311.321C123.765 311.934 123.948 312.198 124.378 312.198C124.716 312.198 124.952 312.029 125.262 311.645V309.317H125.816V312.596H125.357L125.31 312.084H125.289C124.986 312.441 124.662 312.677 124.21 312.677C123.514 312.677 123.205 312.232 123.205 311.396V309.317Z" fill="white"/>
<path d="M128.953 312.212C129.493 312.212 129.892 311.72 129.892 310.909C129.892 310.188 129.648 309.702 129.028 309.702C128.75 309.702 128.474 309.857 128.15 310.146V311.868C128.448 312.117 128.737 312.212 128.953 312.212ZM128.15 312.873V313.98H127.596V309.317H128.056L128.102 309.694H128.122C128.42 309.445 128.784 309.237 129.169 309.237C130.012 309.237 130.464 309.89 130.464 310.909C130.464 312.022 129.796 312.677 129.048 312.677C128.744 312.677 128.441 312.536 128.136 312.298L128.15 312.873Z" fill="white"/>
<path d="M131.926 311.853C132.208 312.083 132.499 312.245 132.891 312.245C133.322 312.245 133.538 312.016 133.538 311.732C133.538 311.395 133.147 311.247 132.788 311.112C132.323 310.943 131.811 310.72 131.811 310.167C131.811 309.64 132.23 309.236 132.938 309.236C133.35 309.236 133.707 309.405 133.956 309.607L133.694 309.957C133.471 309.789 133.235 309.668 132.944 309.668C132.534 309.668 132.344 309.891 132.344 310.14C132.344 310.443 132.702 310.565 133.072 310.707C133.544 310.881 134.071 311.077 134.071 311.699C134.071 312.231 133.646 312.677 132.87 312.677C132.404 312.677 131.959 312.481 131.648 312.224L131.926 311.853Z" fill="white"/>
<path d="M135.804 311.828C136.02 311.828 136.201 312.002 136.201 312.26C136.201 312.501 136.02 312.677 135.804 312.677C135.581 312.677 135.398 312.501 135.398 312.26C135.398 312.002 135.581 311.828 135.804 311.828Z" fill="white"/>
<path d="M138.157 311.828C138.373 311.828 138.555 312.002 138.555 312.26C138.555 312.501 138.373 312.677 138.157 312.677C137.935 312.677 137.752 312.501 137.752 312.26C137.752 312.002 137.935 311.828 138.157 311.828Z" fill="white"/>
<path d="M90.3933 493.992C90.3933 493.992 87.3733 491.172 89.3999 480.474C91.4266 469.775 96.5679 459.5 94.0466 447.895C91.5239 436.287 71.7466 407.02 71.6799 405.075C71.6133 403.13 65.5786 439.122 75.8066 453.299C86.0333 467.478 87.2639 472.398 86.8106 479.854C86.3559 487.31 86.9159 493.314 88.0373 495.047L90.3933 493.992Z" fill="#79C9E8"/>
<path d="M88.521 472.474C87.3317 477.247 86.6144 489.214 88.5144 492.078C88.6917 492.346 88.9464 492.194 89.2637 491.699C88.685 489.722 88.305 486.254 89.3997 480.474C91.4264 469.775 96.5677 459.501 94.0464 447.894C91.5237 436.286 71.745 407.021 71.6797 405.074C71.6797 405.074 74.6597 429.458 84.697 446.241C91.8824 458.257 89.7104 467.702 88.521 472.474Z" fill="#49B4D6"/>
<path d="M94.0008 493.25C94.0008 493.25 88.1915 478.743 98.0382 466.182C107.885 453.622 123.633 437.495 123.946 431.106C123.946 431.106 127.994 461.441 115.177 470.027C102.36 478.613 93.3702 479.983 95.5928 493.195L94.0008 493.25Z" fill="#79C9E8"/>
<path d="M107.835 463.928C93.5425 474.331 92.3745 486.314 94.5918 491.871C94.7652 492.303 95.0905 492.567 95.5225 492.708C93.6065 479.956 102.521 478.506 115.176 470.027C127.993 461.44 123.947 431.106 123.947 431.106C123.947 431.106 122.127 453.526 107.835 463.928Z" fill="#49B4D6"/>
<path d="M84.4439 493.575C84.4439 493.575 86.3079 485.894 85.3159 477.602C84.3252 469.309 75.6613 464.643 67.5679 455.883C63.4026 451.378 62.1706 427.545 64.7533 425.33C64.7533 425.33 50.4626 442.649 52.6666 455.329C54.8706 468.01 78.1839 476.25 80.3412 482.378C82.4999 488.503 82.3212 493.649 82.3212 493.649L84.4439 493.575Z" fill="#79C9E8"/>
<path d="M59.9235 432.147C55.2009 444.938 60.0422 460.429 75.7315 470.05C87.2835 477.134 83.6049 491.863 83.6049 491.863L85.4915 486.053C85.6582 483.539 85.6769 480.614 85.3169 477.602C84.3249 469.309 75.6622 464.643 67.5675 455.885C63.5515 451.538 62.2635 429.221 64.4942 425.654C63.8395 426.478 61.9902 428.874 59.9235 432.147Z" fill="#49B4D6"/>
<path d="M64.4941 425.654C64.6568 425.45 64.7541 425.331 64.7541 425.331C64.6621 425.408 64.5768 425.522 64.4941 425.654Z" fill="#49B4D6"/>
<path d="M96.9902 492.616C96.9902 492.616 100.34 480.189 108.624 478.516C116.908 476.843 126.42 464.601 126.934 462.2C126.934 462.2 125.537 485.287 96.9902 492.616Z" fill="#79C9E8"/>
<path d="M108.151 482.624C103.075 485.161 100.964 488.576 100.215 491.674C125.631 483.501 126.935 462.201 126.935 462.201C126.834 462.676 126.37 463.542 125.643 464.629C123.151 468.996 117.116 478.141 108.151 482.624Z" fill="#49B4D6"/>
<path d="M114.917 488.041H71.5898L76.7352 520.401C77.1258 522.854 79.2418 524.662 81.7272 524.662H104.779C107.265 524.662 109.382 522.854 109.771 520.401L114.917 488.041Z" fill="#FFBF4D"/>
<path d="M114.065 493.393L114.915 488.04H71.5898L72.4405 493.393H114.065Z" fill="#FF9F50"/>
<path d="M104.421 488.041L99.2752 520.401C98.8845 522.854 96.7685 524.662 94.2832 524.662H104.781C107.265 524.662 109.382 522.854 109.771 520.401L114.917 488.041H104.421Z" fill="#FF9F50"/>
<path d="M413.753 470.143H217.936V430.329H413.753V470.143Z" fill="#FFBF4D"/>
<g opacity="0.289993">
<path opacity="0.289993" d="M413.753 439.993H217.936V430.329H413.753V439.993Z" fill="#F98D2B"/>
</g>
<path d="M234.962 430.33H252.834L248.045 439.998H230.162L234.962 430.33Z" fill="#F77E2D"/>
<path d="M275.228 430.33H293.1L288.311 439.998H270.438L275.228 430.33Z" fill="#F77E2D"/>
<path d="M315.494 430.33H333.366L328.576 439.998H310.703L315.494 430.33Z" fill="#F77E2D"/>
<path d="M355.759 430.33H373.622L368.833 439.998H350.969L355.759 430.33Z" fill="#F77E2D"/>
<path d="M413.755 430.33V430.599L409.09 439.998H391.236L396.027 430.33H413.755Z" fill="#F77E2D"/>
<path d="M256.117 470.147H242.312V524.584H256.117V470.147Z" fill="#79C9E8"/>
<path d="M256.116 470.147H252.98V524.584H256.116V470.147Z" fill="#49B4D6"/>
<path d="M390.451 470.147H376.646V524.584H390.451V470.147Z" fill="#79C9E8"/>
<path d="M390.45 470.147H386.369V524.584H390.45V470.147Z" fill="#49B4D6"/>
<path d="M256.117 470.104H242.312V476.96H256.117V470.104Z" fill="#49B4D6"/>
<path d="M390.451 470.104H376.646V476.96H390.451V470.104Z" fill="#49B4D6"/>
<path d="M256.117 430.291H242.312V424.109H256.117V430.291Z" fill="#79C9E8"/>
<path d="M256.116 430.291H252.98V424.109H256.116V430.291Z" fill="#49B4D6"/>
<path d="M390.451 430.291H376.646V424.109H390.451V430.291Z" fill="#79C9E8"/>
<path d="M390.45 430.291H386.369V424.109H390.45V430.291Z" fill="#49B4D6"/>
<path d="M256.117 430.296H242.312V429.517H256.117V430.296Z" fill="#49B4D6"/>
<path d="M390.451 430.296H376.646V429.517H390.451V430.296Z" fill="#49B4D6"/>
<path d="M252.834 430.329L233.086 470.143H217.936V464.651L234.962 430.329H252.834Z" fill="#0582C1"/>
<path d="M275.228 430.329L255.48 470.143H273.352L293.1 430.329H275.228Z" fill="#0582C1"/>
<path d="M333.366 430.329L313.618 470.143H295.746L315.494 430.329H333.366Z" fill="#0582C1"/>
<path d="M373.622 430.329L353.884 470.143H336.012L355.76 430.329H373.622Z" fill="#0582C1"/>
<path d="M396.027 430.329L376.277 470.143H394.141L413.755 430.599L396.027 430.329Z" fill="#0582C1"/>
<path d="M252.836 430.33L248.045 439.998H230.164L234.964 430.33H252.836Z" fill="#00668E"/>
<path d="M293.1 430.33L288.309 439.998H270.438L275.228 430.33H293.1Z" fill="#00668E"/>
<path d="M333.366 430.33L328.575 439.998H310.703L315.494 430.33H333.366Z" fill="#00668E"/>
<path d="M373.622 430.33L368.831 439.998H350.969L355.759 430.33H373.622Z" fill="#00668E"/>
<path d="M413.755 430.599L409.09 439.998H391.236L396.027 430.33L413.755 430.599Z" fill="#00668E"/>
<g opacity="0.550003">
<g opacity="0.550003">
<g opacity="0.550003">
<g opacity="0.550003">
<g opacity="0.550003">
<g opacity="0.550003">
<path opacity="0.550003" d="M410.38 447.555H223.395V467.469H410.38V447.555Z" fill="url(#paint0_linear)"/>
</g>
</g>
</g>
</g>
</g>
</g>
<path d="M261.162 415.469C261.162 408.672 255.651 403.162 248.854 403.162C242.056 403.162 236.547 408.672 236.547 415.469C236.547 422.268 242.056 427.777 248.854 427.777C255.651 427.777 261.162 422.268 261.162 415.469Z" fill="#FFBF4D"/>
<path d="M254.431 415.469C254.431 412.389 251.934 409.891 248.853 409.891C245.773 409.891 243.275 412.389 243.275 415.469C243.275 418.55 245.773 421.047 248.853 421.047C251.934 421.047 254.431 418.55 254.431 415.469Z" fill="#0582C1"/>
<path d="M395.775 415.469C395.775 408.672 390.265 403.162 383.468 403.162C376.671 403.162 371.16 408.672 371.16 415.469C371.16 422.268 376.671 427.777 383.468 427.777C390.265 427.777 395.775 422.268 395.775 415.469Z" fill="#FFBF4D"/>
<path d="M389.045 415.469C389.045 412.389 386.548 409.891 383.467 409.891C380.387 409.891 377.891 412.389 377.891 415.469C377.891 418.55 380.387 421.047 383.467 421.047C386.548 421.047 389.045 418.55 389.045 415.469Z" fill="#0582C1"/>
<path d="M487.94 520.366H425.576L435.115 497.242V497.227L438.952 487.898L440.01 485.339L441.732 481.177L442.083 480.33L445.92 470.999L446.626 469.302L453.424 452.794C454.651 449.819 458.866 449.819 460.092 452.794L466.891 469.302L467.596 470.999L471.432 480.33L471.786 481.177L473.508 485.339L474.564 487.898L478.402 497.227V497.242L487.94 520.366Z" fill="#FFBF4D"/>
<g opacity="0.289993">
<g opacity="0.289993">
<path opacity="0.289993" d="M429.663 510.451L425.578 520.365H487.946L483.859 510.451H429.663Z" fill="#F98D2B"/>
</g>
</g>
<path d="M492.022 514.437H420.594V524.535H492.022V514.437Z" fill="#79C9E8"/>
<path d="M476.588 524.535H492.02V514.437H476.588V524.535Z" fill="#49B4D6"/>
<g opacity="0.289993">
<g opacity="0.289993">
<path opacity="0.289993" d="M485.487 514.434H476.666L469.579 497.247V497.235L465.742 487.904L464.686 485.347L462.963 481.184L462.611 480.335L458.775 471.004L458.07 469.307L452.354 455.41L453.424 452.799C454.651 449.824 458.866 449.824 460.092 452.799L466.891 469.307L467.596 471.004L471.432 480.335L471.786 481.184L473.508 485.347L474.564 487.904L478.402 497.235V497.247L485.487 514.434Z" fill="#F98D2B"/>
</g>
</g>
<path d="M471.433 480.33H442.084L445.921 470.999H467.597L471.433 480.33Z" fill="#0582C1"/>
<path d="M478.402 497.228V497.243H435.115V497.228L438.953 487.899H474.565L478.402 497.228Z" fill="#0582C1"/>
<path d="M471.433 480.33H462.611L458.775 470.999H467.597L471.433 480.33Z" fill="#00668E"/>
<path d="M478.401 497.228V497.243H469.58V497.228L465.742 487.899H474.564L478.401 497.228Z" fill="#00668E"/>
<path d="M90.412 293.611C95.072 293.611 99.1227 290.227 99.752 285.611C99.864 284.783 99.9227 283.937 99.9227 283.079C99.9227 272.799 91.5907 264.467 81.312 264.467C80.8894 264.467 80.472 264.485 80.0574 264.513C79.208 254.377 70.7174 246.415 60.3614 246.415C49.4414 246.415 40.5907 255.267 40.5907 266.185C40.5907 266.669 40.6134 267.148 40.648 267.624C37.5494 265.893 33.9387 264.968 30.0974 265.144C20.1654 265.599 12.0054 273.543 11.3027 283.459C11.2974 283.537 11.292 283.616 11.288 283.695C10.968 289.088 15.328 293.611 20.7307 293.611H90.412Z" fill="#D7F0F9"/>
<path d="M534.59 308.229C549.307 308.229 550.122 286.08 535.422 285.367C535.02 285.347 534.618 285.337 534.21 285.337C531.586 285.337 529.06 285.752 526.688 286.513C524.722 274.525 514.318 265.376 501.772 265.376C488.951 265.376 478.368 274.933 476.74 287.311C473.698 285.852 470.29 285.035 466.691 285.035C464.68 285.035 462.73 285.289 460.87 285.768C448 289.083 450.702 308.229 463.99 308.229H534.59Z" fill="#D7F0F9"/>
<path d="M357.848 199.097C372.561 199.097 373.376 176.955 358.68 176.24C358.278 176.221 357.876 176.211 357.469 176.211C354.845 176.211 352.32 176.627 349.949 177.388C347.984 165.403 337.582 156.257 325.041 156.257C312.222 156.257 301.644 165.811 300.016 178.184C296.976 176.727 293.568 175.909 289.97 175.909C287.96 175.909 286.01 176.164 284.15 176.644C271.285 179.956 273.985 199.097 287.269 199.097H357.848Z" fill="#D7F0F9"/>
<path d="M158.869 204.751C158.869 185.269 143.077 169.477 123.596 169.477C104.116 169.477 88.3223 185.269 88.3223 204.751C88.3223 224.231 104.116 240.024 123.596 240.024C143.077 240.024 158.869 224.231 158.869 204.751Z" fill="#FFBF4D"/>
<path d="M123.886 169.485C133.479 175.789 139.818 186.641 139.818 198.978C139.818 218.458 124.025 234.25 104.545 234.25C104.447 234.25 104.351 234.243 104.254 234.243C109.809 237.894 116.453 240.023 123.595 240.023C143.077 240.023 158.869 224.231 158.869 204.751C158.869 185.367 143.233 169.642 123.886 169.485Z" fill="#FF9F50"/>
<defs>
<linearGradient id="paint0_linear" x1="316.887" y1="481.79" x2="316.887" y2="449.718" gradientUnits="userSpaceOnUse">
<stop stop-color="white"/>
<stop offset="0.649262" stop-color="white"/>
<stop offset="1" stop-color="white"/>
</linearGradient>
</defs>
</svg>
