<svg width="899" height="648" viewBox="0 0 899 648" fill="none" xmlns="http://www.w3.org/2000/svg">
<path d="M860.198 645.606C803.491 645.606 36.8279 643.953 36.8279 643.861C36.5119 643.115 -60.4972 524.221 61.6565 399.912C122.182 338.317 6.07494 258.516 61.6565 190.004C123.473 113.803 184.866 114.94 241.807 116.076C272.564 116.692 302.025 117.308 329.551 105.729C343.419 99.9047 357.332 90.5255 371.261 76.1334C379.102 68.0438 387.693 60.9645 396.892 54.8533C398.304 53.912 399.728 52.9935 401.167 52.1019C406.677 48.6847 412.387 45.6004 418.268 42.8223C422.221 40.9587 426.247 39.2329 430.349 37.6524H430.353C436.858 35.1345 443.543 32.9648 450.37 31.1318C460.063 28.5258 470.047 26.5895 480.226 25.277C484.665 24.6992 489.142 24.2476 493.65 23.907C581.342 17.3137 680.024 54.3941 730.953 108.591C741.204 119.505 787.829 175.971 751.077 253.587C727.872 302.592 825.081 349.392 859.628 405.349C947.45 547.621 860.994 643.751 860.198 645.606" fill="#EBF3FA"/>
<path d="M610.166 374.724L585.128 337.196L570.105 281.09L569.986 280.642H547.401L506.658 219.572C510.474 220.25 515.643 223.521 522.233 227.968C524.644 229.594 526.469 230.268 527.908 230.268C533.269 230.268 533.281 220.931 538.473 216.909C539.698 215.96 541.286 215.592 543.061 215.592C546.108 215.592 549.716 216.675 553.026 217.755C556.336 218.837 559.344 219.917 561.196 219.917C562.218 219.917 562.884 219.587 563.052 218.742C564.005 213.958 557.033 211.425 550.987 209.623C544.937 207.82 542.656 205.413 548.201 195.594C553.738 185.775 547.217 188.534 543.192 176.813C541.362 171.486 537.907 168.827 534.685 167.522C531.907 168.088 529.144 168.766 526.423 169.546C520.714 171.18 515.15 173.266 509.789 175.776C501.653 179.58 493.977 184.359 486.947 190.026C493.977 184.359 501.653 179.58 509.789 175.776C515.15 173.266 520.714 171.18 526.423 169.546C529.144 168.766 531.907 168.088 534.685 167.522C541.99 166.018 549.479 165.241 557.044 165.241C569.68 165.241 582.534 167.407 595.104 171.976C597.768 172.944 600.374 174.004 602.914 175.152C606.504 176.767 609.967 178.55 613.3 180.498C627.34 188.683 639.088 199.67 648.096 212.455L648.1 212.458C653.713 220.422 658.259 229.078 661.623 238.2C663.391 242.988 664.834 247.905 665.928 252.91C666.613 256.029 667.168 259.174 667.585 262.358C668.588 270 668.794 277.795 668.163 285.628C667.405 284.882 666.529 284.331 665.542 284.002C665.542 284.002 667.294 281.09 653.327 277.194C639.36 273.302 645.322 257.72 632.659 254.299C630.229 253.645 628.22 253.388 626.483 253.388C623.578 253.388 621.447 254.1 619.411 254.812C617.379 255.524 615.443 256.232 612.921 256.232C611.639 256.232 610.204 256.048 608.528 255.585C605.719 254.808 602.968 254.387 600.485 254.387C593.941 254.387 589.322 257.334 590.784 264.516C592.804 274.424 581.263 272.001 583.494 283.757C585.729 295.516 599.08 296.228 610.051 296.963C621.026 297.697 603.948 311.309 611.241 321.354C618.535 331.403 633 333.109 625.212 338.264C617.421 343.422 602.624 354.014 613.79 363.991C616.162 366.114 618.983 367.163 622.082 367.259C618.267 369.998 614.283 372.493 610.166 374.724V374.724ZM644.843 248.088C649.78 248.088 652.244 251.678 654.888 255.263C657.536 258.853 660.368 262.438 666.047 262.438C666.537 262.438 667.049 262.412 667.585 262.358C667.168 259.174 666.613 256.029 665.928 252.91C664.834 247.905 663.391 242.988 661.623 238.2C658.259 229.078 653.713 220.422 648.1 212.458L648.096 212.455C647.396 212.271 646.699 212.179 646.014 212.179C645.976 212.179 645.938 212.179 645.899 212.179C645.899 212.179 641.38 209.688 636.861 209.688C634.492 209.688 632.127 210.373 630.413 212.466C625.442 218.547 614.831 211.93 610.97 220.383C607.108 228.84 626.108 224.313 631.748 232.671C637.067 240.561 633.026 248.215 642.126 248.215C642.67 248.215 643.255 248.188 643.894 248.131C644.219 248.104 644.537 248.088 644.843 248.088V248.088ZM562.899 178.214C558.452 178.214 556.084 182.404 558.583 188.722C561.376 195.77 561.858 206.764 566.592 206.764C567.349 206.764 568.214 206.481 569.213 205.861C575.596 201.889 576.977 197.443 581.321 197.443C581.921 197.443 582.579 197.527 583.318 197.71C583.318 197.71 592.349 191.32 583.858 185.381C575.366 179.438 574.341 182.802 567.311 179.365C565.708 178.581 564.211 178.214 562.899 178.214" fill="#DBE8FE"/>
<path d="M527.908 230.268C526.469 230.268 524.644 229.594 522.233 227.968C515.643 223.521 510.474 220.249 506.658 219.572L486.947 190.026C493.977 184.359 501.653 179.58 509.789 175.776C515.15 173.266 520.714 171.18 526.423 169.546C529.144 168.765 531.907 168.088 534.685 167.522C537.907 168.827 541.362 171.486 543.192 176.813C547.217 188.534 553.738 185.775 548.201 195.594C542.656 205.413 544.937 207.82 550.987 209.623C557.033 211.425 564.005 213.958 563.052 218.742C562.884 219.587 562.218 219.917 561.196 219.917C559.344 219.917 556.336 218.837 553.026 217.755C549.716 216.675 546.108 215.592 543.061 215.592C541.286 215.592 539.698 215.96 538.473 216.909C533.281 220.931 533.269 230.268 527.908 230.268Z" fill="#BACDFE"/>
<path d="M622.083 367.259C618.983 367.163 616.163 366.114 613.79 363.991C602.624 354.014 617.422 343.422 625.213 338.264C633 333.109 618.535 331.403 611.242 321.354C603.948 311.309 621.027 297.697 610.052 296.963C599.081 296.228 585.729 295.516 583.495 283.757C581.264 272.001 592.805 274.424 590.784 264.516C589.323 257.334 593.941 254.387 600.485 254.387C602.969 254.387 605.72 254.808 608.529 255.585C610.205 256.048 611.64 256.232 612.922 256.232C615.444 256.232 617.38 255.524 619.412 254.812C621.448 254.1 623.579 253.388 626.483 253.388C628.221 253.388 630.23 253.645 632.66 254.299C645.322 257.72 639.36 273.302 653.327 277.194C667.295 281.09 665.542 284.002 665.542 284.002C666.53 284.331 667.406 284.882 668.163 285.628C667.379 295.378 665.286 305.19 661.781 314.826C659.442 321.262 656.569 327.362 653.228 333.079C645.211 346.801 634.523 358.339 622.083 367.259" fill="#BACDFE"/>
<path d="M666.048 262.438C660.369 262.438 657.537 258.853 654.889 255.263C652.245 251.678 649.781 248.088 644.844 248.088C644.538 248.088 644.22 248.104 643.895 248.131C643.256 248.188 642.671 248.215 642.127 248.215C633.027 248.215 637.068 240.561 631.749 232.671C626.109 224.313 607.109 228.84 610.97 220.383C614.832 211.93 625.443 218.547 630.414 212.466C632.128 210.373 634.493 209.688 636.862 209.688C641.381 209.688 645.9 212.179 645.9 212.179C645.939 212.179 645.977 212.179 646.015 212.179C646.7 212.179 647.396 212.271 648.097 212.455L648.101 212.458C653.714 220.422 658.26 229.078 661.624 238.2C663.392 242.988 664.835 247.905 665.929 252.91C666.614 256.029 667.169 259.174 667.586 262.358C667.05 262.412 666.537 262.438 666.048 262.438" fill="#BACDFE"/>
<path d="M566.593 206.764C561.859 206.764 561.377 195.77 558.584 188.722C556.085 182.404 558.454 178.214 562.9 178.214C564.213 178.214 565.709 178.581 567.312 179.365C574.342 182.802 575.368 179.438 583.859 185.381C592.35 191.32 583.319 197.71 583.319 197.71C582.581 197.527 581.923 197.442 581.322 197.442C576.979 197.442 575.597 201.889 569.214 205.861C568.215 206.481 567.351 206.764 566.593 206.764" fill="#BACDFE"/>
<path d="M62.1466 644.179H101.024C103.108 642.411 99.5828 638.397 95.8997 638.129C94.2998 638.007 92.277 638.343 89.9657 638.829C89.4307 631.723 86.3755 599.782 74.861 601.064C61.9143 602.503 74.8611 615.131 78.5209 622.608C81.2321 628.149 84.0921 636.09 85.3989 639.84C84.3481 640.069 83.2598 640.291 82.1482 640.494C80.4323 635.229 74.0471 617.503 65.9273 618.537C56.3939 619.746 60.226 626.852 66.9831 631.069C71.9405 634.172 78.028 638.581 80.9206 640.708C78.4696 641.11 75.9118 641.378 73.317 641.321C66.6578 641.16 63.4071 643.123 62.1466 644.179" fill="#A8D29F"/>
<path d="M680.881 644.179H644.773C642.836 642.537 646.112 638.81 649.533 638.558C651.018 638.447 652.897 638.757 655.044 639.212C655.541 632.611 658.377 602.939 669.072 604.133C681.099 605.469 669.072 617.197 665.674 624.146C663.156 629.29 660.5 636.667 659.283 640.15C660.263 640.36 661.273 640.567 662.307 640.758C663.898 635.864 669.83 619.401 677.372 620.362C686.227 621.483 682.668 628.084 676.392 632.003C671.785 634.884 666.133 638.979 663.447 640.957C665.72 641.328 668.096 641.577 670.507 641.523C676.695 641.374 679.714 643.199 680.881 644.179" fill="#A8D29F"/>
<path d="M706.671 407.469C706.671 407.469 707.533 398.92 703.059 399.211C698.59 399.506 697.407 401.557 697.905 403.198C698.406 404.84 702.753 410.278 702.753 410.278L706.671 407.469Z" fill="#FFB27D"/>
<path d="M776.329 424.597C776.329 424.597 771.377 430.414 760.735 437.122C759.729 437.761 758.673 438.4 757.563 439.047C753.43 441.454 748.582 443.922 742.983 446.222C742.367 446.474 741.644 446.754 740.829 447.044C734.454 449.348 722.717 452.612 715.447 452.907C714.811 452.93 714.215 452.93 713.656 452.911C702.585 452.463 701.238 409.505 701.238 409.505C701.238 409.505 702.47 405.208 708.157 406.29C708.157 406.29 716.79 430.552 719.886 432.526C722.637 434.286 738.433 410.335 752.033 408.659C761.191 407.534 776.329 424.597 776.329 424.597" fill="#739AF0"/>
<path d="M746.592 634.077C746.592 634.077 747.411 643.532 745.413 644.516L719.832 644.466C719.832 644.466 719.832 641.512 723.938 640.857C728.048 640.199 735.265 637.796 736.49 632.435C737.71 627.078 746.592 634.077 746.592 634.077" fill="#1C3154"/>
<path d="M727.814 519.629C727.94 525.813 728.235 532.188 728.816 537.92C731.579 565.12 732.551 597.984 732.949 604.321C733.638 615.318 735.808 632.89 735.808 632.89C735.808 632.89 740.12 636.981 748.52 635.03C748.52 635.03 755.481 609.72 757.034 583.075C757.057 582.635 757.08 582.199 757.103 581.758C757.283 578.234 757.474 574.205 757.666 569.861C758.948 540.767 760.337 497.545 760.337 497.545L728.235 490.007C728.235 490.007 727.496 504.215 727.814 519.629Z" fill="#2A4E96"/>
<path d="M727.814 519.629C735.949 533.665 751.455 559.522 757.666 569.861C758.948 540.767 760.337 497.545 760.337 497.545L728.235 490.006C728.235 490.006 727.496 504.215 727.814 519.629" fill="#233862"/>
<path d="M740.828 447.044C734.452 449.348 722.716 452.612 715.445 452.907C716.555 452.696 724.652 451.093 727.649 447.477C730.863 443.593 736.282 433.035 740.587 437.344C742.615 439.372 742.022 443.378 740.828 447.044Z" fill="#6385DB"/>
<path d="M794.77 515.056C794.77 515.056 796.763 522.87 796.434 524.603C796.109 526.341 794.165 532.222 792.952 533.68C791.739 535.142 791.689 527.339 790.882 526.115C790.074 524.886 790.51 529.027 789.864 529.364C789.221 529.704 788.142 526.23 787.66 524.997C787.181 523.769 789.385 519.483 789.588 516.41C789.791 513.338 794.77 515.056 794.77 515.056" fill="#FFB27D"/>
<path d="M810.315 623.331C810.315 623.331 814.869 627.483 813.981 630.438C813.094 633.392 808.984 635.359 808.429 638.967C807.874 642.576 805.655 644.543 803.653 644.543C801.656 644.543 794.125 644.543 794.125 644.543C794.125 644.543 792.652 642.006 796.207 641.24C799.762 640.475 801.101 636.231 800.879 632.297C800.657 628.36 801.212 623.109 801.212 623.109L808.762 621.361L810.315 623.331" fill="#1C3154"/>
<path d="M733.293 498.203C733.293 498.203 763.344 562.499 779.335 590.709C795.327 618.919 800.325 626.795 800.325 626.795C800.325 626.795 809.486 623.186 810.316 620.725C810.316 620.725 804.201 566.261 793.494 552.986C787.44 545.482 780.334 522.969 780.001 515.098C779.668 507.223 772.646 488.434 772.646 488.434L733.293 498.203Z" fill="#2A4E96"/>
<path d="M727.696 494.859C727.696 494.859 737.481 505.39 754.107 508.57C761.405 509.966 776.218 511.313 779.891 506.121C780.752 504.9 780.76 503.094 780.569 500.273C780.075 492.945 778.231 478.775 786.554 450.301C787.331 447.653 787.851 445.112 788.153 442.69C789.971 428.125 789.776 417.128 777.136 411.254C758.198 402.452 750.426 409.692 750.426 409.692C750.426 409.692 740.354 414.399 735.755 428.114C726.552 455.551 727.696 494.859 727.696 494.859" fill="#739AF0"/>
<path d="M765.767 408.835C762.579 411.101 756.969 412.436 751.623 409.761C751.21 409.555 751.26 406.727 751.363 403.949C751.466 401.224 751.723 398.549 751.723 398.549L758.462 394.125L764.89 389.908C764.121 404.412 767.206 407.806 765.767 408.835" fill="#FFB27D"/>
<path d="M763.762 395.893C763.762 395.893 759.388 402.456 751.363 403.948C751.467 401.224 751.757 398.22 751.757 398.22L758.462 394.125L763.762 395.893Z" fill="#ED985F"/>
<path d="M745.689 396.842C745.689 396.842 761.991 402.927 765.618 392.882C769.246 382.837 773.792 376.859 763.537 372.551C753.285 368.242 749.868 371.349 747.828 374.407C745.789 377.464 741.545 395.002 745.689 396.842" fill="#FFB27D"/>
<path d="M775.773 373.68C775.96 373.534 776.339 373.462 777.135 373.576C777.135 373.576 776.584 373.06 775.75 372.872C775.8 371.747 775.601 369.7 773.817 368.862C773.817 368.862 774.721 369.597 774.621 370.783C772.888 368.119 768.548 365.571 755.434 364.04C738.157 362.024 741.612 374.024 743.556 375.758C745.504 377.491 751.753 375.027 755.79 376.163C759.831 377.3 759.441 383.384 760.673 384.475C761.901 385.561 761.641 384.015 763.692 383.537C765.743 383.055 765.307 386.212 764.362 388.137C763.417 390.058 765.475 393.245 765.475 393.245C765.475 393.245 765.475 393.245 768.648 390.946C771.82 388.646 776.642 377.2 775.957 374.422C775.895 374.177 775.834 373.928 775.773 373.68" fill="#2C3A64"/>
<path d="M780.568 500.273C780.074 492.945 778.23 478.775 786.553 450.301C787.33 447.653 787.85 445.112 788.152 442.69C781.968 440.65 770.699 445.189 770.699 445.189C770.699 445.189 768.051 482.828 780.568 500.273" fill="#6385DB"/>
<path d="M780.546 413.159C780.546 413.159 788.154 415.926 793.01 436.07C796.216 449.383 802.117 468.944 802.783 475.094C803.449 481.243 796.037 517.237 796.037 517.237C796.037 517.237 794.988 517.999 792.428 517.486C789.975 516.996 788.835 515.339 788.835 515.339C788.835 515.339 787.059 491.346 787.518 480.019C787.71 475.312 765.733 445.552 753.871 441.718C749.213 440.214 780.546 413.159 780.546 413.159Z" fill="#739AF0"/>
<path d="M674.113 387.081C674.113 387.081 696.105 386.453 721.487 391.125L724.135 384.444L727.044 377.124C727.044 377.124 701.566 366.156 686.251 350.88L674.113 387.081" fill="#AEC3FF"/>
<path d="M686.6 350.525L673.972 387.8C672.128 387.253 671.118 385.271 671.76 383.453L682.873 352.136C683.413 350.62 685.127 349.878 686.6 350.525" fill="#F99746"/>
<path d="M698.654 414.82C701.107 415.314 703.518 413.707 704.008 411.25L708.355 389.495C708.848 387.042 707.241 384.632 704.785 384.142C702.328 383.652 699.921 385.259 699.427 387.712L695.08 409.467C694.59 411.92 696.197 414.33 698.654 414.82" fill="#F99746"/>
<path d="M674.113 387.081C674.113 387.081 696.105 386.453 721.487 391.125L724.135 384.444C700.291 379.577 674.113 387.081 674.113 387.081Z" fill="#739AF0"/>
<path d="M714.469 389.782L721.341 390.991C721.234 390.995 727.724 392.254 729.852 386.503C730.047 386.109 730.17 385.722 730.258 385.263C731.911 378.096 727.977 376.775 727.977 376.775L719.13 373.328L716.321 383.273C716.321 383.273 716.321 383.273 716.321 383.308L714.469 389.782" fill="#F99746"/>
<path d="M714.469 389.782L721.341 390.991C721.234 390.995 727.724 392.254 729.852 386.503C725.964 383.675 716.321 383.273 716.321 383.273C716.321 383.273 716.321 383.273 716.321 383.308L714.469 389.782" fill="#ED7D2B"/>
<path d="M699.24 393.758C699.24 393.758 702.6 395.098 701.984 396.578C701.368 398.056 697.094 400.091 696.42 398.924C695.747 397.757 697.124 392.507 699.24 393.758Z" fill="#FFB27D"/>
<path d="M706.737 406.122C706.737 406.122 707.372 402.682 707.41 401.101C707.449 399.521 707.636 398.231 707.265 398.185C706.89 398.143 706.622 398.434 706.469 398.943C706.316 399.448 705.734 402.601 705.734 402.601L706.029 405.64L706.737 406.122" fill="#FFB27D"/>
<path d="M374.226 403.876L355.181 630.338C355.181 630.338 353.187 644.068 363.397 644.091C380.184 644.133 446.963 644.091 446.963 644.091C446.963 644.091 434.324 641.233 434.477 634.804C434.661 627.227 456.74 401.733 456.74 401.733L374.226 403.876" fill="#7599EA"/>
<path d="M453.248 640.073C449.946 640.085 385.298 640.192 368.95 639.981C361.825 639.893 360.574 633.648 360.516 629.603C360.486 627.667 360.731 626.232 360.731 626.232L361.228 620.347L362.491 605.346L363.604 592.09L365.036 575.058L366.245 560.685L379.776 399.766L462.29 397.623C462.29 397.623 452.992 491.993 446.414 560.685C445.679 568.338 444.979 575.674 444.336 582.528C444.125 584.713 443.922 586.852 443.727 588.933C443.119 595.431 442.56 601.401 442.074 606.67C441.818 609.448 441.584 612.027 441.37 614.392C440.528 623.657 440.038 629.573 440.031 630.698C440.027 631.352 440.084 631.961 440.191 632.531C441.546 639.748 452.008 640.073 453.248 640.073" fill="#90AFF4"/>
<path d="M173.84 280.642L220.233 466.993L226.585 492.517L248.192 579.313H649.627L569.987 280.642H173.84Z" fill="#AEC3FF"/>
<path d="M173.84 280.642L167.41 282.785L239.645 585.796L248.194 579.313L173.84 280.642" fill="#90AFF4"/>
<path d="M239.646 585.796H638.612L649.629 579.313H248.195L239.646 585.796Z" fill="#7599EA"/>
<path d="M379.748 644.179H466.131V640.073H379.748V644.179Z" fill="#AEC3FF"/>
<path d="M444.174 585.796L443.727 588.933L362.49 605.346L363.604 592.09L364.136 585.796H444.174Z" fill="#5888DD"/>
<path d="M453.247 640.073H383.602C377.38 640.054 372.206 640.023 368.95 639.981C361.824 639.893 360.573 633.648 360.516 629.603L441.369 614.392C440.527 623.657 440.038 629.573 440.03 630.698C440.03 630.717 440.03 630.736 440.03 630.759C440.03 631.39 440.087 631.98 440.191 632.531C441.545 639.748 452.007 640.073 453.247 640.073" fill="#7A9FEB"/>
<path d="M413.698 640.111C403.198 640.111 392.361 640.1 383.602 640.073H453.247C451.529 640.081 433.191 640.111 413.698 640.111Z" fill="#8CABF1"/>
<path d="M173.84 280.642H569.988L634.26 520.681H233.597L173.84 280.642Z" fill="#AEC3FF"/>
<path d="M615.578 510.276H244.663L231.409 457.476L226.281 437.045L224.19 428.715L210.567 374.453L209.861 371.628L202.66 342.944L199.439 330.113L196.69 319.165L190.248 293.503H555.813L562.889 319.165L565.908 330.113L569.444 342.944L592.752 427.494V427.498L594.727 434.661L595.645 437.987L611.74 496.355L615.578 510.276Z" fill="#739AF0"/>
<path d="M562.887 319.165H196.69L190.248 293.5H555.816L562.887 319.165Z" fill="#607CF4"/>
<path d="M205.373 305.098C204.931 303.326 206.009 301.891 207.781 301.891C209.553 301.891 211.347 303.326 211.789 305.098C212.231 306.87 211.153 308.309 209.381 308.309C207.609 308.309 205.814 306.87 205.373 305.098Z" fill="#E9F3FE"/>
<path d="M216.033 305.098C215.591 303.326 216.669 301.891 218.441 301.891C220.213 301.891 222.008 303.326 222.449 305.098C222.891 306.87 221.813 308.309 220.041 308.309C218.269 308.309 216.474 306.87 216.033 305.098Z" fill="#E9F3FE"/>
<path d="M227.511 305.098C227.069 303.326 228.148 301.891 229.92 301.891C231.691 301.891 233.486 303.326 233.928 305.098C234.37 306.87 233.291 308.309 231.519 308.309C229.747 308.309 227.953 306.87 227.511 305.098Z" fill="#E9F3FE"/>
<path d="M483.094 144.298C498.087 126.695 521.204 91.3367 536.767 73.2289C539.97 69.5017 537.311 63.7503 532.393 63.7503H504.072L530.786 3.34632C531.927 0.767142 528.414 -1.28776 526.726 0.96997L462.132 87.4258C460.249 89.9476 462.308 93.4949 465.434 93.1123L497.494 89.1631L478.418 141.562C477.37 144.447 481.105 146.632 483.094 144.298" fill="#F77D48"/>
<path d="M349.753 251.506C353.125 234.209 355.252 202.077 358.819 184.229C359.55 180.555 355.631 177.731 352.367 179.572L333.559 190.164L328.707 140.05C328.496 137.911 325.397 137.861 325.117 139.993L314.556 221.573C314.246 223.954 316.944 225.542 318.876 224.118L338.694 209.5L345.624 251.441C346.007 253.748 349.306 253.802 349.753 251.506" fill="#AEC3FF"/>
<path d="M631.78 515.389L309.487 542.539C285.011 544.602 267.302 519.656 277.324 497.231L413.867 191.645C424.226 168.463 456.067 165.781 470.157 186.904L655.907 465.336C669.538 485.767 656.252 513.326 631.78 515.389" fill="#E6EFFF"/>
<path d="M441.64 184.849C434.262 185.473 428.056 189.877 425.036 196.635L288.489 502.225C285.57 508.761 286.301 516.146 290.445 521.986C294.589 527.825 301.324 530.952 308.457 530.351L630.75 503.197C637.887 502.596 644.002 498.387 647.109 491.935C650.22 485.487 649.704 478.083 645.732 472.124L459.981 193.692C455.872 187.531 449.014 184.229 441.64 184.849V184.849ZM632.805 527.577L310.512 554.731C294.662 556.066 279.699 549.121 270.493 536.148C261.286 523.18 259.663 506.763 266.153 492.241L402.696 186.655C409.404 171.639 423.196 161.847 439.585 160.469C455.975 159.088 471.209 166.431 480.335 180.112L666.086 458.547C674.914 471.78 676.058 488.231 669.151 502.562C662.244 516.889 648.655 526.241 632.805 527.577" fill="#F77D48"/>
<path d="M483.917 410.328L437.492 414.238L417.551 256.17L477.128 251.15L483.917 410.328ZM434.086 468.634C433.738 464.483 434.155 460.579 435.341 456.929C436.527 453.282 438.364 450.052 440.855 447.243C443.346 444.438 446.431 442.146 450.116 440.378C453.797 438.614 458.022 437.524 462.797 437.122C467.565 436.72 471.947 437.084 475.938 438.205C479.929 439.326 483.389 441.063 486.312 443.413C489.24 445.766 491.589 448.644 493.372 452.042C495.148 455.44 496.216 459.217 496.568 463.369C496.916 467.525 496.495 471.397 495.305 474.979C494.111 478.569 492.27 481.768 489.783 484.573C487.292 487.381 484.173 489.674 480.423 491.445C476.677 493.217 472.418 494.308 467.65 494.709C462.874 495.111 458.527 494.748 454.601 493.623C450.674 492.498 447.25 490.756 444.326 488.403C441.399 486.053 439.045 483.21 437.273 479.87C435.498 476.533 434.438 472.786 434.086 468.634" fill="#F77D48"/>
<path d="M233.957 420.02C233.957 420.02 234.968 417.747 235.622 416.672C236.276 415.597 239.073 412.444 239.548 413.159C240.024 413.871 241.928 418.677 240.917 420.02C239.905 421.367 240.982 423.709 235.952 425.125L233.957 420.02" fill="#FFB27D"/>
<path d="M178.059 405.671C178.059 405.671 203.807 427.165 213.847 425.175C221.698 423.618 234.11 419.68 234.11 419.68C234.11 419.68 237.385 422.799 236.459 426.534C236.459 426.534 220.646 441.412 209.38 441.507C191.771 441.657 183.466 432.782 183.466 432.782L178.059 405.671Z" fill="#ED7D2B"/>
<path d="M132.9 632.381C132.9 632.381 133.648 644.439 135.981 644.611C136.291 644.634 147.813 644.634 147.813 644.634L162.521 644.55C162.521 644.55 162.424 641.003 158.125 640.257C153.826 639.507 146.63 636.483 144.026 630.801C141.286 624.824 132.9 632.381 132.9 632.381" fill="#113C68"/>
<path d="M132.053 633.216C132.053 633.216 136.524 634.712 140.015 634.712C143.909 634.712 147.448 633.652 147.448 633.652C147.448 633.652 148.289 625.512 152.922 607.577C155.35 598.175 158.818 586.086 163.753 571.067C177.395 529.555 181.544 505.271 181.922 502.971C181.942 502.853 181.95 502.791 181.95 502.791L181.906 502.772L139.964 484.354C139.964 484.354 145.148 541.567 138.534 563.528C137.607 566.597 136.814 570.171 136.133 574.048C131.957 597.899 132.053 633.216 132.053 633.216Z" fill="#2A4E96"/>
<path d="M152.922 607.577C155.35 598.175 158.819 586.086 163.753 571.067C177.395 529.555 181.544 505.271 181.922 502.971C181.919 502.902 181.914 502.837 181.906 502.772L139.964 484.354C139.964 484.354 145.148 541.567 138.535 563.528C137.608 566.597 152.922 607.577 152.922 607.577" fill="#233862"/>
<path d="M165.66 632.381C165.66 632.381 166.408 644.439 168.741 644.611C169.051 644.634 180.572 644.634 180.572 644.634L195.28 644.55C195.28 644.55 195.184 641.003 190.885 640.257C186.586 639.507 179.389 636.483 176.785 630.801C174.046 624.824 165.66 632.381 165.66 632.381" fill="#15447C"/>
<path d="M189.44 485.701C189.44 485.701 189.985 522.778 183.57 568.296C177.155 613.818 179.33 633.139 179.33 633.139C179.33 633.139 174.923 634.566 173.144 634.712C168.613 635.083 163.967 633.652 163.967 633.652C163.967 633.652 154.786 588.115 157.418 565.331C160.051 542.547 144.846 487.148 144.846 487.148L189.44 485.701" fill="#2A4E96"/>
<path d="M159.699 398.947L167.886 404.312L175.344 402.204C176.707 400.26 177.068 396.509 177.088 393.264C177.108 390.039 176.795 387.31 176.795 387.31L165.75 382.435L161.628 380.617C161.64 380.682 161.949 384.004 161.993 384.486C162.762 393.096 159.699 398.947 159.699 398.947Z" fill="#FFB27D"/>
<path d="M189.627 496.011C179.436 505.849 140.87 504.196 138.493 493.355C136.12 482.514 141.085 401.071 158.492 395.955C162.105 394.895 181.416 401.136 181.416 401.136C181.416 401.136 184.447 409.065 186.434 419.156C186.82 421.123 187.945 441.932 188.788 461.402C189.181 470.51 189.514 479.322 189.684 485.778C189.839 491.824 189.846 495.796 189.627 496.011" fill="#F99746"/>
<path d="M162.818 384.639C165.06 388.428 172.922 391.745 177.088 393.265C177.108 390.039 176.795 387.31 176.795 387.31L165.749 382.435C163.307 382.401 161.82 382.948 162.818 384.639" fill="#FCA56B"/>
<path d="M180.962 386.637C180.962 386.637 163.165 392.189 159.878 381.054C156.592 369.914 152.081 363.133 163.305 359.115C174.53 355.101 178.001 358.695 180.003 362.146C182.004 365.598 185.507 384.907 180.962 386.637" fill="#FFB27D"/>
<path d="M179.303 361.075C179.303 361.075 178.168 374.032 175.487 373.469C172.808 372.907 169.857 371.705 170.25 375.612C170.642 379.515 167.643 386.216 163.779 386.197C155.491 386.162 146.485 364.894 148.754 360.864C155.301 349.227 188.765 346.878 179.303 361.075Z" fill="#163560"/>
<path d="M176.685 396.238C176.455 396.142 163.435 390.299 161.913 390.804C160.39 391.305 158.492 395.955 158.492 395.955L181.418 401.14C181.418 401.14 179.613 397.47 176.685 396.238" fill="#ED7D2B"/>
<path d="M257.739 459.309L184.757 528.025C183.326 529.372 181.522 529.8 180.748 528.977L178.284 526.36C177.51 525.537 178.047 523.765 179.477 522.418L252.46 453.703C253.891 452.356 255.695 451.927 256.469 452.75L258.932 455.364C259.705 456.187 259.169 457.962 257.739 459.309" fill="#1F4D84"/>
<path d="M216.783 497.87L184.757 528.025C183.326 529.372 181.522 529.8 180.748 528.977L178.284 526.36C177.51 525.537 178.047 523.765 179.477 522.418L211.504 492.264L216.783 497.87" fill="#739AF0"/>
<path d="M257.315 380.571C269.911 367.178 287.862 361.844 304.719 364.76C314.542 366.463 323.986 370.959 331.788 378.302C352.984 398.239 353.998 431.581 334.058 452.777C326.718 460.576 317.565 465.642 307.868 467.938C291.218 471.88 272.976 467.651 259.583 455.05C238.391 435.109 237.373 401.767 257.315 380.571V380.571ZM240.965 433.364C243.768 442.598 248.956 451.246 256.49 458.337C279.501 479.984 315.705 478.875 337.348 455.869C358.713 433.161 357.917 397.615 335.78 375.88C335.485 375.585 335.186 375.298 334.88 375.015C311.874 353.368 275.674 354.466 254.027 377.476C239.466 392.951 235.196 414.395 240.965 433.364" fill="#1F4D84"/>
<path d="M277.772 466.235C274.022 464.884 270.39 463.09 266.958 460.851C264.379 459.167 261.907 457.235 259.584 455.05C238.392 435.109 237.373 401.767 257.316 380.571C258.146 379.688 258.998 378.842 259.875 378.031C269.92 368.697 282.793 363.987 295.692 363.987C298.711 363.987 301.731 364.247 304.719 364.764C310.222 365.716 315.61 367.546 320.654 370.266L277.772 466.235Z" fill="#93B5F5"/>
<path d="M303.43 468.791L339.68 387.662C339.825 387.88 339.971 388.102 340.112 388.324C344.804 395.664 347.505 403.933 348.198 412.348C349.373 426.694 344.7 441.465 334.058 452.777C326.719 460.576 317.565 465.642 307.869 467.938C306.403 468.286 304.918 468.569 303.43 468.791" fill="#CCDFFC"/>
<path d="M295.673 469.362C294.004 469.362 292.336 469.281 290.671 469.124C286.297 468.711 281.962 467.747 277.771 466.235L320.653 370.266C322.643 371.338 324.583 372.547 326.45 373.894C328.299 375.229 330.086 376.695 331.789 378.302C334.839 381.168 337.471 384.314 339.679 387.662L303.429 468.791C300.862 469.17 298.267 469.362 295.673 469.362Z" fill="#D5A6A1"/>
<path d="M295.675 469.362C294.007 469.362 292.335 469.281 290.67 469.124C292.335 469.281 294.003 469.362 295.672 469.362C298.266 469.362 300.861 469.17 303.428 468.791C304.917 468.569 306.402 468.286 307.867 467.938C317.564 465.642 326.717 460.576 334.057 452.777C344.699 441.465 349.371 426.694 348.196 412.348C349.371 426.694 344.699 441.465 334.061 452.777C326.717 460.576 317.564 465.642 307.867 467.942C303.868 468.887 299.77 469.362 295.675 469.362V469.362ZM266.956 460.851C264.373 459.167 261.905 457.235 259.582 455.05C238.389 435.109 237.372 401.767 257.313 380.571C258.144 379.687 258.997 378.842 259.873 378.031C258.997 378.842 258.144 379.687 257.315 380.571C237.372 401.767 238.391 435.109 259.582 455.05C261.905 457.235 264.377 459.167 266.956 460.851V460.851ZM340.111 388.324C339.969 388.102 339.824 387.88 339.678 387.662C337.47 384.314 334.838 381.168 331.788 378.302C330.085 376.695 328.298 375.229 326.449 373.894C328.298 375.229 330.085 376.695 331.788 378.298C335.037 381.356 337.815 384.731 340.111 388.324Z" fill="#698EBF"/>
<path d="M189.684 485.778C149.47 457.124 152.814 418.884 152.814 418.884C167.512 427.173 182.097 445.502 188.789 461.402C189.182 470.51 189.514 479.322 189.684 485.778Z" fill="#ED7D2B"/>
<path d="M229.374 472.729C232.21 472.075 234.115 469.932 234.51 469.557C234.51 469.557 235.719 469.637 234.312 472.216C234.194 472.434 233.932 472.989 233.735 473.38C233.655 473.54 233.767 473.728 233.946 473.739C235.582 473.866 237.227 473.219 240.38 473.873C240.815 473.965 240.941 475.006 240.925 475.45C240.897 476.204 240.951 477.046 240.077 478.197C239.569 478.867 238.152 479.59 234.996 480.857C233.793 481.343 230.356 480.979 227.133 479.87L224.559 478.68L225.357 473.892L226.004 474.03C227.031 474.244 228.303 472.989 229.374 472.729" fill="#FFB27D"/>
<path d="M165.295 401.14C165.295 401.14 129.162 408.02 175.926 460.346C183.405 468.715 223.813 479.609 223.813 479.609C223.813 479.609 227.911 476.123 225.845 473.299C225.845 473.299 198.023 453.094 191.902 449.884C189.148 448.437 181.214 417.637 176.724 410.22C172.235 402.801 165.295 401.14 165.295 401.14Z" fill="#F99746"/>
<path d="M234.936 420.656C234.936 420.656 236.117 418.398 236.348 417.208C236.579 416.014 238.067 412.539 238.68 411.927C238.926 411.682 239.735 412 239.83 413.052C239.872 413.511 239.647 414.346 239.25 415.341C238.603 416.955 238.71 419.148 238.485 419.879C237.926 421.7 234.936 420.656 234.936 420.656Z" fill="#FFB27D"/>
<path d="M249.316 331.005C248.701 331.709 248.622 332.497 248.926 333.335L248.932 333.35C249.494 334.904 251.351 336.637 253.508 338.371C253.784 338.593 254.029 338.796 254.243 338.983C254.299 339.033 254.355 339.083 254.408 339.132C254.451 339.171 254.493 339.209 254.535 339.247C256.546 341.103 255.789 341.528 259.404 345.293C263.521 349.583 266.361 349.66 267.168 349.269C267.853 348.936 266.464 346.663 264.929 344.107C264.853 343.981 264.78 343.858 264.704 343.732C264.501 343.391 264.294 343.047 264.091 342.707C262.293 339.63 262.756 338.183 263.184 333.607C263.533 329.883 268.978 312.82 268.978 312.82L261.08 311.454C261.08 311.454 258.7 325.046 256.076 327.136C254.674 328.253 253.105 328.265 251.758 329.091C251.663 329.149 251.569 329.21 251.477 329.271C250.712 329.776 249.932 330.3 249.316 331.005" fill="#FFB27D"/>
<path d="M249.316 331.005C248.701 331.709 248.622 332.497 248.926 333.335L248.932 333.35C249.62 334.9 251.431 336.63 253.516 338.356C253.788 338.581 254.029 338.792 254.243 338.983C254.299 339.033 254.355 339.083 254.408 339.132C254.451 339.171 254.493 339.209 254.535 339.247C256.546 341.103 255.789 341.528 259.404 345.293C263.521 349.583 266.361 349.66 267.168 349.269C267.853 348.936 266.464 346.663 264.929 344.107C264.126 343.812 260.399 342.297 257.582 338.689C255.191 335.635 253.568 331.747 251.942 329.355C251.763 329.325 251.657 329.302 251.478 329.271C250.712 329.776 249.932 330.3 249.316 331.005" fill="#233862"/>
<path d="M313.011 326.095C313.497 328.533 316.976 328.127 320.856 327.182C324.74 326.233 323.818 327.362 329.344 326.749C334.869 326.141 336.545 324.082 336.714 323.259C336.867 322.529 334.135 322.272 331.207 321.932C330.84 321.893 330.469 321.847 330.097 321.801C326.791 321.384 324.369 319.249 321.369 317.496C318.522 315.836 314.278 309.07 314.278 309.07L306.701 309.667C306.701 309.667 310.673 315.709 312.212 318.338C313.115 319.88 313.069 321.924 312.954 323.5C312.897 324.358 312.839 325.234 313.011 326.095" fill="#FFB27D"/>
<path d="M320.856 327.182C324.74 326.233 323.818 327.362 329.343 326.749C334.869 326.141 336.545 324.082 336.714 323.259C336.867 322.529 334.134 322.272 331.207 321.932L331.18 321.989C331.18 321.989 327.863 324.339 323.263 324.446C319.513 324.538 315.545 323.462 312.954 323.5C312.896 324.358 312.839 325.234 313.011 326.095C313.497 328.533 316.976 328.127 320.856 327.182" fill="#233862"/>
<path d="M283.983 277.623L276.892 296.687L267.635 321.576C267.635 321.576 265.125 321.817 262.722 321.124C260.506 320.485 257.969 318.809 257.969 318.809C257.969 318.809 260.544 292.084 265.343 276.743C266.571 272.801 267.949 269.617 269.468 267.826C276.9 259.052 283.983 277.623 283.983 277.623" fill="#233862"/>
<path d="M276.793 247.342C272.759 246.041 262.236 247.316 250.821 249.378C247.667 249.948 244.489 248.51 242.829 245.766L214.105 243.516C214.105 243.516 204.619 264.532 209.804 277.925C210.566 279.896 212.239 281.124 214.822 281.166C214.822 281.166 232.18 281.197 237.731 281.197C252.016 281.201 267.968 271.389 270.031 270.976C273.406 270.302 274.757 277.056 278.128 284.147C281.503 291.242 309.859 315.56 309.859 315.56C309.859 315.56 314.217 315.606 316.02 314.933C317.956 314.206 318.664 313.264 318.664 313.264C318.664 313.264 287.258 250.721 276.793 247.342" fill="#2A4E96"/>
<path d="M239.804 161.414C237.671 160.144 235.592 159.949 234.318 159.987C233.431 160.01 232.546 159.953 231.669 159.826C220.706 158.211 214.099 174.134 213.71 178.948C212.997 187.78 208.324 189.123 201.744 194.657C188.552 205.742 192.415 218.635 199.624 223.425C203.95 226.303 211.579 223.429 211.579 223.429C211.686 223.506 232.441 211.838 242.671 206.209C258.007 204.036 245.963 165.084 239.804 161.414Z" fill="#233862"/>
<path d="M234.1 201.411C234.145 201.441 229.067 203.171 225.672 201.667C222.479 200.255 220.061 195.001 220.108 194.997C221.561 194.928 223.157 193.662 224.388 185.323L225.007 185.545L235.409 189.296C235.409 189.296 234.654 192.632 234.165 195.809C233.754 198.48 233.532 201.036 234.1 201.411" fill="#FFB27D"/>
<path d="M235.409 189.295C235.409 189.295 234.994 191.094 234.387 194.458C228.412 193.382 225.848 188.779 225.008 185.545L235.409 189.295Z" fill="#ED975D"/>
<path d="M236.958 192.609C236.958 192.609 222.725 190.692 224.054 181.849C225.384 173.002 224.442 166.799 233.585 167.648C242.729 168.498 243.983 172.137 244.257 175.198C244.532 178.256 240.694 192.877 236.958 192.609" fill="#FFB27D"/>
<path d="M243.738 170.346C243.738 170.346 234.624 178.198 228.426 178.826C222.228 179.457 219.883 177.467 219.883 177.467C219.883 177.467 223.537 174.437 225.736 169.542C226.385 168.1 227.755 167.109 229.33 166.975C233.756 166.596 242.145 166.424 243.738 170.346Z" fill="#233862"/>
<path d="M238.045 169.642C238.045 169.642 241.092 172.592 242.051 174.777C242.977 176.886 243.253 181.933 242.514 183.934C242.514 183.934 247.267 174.704 244.579 170.216C241.73 165.455 238.045 169.642 238.045 169.642Z" fill="#233862"/>
<path d="M246.079 222.385C245.639 251.196 245.953 245.173 242.801 247.909C242.041 248.567 239.906 248.957 237.096 249.141C228.261 249.726 212.731 248.264 212.141 246.631C210.106 240.982 211.545 239.226 209.848 230.578C209.671 229.655 209.452 228.66 209.195 227.578C207.779 221.635 206.4 219.614 211.433 210.074C215.996 201.43 220.737 194.416 221.163 194.668C233.193 201.816 234.165 195.812 234.165 195.812C234.165 195.812 246.295 208.329 246.079 222.385" fill="#F99746"/>
<path d="M276.892 296.687L267.635 321.576C267.635 321.576 265.125 321.817 262.722 321.124C260.506 320.485 257.969 318.809 257.969 318.809C257.969 318.809 260.544 292.084 265.343 276.743L276.892 296.687" fill="#2A4E96"/>
<path d="M234.166 195.809C234.166 195.809 246.546 197.913 247.998 203.244C249.45 208.578 254.225 240.933 254.225 240.933C254.225 240.933 250.733 244.342 247.826 241.434C244.919 238.526 238.686 211.157 238.686 211.157L234.166 195.809" fill="#F99746"/>
<path d="M237.096 249.141C228.261 249.726 212.731 248.264 212.141 246.631C210.106 240.982 211.545 239.226 209.848 230.578L214.113 218.577C214.113 218.577 213.404 231.94 217.343 235.457C221.278 238.973 233.474 242.245 235.389 245.184C236.312 246.592 236.919 248.008 237.096 249.141Z" fill="#ED7D2B"/>
<path d="M226.975 243.519C226.975 243.519 235.691 241.579 237.097 242.356C238.504 243.129 241.94 245.946 242.37 246.925C242.799 247.909 239.239 246.183 238.08 245.869C237.33 245.67 235.355 246.355 234.378 246.68C230.264 248.05 227.743 247.342 227.743 247.342L226.975 243.519Z" fill="#FFB27D"/>
<path d="M221.155 194.661C221.155 194.661 209.451 195.38 205.398 201.028C199.692 208.98 188.367 242.877 194.849 247.4C202.149 252.493 228.081 248.743 228.081 248.743C228.081 248.743 228.945 244.71 227.745 242.758C226.546 240.806 207.036 237.649 206.136 236.746C205.236 235.847 217.398 219.193 217.399 216.492C217.4 213.79 221.155 194.661 221.155 194.661" fill="#F99746"/>
<path d="M237.52 244.782C237.52 244.782 239.345 247.136 239.943 247.419C240.542 247.698 240.929 247.629 240.929 247.629L239.699 245.414L237.52 244.782Z" fill="#FFB27D"/>
<path d="M237.098 242.356L242.406 244.935C242.406 244.935 242.181 245.303 241.527 245.276C240.873 245.245 239.224 244.641 239.224 244.641L237.098 242.356" fill="#FFB27D"/>
<path d="M282.436 248.433L226.973 248.414L226.973 249.638L281.942 249.657L282.436 248.433" fill="#233862"/>
<path d="M239.943 249.642L281.943 249.657L294.59 218.24L252.654 218.225L239.943 249.642Z" fill="#233862"/>
<path d="M271.346 233.941C271.664 232.839 271.025 231.944 269.919 231.944C268.817 231.94 267.665 232.835 267.347 233.941C267.03 235.043 267.669 235.939 268.771 235.943C269.877 235.943 271.028 235.047 271.346 233.941Z" fill="white"/>
<path d="M555.596 368.123C549.94 366.244 546.022 368.613 546.022 368.613C529.732 369.283 529.127 385.982 531.041 392.197C533.727 400.926 524.221 407.806 534.76 411.338C546.99 415.436 557.253 410.576 556.553 412.685C595.229 415.735 568.465 372.394 555.596 368.123" fill="#163560"/>
<path d="M538.7 449.341C538.7 449.341 537.15 452.406 534.345 455.926C530.958 460.166 513.199 450.106 514.726 449.341C516.256 448.575 525.184 422.86 527.308 419.63C529.435 416.397 536.675 414.721 536.675 414.721L538.7 449.341Z" fill="#F99746"/>
<path d="M598.64 622.765C598.64 622.765 603.542 627.242 602.585 630.418C601.629 633.598 597.205 635.718 596.608 639.602C596.007 643.486 593.616 645.606 591.465 645.606C589.311 645.606 581.202 645.606 581.202 645.606C581.202 645.606 579.618 642.874 583.444 642.048C587.271 641.225 588.714 636.66 588.476 632.42C588.235 628.184 588.832 622.532 588.832 622.532L596.964 620.649L598.64 622.765" fill="#1F447F"/>
<path d="M557.146 624.667C557.146 624.667 558.91 643.62 556.759 644.68L529.215 644.623C529.215 644.623 529.215 641.443 533.638 640.739C538.062 640.031 545.834 637.44 547.15 631.67C548.467 625.903 557.146 624.667 557.146 624.667Z" fill="#1C3154"/>
<path d="M578.332 436.556C578.332 436.556 578.745 442.341 578.332 449.287C578.06 453.89 573.403 460.055 572.745 461.578C571.084 465.405 569.217 466.029 569.217 466.029L554.756 469.572L549.67 470.816L533.633 466.029C533.633 466.029 526.331 445.64 529.262 434.164C532.194 422.688 536.675 414.721 536.675 414.721C536.675 414.721 547.573 412.272 566.798 413.634L578.332 436.556Z" fill="#F99746"/>
<path d="M579.71 449.448C579.438 454.051 573.404 460.055 572.745 461.578C571.085 465.405 569.217 466.029 569.217 466.029L554.756 469.572L552.143 462.087C552.143 462.087 573.273 456.538 569.875 436.98L579.71 449.448Z" fill="#ED7D2B"/>
<path d="M534.655 469.12C534.655 469.12 526.714 493.841 526.202 502.256C525.693 510.67 541.382 621.808 542.013 625.685C542.61 629.343 547.149 631.67 547.149 631.67C547.149 631.67 549.234 632.902 552.215 632.06C556.348 630.893 557.657 629.496 557.657 629.496C557.657 629.496 563.837 550.234 560.01 521.921C556.187 493.607 556.141 469.12 556.141 469.12H534.655" fill="#233862"/>
<path d="M568.3 468.386C568.3 468.386 580.415 484.638 581.544 495.624C582.673 506.614 583.316 545.206 585.723 555.917C588.126 566.628 596.966 587.238 596.966 620.649C596.966 620.649 596.047 622.562 593.212 623.58C592.305 623.909 591.088 624.223 589.909 624.495C587.567 625.03 585.168 623.89 584.1 621.739C578.123 609.705 559.085 570.898 558.11 562.843C557.421 557.142 551.409 519.411 538.299 497.27C535.15 491.954 540.231 470.816 540.231 470.816L568.3 468.386Z" fill="#2A4E96"/>
<path d="M533.386 465.305C533.386 465.305 536.574 467.827 542.907 467.957C550.472 468.106 569.219 466.029 569.219 466.029C569.219 466.029 570.05 468.355 570.019 470.812C570.019 470.812 547.124 476.586 533.857 471.654C533.857 471.654 532.147 468.436 533.386 465.305" fill="#233862"/>
<path d="M541.092 467.804C539.822 467.804 538.785 469.044 538.785 470.567C538.785 472.09 539.822 473.33 541.092 473.33C542.367 473.33 543.4 472.09 543.4 470.567C543.4 469.044 542.367 467.804 541.092 467.804ZM541.092 474.474C539.19 474.474 537.641 472.721 537.641 470.567C537.641 468.413 539.19 466.66 541.092 466.66C542.998 466.66 544.544 468.413 544.544 470.567C544.544 472.721 542.998 474.474 541.092 474.474Z" fill="white"/>
<path d="M557.63 481.58L523.22 481.902L506.291 442.112L540.7 441.79L557.63 481.58Z" fill="#B5453C"/>
<path d="M553.131 463.599L550.61 460.499C550.61 460.499 548.903 458.976 547.663 458.72C546.427 458.459 543.81 456.952 543.557 457.376C543.304 457.801 545.566 460.832 545.566 460.832L545.681 460.851C543.082 462.803 536.524 461.081 535.716 461.877C534.733 462.841 537.067 464.93 538.318 466.105C539.57 467.276 543.148 469.231 545.937 468.363C547.973 467.728 551.184 467.081 551.184 467.081L553.131 463.599" fill="#FFB27D"/>
<path d="M508.879 449.111C508.879 449.111 511.041 446.654 512.419 447.833C513.793 449.011 512.059 454.813 510.747 454.223C509.438 453.634 508.125 449.83 508.879 449.111Z" fill="#FFB27D"/>
<path d="M566.799 413.634C566.799 413.634 576.649 414.721 583.72 427.563C589.292 437.692 598.824 456.362 595.227 461.639C593.647 463.954 578.516 472.193 549.33 467.483C549.33 467.483 549.789 463.798 552.143 462.087C552.143 462.087 576.706 454.204 576.664 452.635C576.584 449.666 573.346 447.102 559.624 433.379C555.893 429.645 566.799 413.634 566.799 413.634Z" fill="#F99746"/>
<path d="M559.218 414.154C559.559 413.699 559.122 412.252 558.579 409.559C558.089 407.117 557.259 403.34 557.278 399.093L556.551 399.215L544.344 401.27C544.344 401.27 544.619 404.534 544.627 407.607L544.631 407.683C544.642 410.354 543.908 414.392 544.811 414.92C549.433 417.629 557.917 415.903 559.218 414.154Z" fill="#FFB27D"/>
<path d="M544.344 401.27C544.344 401.27 544.585 405.873 544.592 408.946C551.427 408.782 555.07 402.15 556.551 399.215L544.344 401.27Z" fill="#E8945B"/>
<path d="M543.606 406.757C543.606 406.757 559.609 404.48 558.036 394.535C556.464 384.589 557.47 377.598 547.188 378.631C536.902 379.668 535.52 383.774 535.237 387.222C534.958 390.67 539.404 407.094 543.606 406.757Z" fill="#FFB27D"/>
<path d="M539.879 379.546C539.879 379.546 546.105 390.517 553.089 391.171C560.068 391.829 562.693 389.568 562.693 389.568C562.693 389.568 556.896 386.3 554.692 379.335C554.692 379.335 542.29 373.469 539.879 379.546" fill="#163560"/>
<path d="M541.112 380.323C541.112 380.323 538.066 382.048 537.109 384.624C536.171 387.146 535.548 390.383 536.405 394.099C536.405 394.099 531.847 386.694 534.832 381.62C538 376.236 541.112 380.323 541.112 380.323Z" fill="#163560"/>
<path d="M893.715 647.038H6.56209C5.95212 647.038 5.45312 646.536 5.45312 645.928V645.289C5.45312 644.677 5.95212 644.179 6.56209 644.179H893.715C894.327 644.179 894.824 644.677 894.824 645.289V645.928C894.824 646.536 894.327 647.038 893.715 647.038Z" fill="#233862"/>
</svg>
