<svg width="180" height="180" viewBox="0 0 180 180" fill="none" xmlns="http://www.w3.org/2000/svg">
<path d="M126.078 180C110.912 180 95.7598 179.482 80.5983 178.961C65.4383 178.443 50.267 177.925 35.0695 177.925C34.18 177.925 33.2929 177.926 32.4033 177.93C26.2747 177.957 20.0488 178.367 13.9253 178.645C11.6977 178.746 9.07008 179.045 6.53572 179.045C4.83779 179.045 3.18182 178.91 1.71557 178.494C-0.593384 177.839 -0.421285 175.556 1.33637 174.372C4.54466 172.211 9.37859 171.965 13.0293 171.721C22.5776 171.08 32.1227 170.374 41.6632 169.6C60.7444 168.055 79.8084 166.245 98.8491 164.172C101.915 163.838 104.979 163.475 108.042 163.113C118.169 161.917 128.297 161.168 138.444 160.437C142.463 160.148 146.497 159.934 150.527 159.934C153.722 159.934 156.915 160.068 160.097 160.405C166.288 161.061 173.762 162.377 178.541 167.29C181.224 170.045 180.082 173.526 176.14 175.872C171.974 178.352 166.687 178.424 162.081 178.77C150.066 179.675 138.068 180 126.078 180ZM95.8281 171.185C94.7055 171.185 93.5829 171.201 92.4612 171.237C91.7899 171.259 84.4554 171.454 85.1452 172.741C85.7262 173.827 89.3674 174.101 90.6129 174.101C90.6632 174.101 90.7094 174.101 90.7515 174.099C92.5329 174.063 94.3251 174.01 96.0773 173.713C96.9768 173.56 97.8639 173.344 98.7089 173.034C98.915 172.958 99.2801 172.828 99.6163 172.663C99.9804 172.485 100.311 172.268 100.369 172.041C100.432 171.791 100.231 171.539 99.985 171.399C99.6265 171.197 99.0305 171.148 98.4246 171.148C98.1447 171.148 97.8628 171.159 97.6012 171.168C97.3394 171.18 97.0978 171.189 96.8992 171.189C96.8841 171.189 96.8695 171.189 96.8549 171.189C96.5128 171.185 96.1703 171.185 95.8281 171.185Z" fill="#EBEBEB"/>
<path d="M129.715 64.0202L130.194 60.1579L131.805 60.3213L132.045 63.0501L132.836 62.7627L132.036 66.0105L130.343 66.0735L129.715 64.0202Z" fill="#EBCEB1"/>
<path d="M139.563 88.1079C141.992 88.3302 144.777 88.2144 146.388 86.3385C147.698 84.8131 147.809 82.5405 147.376 80.5581C147.326 80.3288 147.256 80.0804 147.066 79.9487C146.891 79.8274 146.662 79.8394 146.451 79.856C144.288 80.0269 142.126 80.1979 139.963 80.3685C138.75 80.4645 136.322 81.1565 135.661 80.1862C134.917 79.0936 134.911 76.3887 134.656 75.0954C133.993 71.7334 133.329 68.3718 132.666 65.0101L129.314 65.3126C129.347 68.408 129.38 71.5035 129.412 74.5987C129.436 76.8119 129.459 79.0251 129.482 81.2384C129.544 87.1276 134.855 87.6773 139.563 88.1079Z" fill="#D1D9DB"/>
<path d="M153.707 81.4443C155.689 82.9885 156.534 85.7577 157.025 88.322C159.047 98.8769 158.016 109.765 156.951 120.465C156.832 121.663 156.55 122.181 155.424 121.666C148.351 118.438 141.394 114.269 133.666 113.762C135.603 107.045 135.809 99.9426 137.122 93.0689C137.503 91.0742 137.982 89.0837 138.816 87.2393C139.902 84.8348 141.639 82.2351 143.562 80.4429C145.372 78.7551 148.25 79.5034 150.423 80.0668C151.323 80.3005 152.236 80.5387 153.047 81.002C153.28 81.135 153.5 81.2829 153.707 81.4443Z" fill="#D1D9DB"/>
<path d="M59.5139 86.2701L61.4819 86.8388L63.0569 85.9267L63.4151 86.1639L63.1401 86.6233L64.659 86.2421L65.7971 86.796L66.0733 88.4736L65.241 90.0267L63.5594 90.141L61.7692 89.2491L59.041 88.5886L59.5139 86.2701Z" fill="#EBCEB1"/>
<path d="M60.4041 85.2161L40.6821 80.2658C40.0019 80.0952 39.1876 79.3265 38.5979 78.9562C37.1964 78.0753 35.7948 77.1947 34.393 76.3138C33.4346 75.7116 31.7528 74.1683 30.5901 74.1687C28.6958 74.1697 27.6937 77.0647 27.68 78.6183C27.6377 83.3871 31.9876 85.431 35.2304 87.9881L38.358 89.6458L60.2558 90.0933L60.4041 85.2161Z" fill="#D1D9DB"/>
<path d="M36.5366 60.6727C34.0224 61.5318 31.3403 59.6524 28.9149 60.8938C27.338 61.7013 26.2654 63.734 26.0074 65.7865C25.8871 66.7431 25.9261 67.7434 26.263 68.5802C26.4816 69.1232 26.8171 69.5782 27.1935 69.9626C27.6969 70.4766 28.2824 70.8616 28.9103 71.1127C28.6675 71.8006 28.3738 72.4656 28.0341 73.0973C29.2718 73.3359 30.5099 73.5743 31.7478 73.8129C31.9079 72.949 32.0683 72.0853 32.2285 71.2215C32.5782 71.1101 32.9219 70.9625 33.253 70.7705C35.2548 69.6081 36.713 67.014 36.8619 64.3494C36.932 63.1011 36.7376 61.8773 36.5366 60.6727Z" fill="#EBCEB1"/>
<path d="M23.8124 66.1736C23.706 65.988 23.604 65.8 23.5122 65.6059C22.3979 63.2502 21.7999 60.4846 23.4483 58.2145C25.1271 55.9025 28.5658 54.8911 31.1938 55.5765C32.6419 55.9542 34.1726 56.4622 35.5925 55.9846C36.017 55.8418 36.4288 55.5987 36.6698 55.2131C36.893 54.8555 36.9505 54.4085 37.181 54.056C37.7206 53.2309 39.1928 53.4262 39.5094 54.3646C39.6021 54.6397 39.6082 54.9465 39.7484 55.1999C40.0586 55.7612 40.8162 55.7854 41.4406 55.8696C41.641 55.8965 41.8568 55.9468 41.9843 56.1074C42.2165 56.3999 41.9954 56.8617 41.6756 57.049C41.2346 57.3077 40.465 57.2354 40.1859 57.7421C39.9842 58.1087 40.293 58.8114 40.2413 59.2344C40.0599 60.7156 38.8116 62.0611 37.4932 62.5655C36.23 63.0487 35.0989 62.5241 33.837 62.1932C33.4799 62.0995 33.0991 61.8708 32.7489 61.8212C32.3074 61.7586 31.8727 61.9798 31.4511 62.0757C30.9248 62.1958 30.3776 62.1281 29.8402 62.0829C29.3028 62.0377 28.7433 62.0189 28.2441 62.2274C27.7448 62.4363 27.3216 62.9307 27.3519 63.4822C27.3884 64.1496 28.045 64.6692 28.0328 65.3378C28.0219 65.9173 27.5187 66.35 27.3035 66.8861C27.1368 67.3014 27.1322 67.8039 26.8281 68.1272C26.6935 68.271 26.5108 68.3635 26.3881 68.5183C26.2279 68.7207 26.1788 69.018 25.9649 69.1595C25.7282 69.3159 25.3957 69.1924 25.2134 68.9724C25.0311 68.7523 24.9564 68.4627 24.8663 68.1893C24.6235 67.4541 24.1898 66.8311 23.8124 66.1736Z" fill="#333333"/>
<path d="M28.5572 72.8141C27.9975 72.7556 27.3958 72.7051 26.9057 72.9808C26.4644 73.2288 26.1995 73.6942 25.961 74.1398C19.6828 85.8709 16.9629 99.4655 18.2457 112.701C25.7241 111.321 33.3453 110.712 40.9486 110.884C40.2557 105.739 39.5627 100.595 38.87 95.4503C38.3588 91.6554 37.8466 87.8547 36.9973 84.1208C36.2529 80.8486 35.2503 77.6345 34.0017 74.5176C33.2125 72.549 30.3393 73.0005 28.5572 72.8141Z" fill="#D1D9DB"/>
<path d="M44.826 171.049L46.2863 172.447C47.227 173.346 47.0116 174.979 45.8321 175.505C45.1371 175.817 44.1578 175.768 42.8034 174.82L39.6934 171.197L40.1984 170.026L44.6897 169.33L44.826 171.049Z" fill="#1A1A1A"/>
<path d="M41.7739 109.661L49.005 139.919L46.875 169.522L39.7393 170.154L38.0928 143.452C38.0928 143.452 22.4403 114.195 23.3358 113.561C24.2316 112.928 41.7739 109.661 41.7739 109.661Z" fill="#3C6794"/>
<path d="M22.6967 171.049L24.1598 172.442C25.1022 173.34 24.8899 174.973 23.7113 175.503C23.0169 175.815 22.0376 175.768 20.6815 174.822L17.5645 171.206V169.522L18.7427 168.458L22.1749 169.109L22.6967 171.049Z" fill="#1A1A1A"/>
<path d="M36.8303 111.576L34.5871 142.642L24.0617 169.99L16.6602 168.471L23.143 142.553C23.143 142.553 17.0743 109.776 18.1172 109.456C19.16 109.137 36.8303 111.576 36.8303 111.576Z" fill="#3C6794"/>
<path d="M17.5645 110.375L20.3671 103.43L30.1289 100.114L28.2672 87.4512L38.0069 85.8374L39.6935 103.654L42.0807 110.947L18.5445 115.351L17.5645 110.375Z" fill="#3C6794"/>
<path d="M28.7922 81.9269C28.8081 79.9688 28.709 77.7395 27.2491 76.4752C26.9208 76.1906 26.5163 75.9677 26.086 75.9704C25.2074 75.9753 24.6109 76.8552 24.1725 77.6351C24.0283 76.4716 23.9451 75.186 24.6107 74.2317C25.4579 73.0173 27.2986 72.8688 28.5428 73.646C29.7872 74.423 30.4869 75.8889 30.7513 77.3566C31.0156 78.8246 30.9096 80.3315 30.9081 81.8238C30.9061 84.0001 31.1289 86.1692 31.3515 88.3336C30.501 88.2749 29.6708 88.4532 28.8415 88.4902C28.3353 86.5779 28.7757 83.9415 28.7922 81.9269Z" fill="#3C6794"/>
<path d="M35.375 79.8999C35.1633 78.0139 34.7179 75.9325 33.1883 74.86C32.8091 74.594 32.3193 74.3023 32.3426 73.8321C32.3561 73.5572 32.5598 73.3262 32.7921 73.1877C33.5685 72.7246 34.6169 73.1215 35.1862 73.8333C35.7557 74.5452 35.9599 75.484 36.1298 76.3874C36.8058 79.983 37.2138 83.6314 37.3493 87.2904C37.3698 87.8398 36.0613 87.5333 35.8415 87.2854C35.4814 86.8794 35.6822 85.9255 35.68 85.4374C35.6717 83.5861 35.5815 81.7398 35.375 79.8999Z" fill="#3C6794"/>
<path d="M149.145 164.401L148.85 166.425L149.52 170.274L151.728 170.06L152.144 164.359L151.818 163.445L149.145 164.401Z" fill="#514943"/>
<path d="M138.763 169.967L135.305 172.563L135.736 174.504L142.068 172.958L141.553 170.154L138.763 169.967Z" fill="#514943"/>
<path d="M131.947 118.937L132.06 145.568L137.856 170.563H142.575L142.28 141.57L145.119 119.657L143.039 115.322L132.554 116.541L131.947 118.937Z" fill="#3C6794"/>
<path d="M143.908 138.535L148.849 163.959L153.146 163.445L154.323 143.591L156.531 121.875L154.305 115.523H142.307L143.908 138.535Z" fill="#3C6794"/>
<path d="M155.341 72.3894C154.893 68.0465 149.501 65.3821 147.2 69.8088C146.508 71.139 145.956 72.5903 145.925 74.0993C145.894 75.6087 146.455 77.1867 147.63 78.0665L147.65 78.0803C147.521 78.4456 147.392 78.811 147.263 79.1761C147.236 79.2544 147.208 79.3416 147.238 79.419C147.271 79.5072 147.365 79.5492 147.451 79.5825C147.868 79.7442 148.285 79.9062 148.703 80.068C148.909 80.1482 149.125 80.2297 149.345 80.2064C149.827 80.1552 150.131 79.6339 150.253 79.1462C150.282 79.0295 150.306 78.9103 150.329 78.7907C153.069 78.4413 155.633 75.2284 155.341 72.3894Z" fill="#EACDB0"/>
<path d="M133.018 25.16C133.452 23.8542 134.838 23.1563 136.114 23.6011C137.389 24.046 138.07 25.4654 137.636 26.7712C137.201 28.0772 135.816 28.7753 134.54 28.3303C133.265 27.8855 132.584 26.4662 133.018 25.16ZM128.785 23.6834C127.554 27.3834 129.485 31.4049 133.098 32.6653C136.711 33.9259 140.638 31.9482 141.869 28.2482C143.1 24.548 141.168 20.5265 137.556 19.2661C133.943 18.0055 130.016 19.9831 128.785 23.6834Z" fill="#D1B337"/>
<path d="M119.913 19.0169C123.198 11.3523 131.429 7.20634 139.362 9.22105L135.527 20.7482C133.81 20.6778 132.162 21.508 131.168 22.9438L119.913 19.0169ZM118.976 21.8323L130.231 25.7594C130.163 27.5181 130.973 29.2059 132.376 30.2241L128.541 41.7511C121.057 38.3868 117.009 29.9566 118.976 21.8323ZM134.539 28.3303C133.264 27.8855 132.583 26.4662 133.017 25.16C133.452 23.8542 134.837 23.1562 136.113 23.601C137.388 24.046 138.069 25.4653 137.635 26.7712C137.201 28.0771 135.815 28.7753 134.539 28.3303ZM135.125 31.1831C136.842 31.2533 138.49 30.4235 139.484 28.9876L150.74 32.9146C147.455 40.579 139.223 44.725 131.29 42.7103L135.125 31.1831ZM151.676 30.0991L140.421 26.172C140.489 24.4132 139.679 22.7254 138.277 21.7072L142.111 10.1803C149.595 13.5445 153.643 21.9747 151.676 30.0991ZM113.842 22.2862C113.599 23.7613 113.506 25.2368 113.552 26.694L109.973 27.9559L111.142 34.0093L114.926 33.7804C115.431 35.1617 116.069 36.489 116.828 37.7423L114.341 40.6719L118.309 45.3157L121.47 43.1823C122.569 44.1097 123.767 44.935 125.056 45.6386L124.332 49.4472L130.036 51.4374L131.733 47.9683C133.174 48.2167 134.614 48.3125 136.037 48.2646L137.269 51.931L143.18 50.7338L142.957 46.8585C144.305 46.3409 145.602 45.688 146.825 44.91L149.686 47.4573L154.22 43.3936L152.137 40.1558C153.043 39.031 153.848 37.8039 154.535 36.4841L158.255 37.2248L160.197 31.3837L156.81 29.645C157.053 28.17 157.146 26.6947 157.1 25.2374L160.68 23.9756L159.51 17.9219L155.726 18.1508C155.221 16.7699 154.584 15.4421 153.824 14.1891L156.311 11.2596L152.343 6.61568L149.182 8.74883C148.083 7.8214 146.885 6.99634 145.597 6.29292L146.32 2.48409L140.616 0.493774L138.919 3.96282C137.479 3.71441 136.038 3.61868 134.615 3.66654L133.383 -1.14441e-05L127.472 1.19757L127.696 5.07281C126.347 5.59045 125.05 6.24335 123.827 7.02132L120.966 4.47401L116.432 8.53769L118.515 11.7753C117.609 12.9003 116.804 14.1274 116.117 15.4472L112.398 14.7065L110.455 20.5475L113.842 22.2862Z" fill="#EFD154"/>
<path d="M117.499 19.7455C114.15 29.8132 119.423 40.7945 129.253 44.2244C139.084 47.6543 149.807 42.2538 153.156 32.1861C156.505 22.118 151.231 11.1367 141.401 7.70678C131.57 4.27691 120.848 9.67742 117.499 19.7455ZM116.714 19.4718C120.211 8.96058 131.405 3.32262 141.668 6.90347C151.931 10.4843 157.437 21.9488 153.94 32.4596C150.443 42.9706 139.25 48.6088 128.986 45.0277C118.723 41.4469 113.218 29.9827 116.714 19.4718Z" fill="#C1B23F"/>
<path d="M118.636 23.6758C117.644 31.2009 121.622 38.6409 128.541 41.7511L129.895 37.68C130.691 38.3889 131.491 39.0621 132.291 39.7012L131.29 42.7103C133.209 43.1976 135.145 43.3212 137.025 43.1252C139.236 44.5714 141.359 45.7614 143.275 46.7268C143.168 46.7698 143.064 46.8173 142.957 46.8585L143.18 50.7338L137.269 51.931L136.037 48.2646C134.614 48.3125 133.174 48.2167 131.733 47.9683L130.036 51.4374L124.332 49.4472L125.056 45.6386C123.767 44.935 122.569 44.1097 121.47 43.1823L118.309 45.3157L114.341 40.6719L116.828 37.7423C116.069 36.489 115.431 35.1617 114.926 33.7804L111.142 34.0093L109.973 27.9559L113.553 26.694C113.506 25.2368 113.599 23.7613 113.842 22.2862L110.455 20.5475L112.398 14.7065L114.925 15.21C115.952 18.2737 117.211 21.0897 118.636 23.6758Z" fill="#D1B337"/>
<path d="M117.175 20.8177C114.528 30.5813 119.769 40.916 129.252 44.2244C132.72 45.4343 136.299 45.544 139.626 44.7388C139.978 44.945 140.325 45.1445 140.669 45.3378C136.958 46.417 132.904 46.3952 128.985 45.0277C118.785 41.469 113.286 30.1239 116.651 19.6662C116.822 20.0543 116.996 20.4387 117.175 20.8177Z" fill="#ADA03B"/>
<path d="M144.848 5.82596C144.869 5.89842 145.564 2.78866 145.564 2.78866L140.996 1.22404C140.996 1.22404 143.995 2.85866 144.848 5.82596Z" fill="#FAEB7D"/>
<path d="M92.0035 73.1427L101.932 74.6729C102.03 75.2551 102.249 75.8204 102.592 76.3274L98.0794 85.666C97.5745 86.7107 96.235 86.9964 95.3801 86.2265C92.9324 84.0226 91.1199 81.0334 90.3555 77.5261C90.1728 76.6874 90.057 75.8495 90.0038 75.0182C89.9317 73.8842 90.9062 72.9736 92.0035 73.1427ZM101.043 87.3267L105.505 78.093C106.431 78.1908 107.386 77.9637 108.192 77.4033L115.952 83.911C116.806 84.6277 116.803 85.9687 115.945 86.6799C114.094 88.2133 111.878 89.3437 109.397 89.9109C106.938 90.4728 104.485 90.4204 102.191 89.8532C101.106 89.5849 100.548 88.3508 101.043 87.3267ZM109.949 74.4079C109.994 73.9727 109.972 73.5311 109.883 73.1007L118.26 67.3746C119.187 66.7406 120.461 67.1455 120.852 68.215C121.111 68.9209 121.324 69.6534 121.489 70.4102C122.245 73.8781 121.863 77.3343 120.597 80.3703C120.138 81.4691 118.787 81.8206 117.884 81.0635L109.949 74.4079ZM106.105 71.4812C107.446 71.5842 108.452 72.7814 108.351 74.1549C108.25 75.5286 107.081 76.5584 105.74 76.4553C104.399 76.352 103.393 75.155 103.494 73.7813C103.595 72.4079 104.764 71.3777 106.105 71.4812ZM116.303 64.5556L107.861 70.3266C107.515 70.1332 107.146 69.9951 106.768 69.9128L104.566 59.809C104.32 58.6769 105.177 57.6077 106.309 57.635C110.125 57.7267 113.723 59.2268 116.498 61.7405C117.351 62.5133 117.251 63.908 116.303 64.5556ZM103.474 70.6654C103.374 70.7432 103.276 70.8257 103.182 70.914C103.048 71.04 102.926 71.1738 102.812 71.3129L90.5981 69.4302C91.8225 65.1077 94.7655 61.4084 98.7949 59.3515C99.8072 58.8348 101.026 59.4312 101.272 60.562L103.474 70.6654ZM77.9517 76.5111L75.3691 77.8376C75.4918 78.8382 75.6605 79.8383 75.8777 80.8351C76.095 81.832 76.3575 82.8107 76.6619 83.7697L79.5502 83.8457C82.8353 83.932 84.7481 87.6826 82.9407 90.4934L81.3445 92.9756C82.5342 94.5874 83.8782 96.0826 85.3642 97.4417L87.9056 96.0269C90.7929 94.4194 94.2805 96.688 94.0875 100.048L93.9177 103.005C95.7507 103.805 97.6434 104.415 99.5737 104.832L101.089 102.297C102.805 99.4267 106.932 99.6055 108.405 102.614L109.701 105.259C110.678 105.133 111.654 104.961 112.628 104.738C113.601 104.516 114.557 104.247 115.493 103.935L115.567 100.977C115.651 97.6126 119.314 95.6535 122.058 97.5045L124.482 99.1393C126.056 97.9209 127.516 96.5444 128.843 95.0227L127.461 92.4198C125.892 89.4629 128.107 85.8909 131.387 86.0886L134.275 86.2627C135.056 84.3855 135.652 82.447 136.059 80.4702L133.584 78.9186C130.781 77.1614 130.955 72.9339 133.893 71.425L136.476 70.0988C136.353 69.0982 136.184 68.0979 135.967 67.1012C135.75 66.1046 135.487 65.1259 135.183 64.1667L132.295 64.0908C129.01 64.0043 127.096 60.254 128.904 57.4429L130.5 54.9607C129.311 53.349 127.966 51.8538 126.481 50.4946L123.939 51.9096C121.052 53.517 117.564 51.2486 117.757 47.8887L117.927 44.9314C116.094 44.1319 114.202 43.5216 112.271 43.1042L110.756 45.639C109.04 48.5096 104.913 48.331 103.439 45.3225L102.144 42.6774C101.167 42.803 100.191 42.9757 99.2172 43.1982C98.244 43.4207 97.2884 43.6896 96.352 44.0012L96.2777 46.9592C96.1933 50.3238 92.5313 52.2829 89.7867 50.4318L87.363 48.797C85.7892 50.0154 84.3293 51.392 83.0022 52.9138L84.3838 55.5166C85.9533 58.4737 83.7381 62.0452 80.4576 61.8477L77.5701 61.6735C76.7892 63.5508 76.1934 65.4893 75.7859 67.4664L78.261 69.0179C81.0639 70.775 80.8896 75.0027 77.9517 76.5111Z" fill="#659993"/>
<path d="M105.937 94.828C105.427 94.828 104.913 94.8083 104.397 94.7686C99.6159 94.4008 95.3399 92.3613 92.0749 89.2529C92.5912 89.3147 93.041 89.4018 93.5461 89.6086C93.8797 89.7452 94.8407 89.7529 94.915 89.8562H94.9152L93.0567 84.2847C95.7945 87.8627 99.9335 90.2968 104.698 90.6633C105.112 90.6953 105.525 90.7108 105.934 90.711C114.397 90.7115 121.58 84.0039 122.224 75.2223C122.899 66.0166 116.136 57.9645 107.147 57.2732C106.733 57.2412 106.319 57.2255 105.911 57.2255C97.4473 57.2255 90.2649 63.9326 89.6207 72.714C89.593 73.0933 89.5776 73.4708 89.5747 73.8458L87.0215 66.1908C90.0624 58.4536 97.4752 53.1085 105.908 53.1085C106.418 53.1085 106.931 53.128 107.448 53.1679C118.647 54.0293 127.074 64.0613 126.233 75.5307C125.824 81.0932 123.31 85.988 119.551 89.4561C119.499 89.4423 119.446 89.4351 119.394 89.4351C119.248 89.4351 119.104 89.4909 118.978 89.6225C118.919 89.685 118.86 89.747 118.801 89.8093L117.641 87.7764L113.022 90.49L114.411 92.9255C111.816 94.1496 108.942 94.828 105.937 94.828ZM90.2113 82.5428C89.9218 82.5428 89.8976 82.4073 89.6412 82.0304C89.111 81.2523 88.6749 80.4166 88.3324 79.5361C88.0091 78.7056 87.6548 77.7399 87.6163 76.8418C87.587 76.1575 88.0619 75.8296 88.6047 75.6143C88.8382 75.5438 89.0694 75.4662 89.2998 75.3828C89.4382 75.3324 89.542 75.2571 89.6153 75.1671C89.7951 77.7524 90.5569 80.1958 91.7745 82.3454C91.3326 82.4052 90.8907 82.4677 90.4483 82.5238C90.3526 82.5361 90.2756 82.5428 90.2113 82.5428Z" fill="#5A8883"/>
<path d="M92.6617 32.6052C88.3875 35.3097 82.7703 33.9713 80.1179 29.5718C77.4828 25.1797 78.8028 19.4364 83.088 16.7364C87.3608 14.0147 92.9787 15.3706 95.6219 19.7537C98.2811 24.1475 96.9446 29.9001 92.6617 32.6052ZM108.016 27.4848C108.124 26.6921 108.179 25.8996 108.193 25.1167L104.336 23.757L103.625 19.6799L106.781 17.0331C106.205 15.528 105.458 14.1055 104.566 12.7876L100.663 14.0147L97.7441 11.1475L98.7782 7.10025C97.5078 6.27291 96.1343 5.57876 94.6766 5.05243L92.2048 8.38525L88.2 7.79118L86.7375 3.8817C85.145 3.97422 83.5916 4.25365 82.1025 4.70809L82.0173 8.8902L78.4376 10.8257L75.0128 8.55344C73.8028 9.56657 72.7025 10.7237 71.743 12.0102L74.0688 15.4399L72.2909 19.159L68.2153 19.3857C68.0112 20.1835 67.8444 21.0061 67.7309 21.8516C67.6323 22.6243 67.5752 23.3886 67.5547 24.1486L71.411 25.5201L72.1089 29.5994L68.9367 32.236C69.5158 33.7426 70.2561 35.178 71.148 36.4993L75.0554 35.2849L77.9667 38.1606L76.9161 42.2059C78.2266 43.0617 79.6394 43.7798 81.1428 44.3185L83.6055 40.975L87.6125 41.5521L89.0827 45.4574C90.6751 45.3577 92.2276 45.0701 93.7163 44.6125L93.7897 40.4305L97.361 38.4794L100.791 40.742C102.003 39.7203 103.101 38.5609 104.055 37.2748L101.711 33.8536L103.476 30.1207L107.556 29.8881C107.75 29.103 107.91 28.3014 108.016 27.4848Z" fill="#8C314C"/>
<path d="M94.1983 35.149C88.5517 38.7234 81.135 36.9308 77.6454 31.1463C74.1453 25.3501 75.8976 17.7628 81.5446 14.1831C87.1961 10.609 94.6169 12.4088 98.1073 18.1953C101.599 23.9789 99.8499 31.5752 94.1983 35.149ZM99.2192 17.4924C95.3497 11.0771 87.1226 9.08185 80.8568 13.0441C74.5964 17.0126 72.6537 25.4247 76.5342 31.8504C80.4029 38.2635 88.6254 40.2508 94.8855 36.2883C101.151 32.3259 103.09 23.9043 99.2192 17.4924Z" fill="white"/>
<path d="M77.8524 38.0459L77.9686 38.1606L76.9913 42.1824L76.918 42.2059C78.2285 43.0616 79.6413 43.7798 81.1447 44.3184L81.1192 44.2454L83.6074 40.975L87.6144 41.552L89.1357 45.3941L89.0845 45.4573C90.677 45.3576 92.2295 45.0701 93.7182 44.6124L93.6573 44.5721L93.7916 40.4305L97.3628 38.4793L100.801 40.6719L100.793 40.7419C102.005 39.7203 103.103 38.5609 104.056 37.2748L103.984 37.2817L101.712 33.8536L103.478 30.1206L107.515 29.8287L107.558 29.8881C107.752 29.1029 107.912 28.3013 108.018 27.4848C108.126 26.6921 108.181 25.8995 108.195 25.1166L108.143 25.1675L107.064 24.7678C97.7968 34.4847 86.5136 37.4395 77.8524 38.0459Z" fill="#782441"/>
<path d="M94.8856 36.2884C97.0351 34.929 98.675 33.0446 99.7463 30.8971C98.9044 31.4522 98.0567 31.9674 97.2056 32.4449C96.3795 33.4849 95.3749 34.4051 94.1984 35.149C91.6283 36.7759 88.6922 37.2875 85.9258 36.8204C84.963 37.0502 84.0121 37.2453 83.0781 37.4091C86.8351 38.8899 91.2001 38.6213 94.8856 36.2884Z" fill="#BB899A"/>
<path d="M82.3027 8.02405L82.466 4.65206C82.466 4.65206 84.545 3.95128 86.044 3.9545C86.044 3.9545 83.5369 4.43506 82.3027 8.02405Z" fill="#A63F65"/>
<path d="M90.6131 174.101C89.3676 174.101 85.7263 173.827 85.1453 172.741C84.4555 171.454 91.79 171.259 92.4613 171.237C93.583 171.201 94.7057 171.186 95.8283 171.186C96.1704 171.186 96.5129 171.186 96.8551 171.189C96.8696 171.189 96.8842 171.189 96.8994 171.189C97.098 171.189 97.3396 171.18 97.6014 171.168C97.863 171.159 98.1449 171.148 98.4247 171.148C99.0307 171.148 99.6266 171.197 99.9852 171.399C100.232 171.539 100.432 171.791 100.369 172.041C100.311 172.268 99.9806 172.485 99.6165 172.663C99.2802 172.828 98.9152 172.958 98.709 173.034C97.8641 173.344 96.977 173.56 96.0775 173.713C94.3253 174.01 92.533 174.063 90.7516 174.099C90.7095 174.101 90.6633 174.101 90.6131 174.101Z" fill="#CACACA"/>
<path d="M94.2065 167.856C94.2065 171.203 91.5576 173.916 88.2897 173.916C85.0221 173.916 82.373 171.203 82.373 167.856C82.373 164.509 85.0221 161.796 88.2897 161.796C91.5576 161.796 94.2065 164.509 94.2065 167.856Z" fill="#435B6E"/>
<path d="M86.0107 171.464L84.0996 167.638L86.379 164.03L90.5701 164.248L92.4813 168.074L90.2017 171.681L86.0107 171.464Z" fill="#2E414C"/>
<path d="M90.4573 167.856C90.4573 169.081 89.487 170.075 88.29 170.075C87.0933 170.075 86.123 169.081 86.123 167.856C86.123 166.63 87.0933 165.636 88.29 165.636C89.487 165.636 90.4573 166.63 90.4573 167.856Z" fill="#22323A"/>
<path d="M97.3867 148.849L103.633 136.649L108.829 139.905L101.119 151.189L99.0648 150.859C98.8587 150.826 98.6745 150.709 98.5539 150.535L97.3867 148.849Z" fill="#2E414C"/>
<path d="M98.2627 147.004C99.9763 147.639 101.737 148.254 103.551 148.85C104.325 149.105 104.805 147.877 104.001 147.62C102.121 147.018 100.299 146.397 98.526 145.755C97.7931 145.489 97.5546 146.742 98.2627 147.004Z" fill="#435B6E"/>
<path d="M97.2416 149.022C98.8399 149.636 100.479 150.234 102.164 150.815C102.883 151.064 103.286 149.978 102.542 149.726C100.8 149.139 99.107 148.535 97.4573 147.912C96.7746 147.655 96.5806 148.768 97.2416 149.022Z" fill="#435B6E"/>
<path d="M100.531 142.485C102.511 143.105 104.559 143.696 106.686 144.258C107.598 144.499 108.382 142.777 107.425 142.537C105.197 141.977 103.056 141.387 100.989 140.764C100.138 140.508 99.7167 142.23 100.531 142.485Z" fill="#435B6E"/>
<path d="M99.4222 144.706C101.269 145.36 103.17 145.992 105.133 146.602C105.972 146.863 106.549 145.461 105.674 145.198C103.634 144.585 101.66 143.948 99.7449 143.286C98.9535 143.013 98.6599 144.436 99.4222 144.706Z" fill="#435B6E"/>
<path d="M101.076 151.145L100.795 151.137L101.167 150.467C101.267 150.502 101.366 150.537 101.466 150.571L101.076 151.145ZM102.133 149.587C101.999 149.542 101.866 149.496 101.732 149.45L102.299 148.432C102.466 148.489 102.633 148.545 102.801 148.601L102.133 149.587ZM103.563 147.478C103.355 147.411 103.148 147.344 102.942 147.276L103.589 146.112C103.835 146.191 104.081 146.27 104.329 146.348L103.563 147.478Z" fill="#4D5D67"/>
<path d="M102.798 148.601C102.63 148.545 102.462 148.489 102.295 148.432L102.938 147.276C103.144 147.344 103.351 147.411 103.559 147.478L102.798 148.601Z" fill="#5F7384"/>
<path d="M105.204 145.055C104.909 144.966 104.616 144.876 104.324 144.785L104.888 143.771C105.22 143.863 105.553 143.954 105.889 144.045L105.204 145.055ZM106.986 142.426C106.59 142.325 106.197 142.223 105.806 142.121L106.553 140.777L107.465 141.72L106.986 142.426Z" fill="#4D5D67"/>
<path d="M101.464 150.571C101.365 150.537 101.265 150.502 101.166 150.467L101.731 149.45C101.864 149.496 101.998 149.542 102.132 149.587L101.464 150.571Z" fill="#5F7384"/>
<path d="M105.891 144.045C105.555 143.954 105.222 143.863 104.891 143.771L105.808 142.121C106.199 142.223 106.592 142.325 106.989 142.426L105.891 144.045Z" fill="#5F7384"/>
<path d="M104.326 146.348C104.078 146.27 103.832 146.191 103.586 146.112L104.324 144.785C104.615 144.876 104.908 144.966 105.203 145.055L104.326 146.348Z" fill="#5F7384"/>
<path d="M113.174 138.415C113.252 136.329 111.67 134.075 109.661 132.816C107.651 131.556 104.972 131.139 103.194 132.16C100.499 133.708 100.576 137.932 104.961 140.68C109.345 143.429 113.054 141.578 113.174 138.415Z" fill="#5C7789"/>
<path d="M105.749 139.361C101.365 136.612 101.039 132.803 103.542 131.577C105.193 130.768 107.798 131.311 109.807 132.571C111.817 133.83 113.474 135.959 113.522 137.832C113.594 140.673 110.134 142.109 105.749 139.361Z" fill="#435B6E"/>
<path d="M106.521 132.089L109.653 133.153L111.848 135.624L111.212 138.194L106.606 137.365L104.309 133.535L106.521 132.089Z" fill="#2E414C"/>
<path d="M107.79 135.945C106.622 135.213 106.173 134.106 106.704 133.559C107.161 133.088 108.207 133.204 109.095 133.761C109.984 134.318 110.56 135.22 110.359 135.85C110.125 136.583 108.958 136.678 107.79 135.945Z" fill="#22323A"/>
<path d="M120.377 103.385L113.023 90.49L117.643 87.7764L124.996 100.671L123.876 102.963C123.689 103.346 123.296 103.576 122.879 103.549L120.377 103.385Z" fill="#2E414C"/>
<path d="M115.573 95.3267C117.096 93.854 118.59 92.3477 120.056 90.8075C120.671 90.161 119.593 88.9749 118.977 89.6225C117.511 91.1629 116.017 92.6693 114.494 94.1416C113.855 94.7593 114.935 95.9435 115.573 95.3267Z" fill="#435B6E"/>
<path d="M117.159 98.1536C118.682 96.6813 120.176 95.175 121.642 93.6346C122.257 92.9879 121.179 91.8021 120.563 92.4495C119.097 93.9901 117.603 95.4962 116.08 96.9687C115.441 97.5866 116.521 98.7706 117.159 98.1536Z" fill="#435B6E"/>
<path d="M118.743 100.981C120.266 99.5083 121.76 98.0019 123.226 96.4615C123.841 95.815 122.763 94.629 122.147 95.2768C120.681 96.817 119.187 98.3234 117.664 99.7957C117.025 100.414 118.105 101.598 118.743 100.981Z" fill="#435B6E"/>
<path d="M120.325 103.808C121.848 102.335 123.342 100.829 124.808 99.2888C125.423 98.6421 124.345 97.4561 123.729 98.1037C122.263 99.6441 120.769 101.15 119.246 102.623C118.607 103.24 119.687 104.425 120.325 103.808Z" fill="#435B6E"/>
<path d="M123.77 103.221L123.74 103.172C123.792 103.109 123.837 103.039 123.875 102.963L124.126 102.451L124.13 102.459L123.77 103.221Z" fill="white"/>
<path d="M123.741 103.172L122.702 101.46C122.922 101.237 123.142 101.014 123.361 100.79L124.126 102.451L123.875 102.963C123.838 103.039 123.793 103.109 123.741 103.172ZM121.845 100.049L121.036 98.7155C121.348 98.4007 121.659 98.0842 121.969 97.7664L122.644 99.2328C122.379 99.506 122.113 99.778 121.845 100.049ZM120.18 97.3053L119.37 95.9717C119.775 95.5645 120.177 95.1549 120.577 94.7429L121.252 96.2087C120.896 96.5763 120.539 96.9417 120.18 97.3053ZM118.514 94.5616L117.705 93.2276C118.201 92.7284 118.694 92.2253 119.185 91.7186L119.859 93.1841C119.414 93.6465 118.965 94.1057 118.514 94.5616ZM116.849 91.8178L116.117 90.6126L118.023 89.1944L118.467 90.1591C117.931 90.7165 117.392 91.2693 116.849 91.8178Z" fill="#3E505A"/>
<path d="M117.702 93.2276L116.846 91.8177C117.389 91.2693 117.928 90.7165 118.464 90.1591L119.181 91.7186C118.691 92.2253 118.198 92.7283 117.702 93.2276Z" fill="#526879"/>
<path d="M119.37 95.9717L118.514 94.5616C118.965 94.1057 119.413 93.6465 119.859 93.1841L120.576 94.7429C120.176 95.1549 119.774 95.5646 119.37 95.9717Z" fill="#526879"/>
<path d="M121.034 98.7155L120.178 97.3053C120.537 96.9417 120.894 96.5763 121.25 96.2087L121.967 97.7663C121.657 98.0842 121.346 98.4007 121.034 98.7155Z" fill="#526879"/>
<path d="M122.702 101.46L121.846 100.049C122.113 99.778 122.379 99.506 122.644 99.2328L123.361 100.79C123.142 101.014 122.922 101.237 122.702 101.46Z" fill="#526879"/>
<path d="M118.849 82.3818C117.048 81.5382 114.249 82.1616 112.109 83.5459C109.97 84.93 108.23 87.2427 108.223 89.2565C108.211 92.3101 111.98 93.8 116.649 90.7793C121.317 87.7588 121.58 83.6607 118.849 82.3818Z" fill="#5C7789"/>
<path d="M115.883 89.5656C111.215 92.5861 107.685 91.4781 107.883 88.7205C108.013 86.902 109.825 84.7049 111.964 83.3205C114.104 81.9362 116.831 81.1972 118.509 81.8458C121.054 82.8286 120.552 86.5449 115.883 89.5656Z" fill="#435B6E"/>
<path d="M110.107 86.5875L112.648 84.097L115.952 82.99L117.896 84.5259L114.809 88.4594L110.252 89.1586L110.107 86.5875Z" fill="#2E414C"/>
<path d="M114.16 86.8454C112.916 87.6502 111.709 87.6544 111.498 86.9633C111.316 86.369 111.953 85.4486 112.899 84.8366C113.845 84.2245 114.936 84.0268 115.39 84.4453C115.917 84.9317 115.404 86.0406 114.16 86.8454Z" fill="#22323A"/>
<path d="M89.1732 75.1319L91.559 82.3523C91.8309 83.1752 92.7029 83.6166 93.5063 83.3381L94.3932 83.0307C95.1968 82.7524 95.6278 81.8594 95.3558 81.0364L92.97 73.8161C92.6981 72.9933 91.8265 72.5519 91.0227 72.8302L90.1358 73.1376C89.3324 73.4161 88.9014 74.3091 89.1732 75.1319Z" fill="#2E414C"/>
<path d="M90.5208 79.9841C92.2156 79.9533 93.9102 79.9396 95.6051 79.9438C96.0848 79.9449 96.1323 80.7117 95.6479 80.7106C93.953 80.7066 92.2586 80.7201 90.5639 80.7509C90.0832 80.7598 90.0365 79.993 90.5208 79.9841Z" fill="#435B6E"/>
<path d="M89.7671 77.6977C91.4616 77.6669 93.1562 77.6533 94.8511 77.6572C95.3311 77.6584 95.3784 78.4252 94.894 78.4242C93.1992 78.4203 91.5047 78.4337 89.8101 78.4645C89.3293 78.4732 89.2825 77.7066 89.7671 77.6977Z" fill="#435B6E"/>
<path d="M89.3256 75.6202C91.0202 75.5894 92.7149 75.5759 94.4096 75.5797C94.8896 75.5808 94.9371 76.3478 94.4525 76.3467C92.7579 76.3429 91.0632 76.3564 89.3686 76.3872C88.8878 76.3959 88.8412 75.6289 89.3256 75.6202Z" fill="#435B6E"/>
<path d="M89.7437 73.6581C90.6901 73.5219 91.6387 73.3974 92.5901 73.2901C93.2916 73.211 94.3481 72.886 95.0412 73.2672C95.7033 73.6316 96.0423 74.6629 96.3472 75.3207C96.7695 76.232 97.1349 77.1699 97.4386 78.1255C97.7113 78.9835 97.93 79.8553 98.1083 80.7346C98.2481 81.4227 98.3575 82.1076 97.7976 82.5789C96.5824 83.6011 94.4199 83.4638 92.9153 83.4429C92.0193 83.4306 91.8807 81.9625 92.7834 81.975C94.0358 81.9924 95.2721 81.9937 96.456 81.6034C96.9003 81.457 96.8447 81.4428 96.7489 80.9467C96.6766 80.5738 96.5894 80.2028 96.4947 79.8341C96.3291 79.1878 96.1357 78.547 95.9148 77.9157C95.6938 77.2843 95.447 76.6615 95.1738 76.0502C95.026 75.7199 94.8718 75.3273 94.6811 75.0229C94.4149 74.5982 94.4088 74.6474 93.9919 74.6241C93.3773 74.59 92.6925 74.7594 92.0882 74.8318C91.3489 74.9208 90.6116 75.0201 89.8756 75.1262C88.9939 75.2534 88.8664 73.7846 89.7437 73.6581Z" fill="#AFBDC6"/>
<path d="M86.4382 74.5641C87.108 74.3702 87.7899 74.2783 88.4581 74.0766C88.5617 74.0406 88.6653 74.0064 88.7675 73.9746C89.6526 73.6993 90.1923 75.0593 89.3016 75.3828C89.0712 75.4662 88.8399 75.5438 88.6064 75.6143C88.0637 75.8296 87.5887 76.1575 87.6181 76.8418C87.6565 77.7399 88.0108 78.7056 88.3341 79.5361C88.6766 80.4166 89.1128 81.2523 89.643 82.0304C89.9563 82.4907 89.9226 82.5908 90.4501 82.5238C90.9196 82.4643 91.3885 82.3975 91.8575 82.3347C92.3353 82.2703 92.6098 82.6341 92.6395 83.0201C92.8049 83.3158 92.7954 83.6976 92.4426 83.94C91.397 84.6583 89.974 85.3651 88.8041 84.4065C88.2035 83.9144 87.9682 83.0362 87.6761 82.3432C87.3255 81.512 86.9748 80.6805 86.6244 79.8494C86.1291 78.6753 85.001 76.9754 85.3368 75.6416C85.4824 75.0632 85.8958 74.7214 86.4382 74.5641Z" fill="#2E414C"/>
<path d="M99.8624 79.1002C101.812 78.8906 103.708 78.5298 105.628 78.1265C106.912 77.8567 108.176 77.6262 109.424 77.2155C110.653 76.8108 111.872 76.3694 113.114 76.0068C114.042 75.7358 116.948 74.5946 117.543 75.8299C117.903 76.5768 117.163 77.4855 116.73 78.016C116.089 78.8021 115.416 79.6009 114.729 80.3357C112.669 82.5383 110.332 84.4675 107.792 86.0582C105.782 87.3165 103.616 88.3726 101.318 88.8751C101.053 88.933 100.787 88.9833 100.519 89.0261C100.407 89.0438 100.287 89.0594 100.183 89.0115C100.031 88.9407 99.9651 88.7601 99.9147 88.5972C99.0969 85.9572 98.4372 83.2659 97.9403 80.5436C97.8769 80.1962 97.8205 79.8173 97.9837 79.5059C98.2484 79.0005 99.386 79.1513 99.8624 79.1002Z" fill="#AFBDC6"/>
<path d="M86.744 74.7573C86.3575 74.8065 86.1305 75.2095 86.2648 75.6071L88.7301 82.902C88.84 83.2271 89.1566 83.435 89.4712 83.3883L92.6017 82.9229L94.9144 89.8562H94.9142C94.84 89.7529 93.879 89.7452 93.5453 89.6086C92.9507 89.3653 92.4329 89.2875 91.7926 89.222C87.712 88.8047 83.377 88.6762 79.8987 91.2661C74.3038 95.4313 68.8058 99.7483 63.3066 104.045C57.728 108.403 52.1941 112.823 46.7595 117.368C46.6506 117.459 46.542 117.55 46.4334 117.641C43.7457 119.893 41.0822 122.175 38.4117 124.448C37.0234 125.63 35.6331 126.81 34.2363 127.982C32.7354 129.242 31.8051 130.559 29.6865 129.882C27.7954 129.278 25.9067 127.904 24.6651 126.34C23.6455 125.056 22.9713 123.554 22.636 121.938C22.2735 120.193 21.6166 118.023 23.3675 116.882C24.1356 116.381 24.8947 115.883 25.6287 115.33C36.9287 107.466 48.4291 99.6341 59.565 91.4379C60.3542 90.8568 61.1439 90.2762 61.935 89.6975C64.8597 87.5585 69.7178 83.7228 72.5738 81.485C78.1384 77.125 78.7855 73.9053 81.9895 68.6114C83.2828 66.4739 84.4921 64.2836 85.6439 62.0628L89.7504 74.3745L86.744 74.7573Z" fill="#435B6E"/>
<path d="M95.4121 56.1458C99.6218 55.3312 109.977 60.6161 112.702 61.7807C115.427 62.9454 113.653 65.1427 113.653 65.1427C113.164 65.2182 112.677 65.2995 112.19 65.3818C110.872 65.6049 109.557 65.8439 108.246 66.1036C107.288 66.2932 106.331 66.4913 105.375 66.6941C104.897 66.7953 104.418 66.8939 103.942 67.0011C103.56 67.0868 103.211 67.2872 102.833 67.4068C102.413 67.54 101.992 67.6735 101.584 67.8431C100.807 68.1666 99.9634 68.6201 99.3334 69.1965C99.1123 69.399 98.7696 69.9255 98.8904 70.2698C98.9047 70.3105 105.524 89.1666 105.524 89.1666C105.603 89.3904 105.444 89.6273 105.212 89.6324L94.9142 89.8562C94.9157 89.8556 95.3897 89.4805 95.2732 88.152C95.1934 87.2429 95.0153 86.3435 94.8093 85.4567C94.5939 84.53 94.3318 83.617 94.0626 82.7057L96.6677 82.3186C97.4685 82.1996 97.9193 81.3431 97.6123 80.5239L95.2543 74.231C95.1389 73.9226 94.8365 73.7273 94.5337 73.7659L91.4963 74.1524C89.9999 69.5808 88.2812 65.0861 86.3477 60.6901C86.1157 61.149 85.8804 61.6063 85.6437 62.0628L85.459 61.5087C87.0968 59.4139 91.2022 56.9603 95.4121 56.1458Z" fill="#C1D0DB"/>
<path d="M94.0646 82.7057C94.3337 83.617 94.5959 84.5301 94.8113 85.4567C95.0172 86.3435 95.1953 87.2429 95.2751 88.152C95.3917 89.4805 94.9177 89.8556 94.9162 89.8562L92.6035 82.9229L94.0646 82.7057Z" fill="#C1D0DB"/>
<path d="M91.4971 74.1525L89.751 74.3746L85.6445 62.0629C85.8812 61.6063 86.1165 61.1491 86.3485 60.6901C88.282 65.0862 90.0007 69.5808 91.4971 74.1525Z" fill="#C1D0DB"/>
<path d="M64.2543 103.993C64.1536 104.072 64.0529 104.15 63.9523 104.229C58.0099 108.871 52.1156 113.579 46.3264 118.421C46.2106 118.518 46.0948 118.615 45.9791 118.712C43.1163 121.11 40.2792 123.541 37.4346 125.962C35.9558 127.221 34.4748 128.478 32.9872 129.726C31.3881 131.068 30.3974 132.471 28.1407 131.75C26.1265 131.106 24.1144 129.643 22.7919 127.978C21.7062 126.61 20.9878 125.01 20.6305 123.288C20.2446 121.43 19.5448 119.118 21.4097 117.903C22.2281 117.37 23.0367 116.839 23.8183 116.249C34.5459 108.784 45.9049 100.988 56.5459 93.2777L64.2543 103.993Z" fill="#E29530"/>
<path d="M26.6796 120.607C25.3436 121.616 25.0586 123.542 26.0429 124.91C27.0273 126.279 28.9085 126.571 30.2443 125.562C31.5804 124.554 31.8655 122.628 30.8812 121.26C29.8966 119.891 28.0156 119.599 26.6796 120.607Z" fill="white"/>
<path d="M64.563 99.7134C64.1516 99.7134 63.745 99.5204 63.481 99.1535L61.1332 95.8902C60.6933 95.2787 60.8199 94.419 61.4168 93.9685C65.235 91.0882 77.903 81.4844 78.6818 80.259C79.3707 79.1751 80.1035 78.1196 80.8283 77.0611C81.243 76.4557 82.6028 73.6902 83.2512 73.5016C83.3216 73.4812 83.3901 73.4713 83.457 73.4713C84.7734 73.4713 85.4115 77.2703 85.7209 78.1925C86.3658 80.1149 86.9862 82.0459 87.5962 83.9806C87.7866 84.5842 87.3667 85.2066 86.7482 85.2395C85.3805 85.3124 83.1535 85.6085 81.5001 86.702C79.3676 88.1128 68.8333 96.628 65.3941 99.4169C65.1473 99.6169 64.8539 99.7134 64.563 99.7134Z" fill="#526879"/>
<path d="M26.8433 120.793C25.574 121.751 25.3023 123.587 26.2374 124.887C27.1725 126.187 28.9661 126.465 30.2354 125.508C31.5045 124.55 31.7763 122.713 30.8412 121.413C29.9058 120.113 28.1125 119.835 26.8433 120.793ZM26.6431 120.515C28.0622 119.444 30.0673 119.755 31.1131 121.208C32.1585 122.662 31.8546 124.715 30.4357 125.786C29.0165 126.857 27.0111 126.546 25.9657 125.092C24.9201 123.639 25.2241 121.585 26.6431 120.515Z" fill="#435B6E"/>
<path d="M47.4886 105.484L49.1508 106.857L51.0292 106.642L51.278 107.021L50.8299 107.346L52.4413 107.618L53.3129 108.628L52.9061 110.356L51.4847 111.498L49.8236 110.901L48.4614 109.292L46.1055 107.512L47.4886 105.484Z" fill="#EBCEB1"/>
<path d="M49.256 105.115L34.219 89.7996C33.7001 89.2712 33.3762 88.134 33.0439 87.4773C32.2534 85.9155 31.4633 84.3539 30.673 82.7923C30.1325 81.7243 29.4405 79.4154 28.3999 78.7738C26.7048 77.7291 24.2847 79.7654 23.4545 81.1478C20.9069 85.3905 23.7226 89.6201 25.2773 93.6979L27.203 96.9074L46.5564 109.397L49.256 105.115Z" fill="#D1D9DB"/>
<path d="M21.1677 61.7817C21.2323 63.6802 21.9999 65.4906 23.0471 67.0273C23.5878 66.8922 24.0861 66.6135 24.5754 66.3327C26.7752 65.0706 28.9444 63.6967 30.7818 61.8916C32.6191 60.0863 34.1206 57.6344 34.8457 55.6148C33.2806 54.3807 30.8392 53.7705 28.8206 53.8946C25.1376 54.1211 21.0254 57.6181 21.1677 61.7817Z" fill="#3C6794"/>
<path d="M37.1968 50.8312C37.8855 50.5588 38.7307 50.356 39.3085 50.8263C39.9932 51.3835 39.8384 52.4831 39.5289 53.3202C38.4865 56.1402 36.3892 58.5357 33.765 59.903C32.6273 60.496 30.4786 60.992 29.9621 59.2694C29.6859 58.3488 30.3456 56.6107 30.7494 55.744C31.8532 53.3751 34.9351 51.7255 37.1968 50.8312Z" fill="#3C6794"/>
<path d="M152.547 95.1088L150.709 95.1186C150.774 94.1093 150.839 93.1001 150.903 92.091C151 90.5789 151.098 89.0614 151.393 87.5766C151.861 85.218 152.83 82.9651 154.213 81.019C153.516 80.2136 152.195 80.0829 151.361 80.7368C150.747 81.2177 150.442 81.9968 150.188 82.7448C149.248 85.5137 148.633 88.3972 148.353 91.3145C148.246 92.4332 147.983 93.9129 148.089 95.1324L141.831 95.1659C141.911 93.9182 141.991 92.6703 142.071 91.4226C142.168 89.9107 142.266 88.3932 142.561 86.9082C142.854 85.4304 143.344 83.9939 144.009 82.6487C144.635 81.3827 145.277 79.8027 146.465 79.0732C145.432 79.0289 144.392 79.1922 143.419 79.5517C142.279 79.973 141.737 80.9545 141.356 82.0762C140.416 84.8455 139.801 87.7289 139.521 90.6463C139.394 91.9718 139.045 93.8062 139.355 95.1118C139.361 95.1357 139.365 95.1568 139.37 95.179L137.766 95.1875L132.555 116.541H154.66L152.547 95.1088Z" fill="#3C6794"/>
<path d="M119.366 96.8422L115.873 95.3048L116.471 93.7646L119.098 94.2809L119.047 93.4225L121.874 95.1067L121.466 96.7911L119.366 96.8422Z" fill="#EBCEB1"/>
<path d="M153.981 86.0926C153.715 85.9443 153.409 85.8285 153.064 85.753C151.631 85.4397 150.113 85.8375 148.82 86.5499C146.773 87.6778 145.058 89.4725 143.149 90.8294C140.966 92.3815 138.782 93.9339 136.598 95.486L121.11 94.211L120.469 97.5936L138.874 102.787C141.675 100.582 144.404 98.4168 147.319 96.4074C149.932 94.6061 153.109 93.2159 154.768 90.3415C155.704 88.7184 155.442 86.9086 153.981 86.0926Z" fill="#D1D9DB"/>
<path d="M145.595 68.6902C145.08 67.8555 144.69 66.8683 144.113 66.1798C143.412 65.3451 142.216 64.9103 141.867 63.869C141.443 62.6005 142.202 61.1509 143.346 60.6304C144.035 60.3173 144.81 60.2585 145.563 60.3003C145.936 60.3209 146.315 60.3667 146.66 60.5135C147.31 60.7888 147.796 61.4324 147.893 62.1451C147.962 62.6552 147.849 63.1989 148.044 63.674C148.693 65.2566 150.534 65.474 151.931 65.8446C153.359 66.2232 154.684 66.2852 155.916 67.2461C157.825 68.7356 158.506 71.569 157.73 73.8947C156.953 76.2205 154.884 77.9735 152.563 78.5975C151.259 78.9479 152.351 77.9367 152.678 77.6126C153.331 76.9667 153.893 76.1694 154.191 75.2864C154.577 74.1414 154.459 72.7613 153.659 71.8687C152.953 71.0807 151.871 70.7973 150.849 70.5754C150.205 70.4355 149.498 70.2009 148.836 70.2098C148.374 70.2159 147.995 70.3364 147.523 70.2444C146.625 70.0696 146.059 69.4419 145.595 68.6902Z" fill="#534741"/>
<path d="M158.523 79.7981C158.962 80.245 159.538 80.6936 160.14 80.5447C160.548 80.4435 160.855 80.074 160.992 79.6672C161.13 79.2605 161.123 78.8183 161.092 78.389C160.897 75.7428 159.778 73.1779 157.983 71.2636C157.64 70.8979 157.204 70.5305 156.713 70.5911C156.027 70.6756 155.569 71.6227 155.288 72.1867C155.069 72.6272 155.907 73.2057 156.107 73.6698C156.349 74.2336 156.415 74.8823 156.255 75.4794C156.12 75.985 156.079 76.425 156.324 76.9205C156.848 77.9806 157.706 78.9674 158.523 79.7981Z" fill="#3C6794"/>
<path d="M151.64 67.5642C152.42 68.3471 153.179 69.1564 153.833 70.0521C155.098 71.7824 155.719 73.7436 156.674 75.6333C157.184 76.6428 157.808 75.9029 158.425 75.2515C159.051 74.5906 159.535 73.7875 159.818 72.9134C160.305 71.4143 160.196 69.7223 159.523 68.3011C158.971 67.1357 158.077 66.1831 157.197 65.2521C156.035 64.021 154.104 63.4489 152.433 63.4818C151.656 63.4971 149.559 63.8008 149.229 64.7125C148.93 65.541 151.116 67.038 151.64 67.5642Z" fill="#3C6794"/>
</svg>
