<svg width="24" height="24" viewBox="0 0 24 24" fill="none" xmlns="http://www.w3.org/2000/svg">
<path d="M18.4286 13.7141H17.5714C17.4462 13.7141 17.3435 13.7542 17.2635 13.8348C17.183 13.9149 17.1429 14.0176 17.1429 14.1426V18.4283C17.1429 19.0176 16.9332 19.522 16.5136 19.9417C16.094 20.3613 15.5894 20.5709 15.0001 20.5709H3.85707C3.26779 20.5709 2.76328 20.3613 2.34359 19.9417C1.92398 19.522 1.71421 19.0177 1.71421 18.4283V7.28546C1.71421 6.69619 1.92394 6.19187 2.34359 5.77222C2.76328 5.35252 3.26779 5.14279 3.85707 5.14279H13.2855C13.4107 5.14279 13.5135 5.1025 13.5937 5.02223C13.674 4.94188 13.7141 4.83929 13.7141 4.71418V3.85692C13.7141 3.73204 13.674 3.62927 13.5937 3.54905C13.5135 3.4687 13.4107 3.42859 13.2855 3.42859H3.85707C2.79467 3.42859 1.88613 3.80583 1.13155 4.56027C0.377244 5.31467 0 6.2232 0 7.2856V18.4285C0 19.4909 0.377244 20.3995 1.13159 21.1537C1.88617 21.9082 2.79471 22.2856 3.85711 22.2856H15.0001C16.0624 22.2856 16.9711 21.9082 17.7256 21.1537C18.4801 20.3995 18.8573 19.4909 18.8573 18.4285V14.143C18.8573 14.0178 18.8172 13.915 18.7366 13.8348C18.6562 13.7542 18.5535 13.7141 18.4286 13.7141Z" fill="#183B56"/>
<path d="M23.7453 1.96879C23.5756 1.79912 23.3745 1.71436 23.1425 1.71436H16.2854C16.0533 1.71436 15.8523 1.79912 15.6828 1.96879C15.5131 2.13837 15.4281 2.33928 15.4281 2.57143C15.4281 2.80359 15.5131 3.00455 15.6828 3.17422L18.0398 5.53131L9.3078 14.2635C9.21839 14.3528 9.17383 14.4555 9.17383 14.5714C9.17383 14.6877 9.21853 14.7903 9.3078 14.8796L10.8346 16.4062C10.9239 16.4955 11.0266 16.54 11.1427 16.54C11.2587 16.54 11.3615 16.4955 11.4507 16.4062L20.1828 7.67417L22.54 10.0313C22.7095 10.2009 22.9105 10.2858 23.1426 10.2858C23.3748 10.2858 23.5757 10.2009 23.7455 10.0313C23.9151 9.86163 23.9999 9.66077 23.9999 9.42862V2.57143C23.9998 2.33914 23.9148 2.13837 23.7453 1.96879Z" fill="#183B56"/>
</svg>
