<svg width="60" height="58" viewBox="0 0 60 58" fill="none" xmlns="http://www.w3.org/2000/svg">
<path d="M60 4.41176V55.5882C60 56.7583 59.5352 57.8805 58.7078 58.7078C57.8805 59.5352 56.7583 60 55.5882 60H4.41176C3.24169 60 2.11954 59.5352 1.29218 58.7078C0.46481 57.8805 0 56.7583 0 55.5882L0 4.41176C0 3.24169 0.46481 2.11954 1.29218 1.29218C2.11954 0.46481 3.24169 0 4.41176 0L55.5882 0C56.7583 0 57.8805 0.46481 58.7078 1.29218C59.5352 2.11954 60 3.24169 60 4.41176ZM17.6471 22.9412H8.82353V51.1765H17.6471V22.9412ZM18.4412 13.2353C18.4458 12.5679 18.319 11.9061 18.0678 11.2877C17.8167 10.6693 17.4462 10.1064 16.9776 9.63116C16.5089 9.15593 15.9512 8.77768 15.3364 8.51799C14.7215 8.2583 14.0615 8.12227 13.3941 8.11765H13.2353C11.878 8.11765 10.5763 8.65683 9.61657 9.61657C8.65683 10.5763 8.11765 11.878 8.11765 13.2353C8.11765 14.5926 8.65683 15.8943 9.61657 16.854C10.5763 17.8138 11.878 18.3529 13.2353 18.3529C13.9028 18.3694 14.5669 18.2541 15.1899 18.0138C15.8128 17.7734 16.3822 17.4127 16.8657 16.9522C17.3491 16.4916 17.7371 15.9404 18.0074 15.3299C18.2778 14.7194 18.4251 14.0616 18.4412 13.3941V13.2353ZM51.1765 34.0235C51.1765 25.5353 45.7765 22.2353 40.4118 22.2353C38.6553 22.1473 36.9064 22.5215 35.3396 23.3203C33.7728 24.1192 32.4428 25.3149 31.4824 26.7882H31.2353V22.9412H22.9412V51.1765H31.7647V36.1588C31.6372 34.6208 32.1216 33.0945 33.1129 31.9116C34.1042 30.7287 35.5222 29.9847 37.0588 29.8412H37.3941C40.2 29.8412 42.2824 31.6059 42.2824 36.0529V51.1765H51.1059L51.1765 34.0235Z" fill="#0A66C2"/>
</svg>
