<svg width="640" height="383" viewBox="0 0 640 383" fill="none" xmlns="http://www.w3.org/2000/svg">
<g clip-path="url(#clip0)">
<path d="M489.999 378.669C481.805 371.739 476.828 360.791 478.134 350.133C479.439 339.475 487.523 329.677 498.009 327.414C508.495 325.151 520.449 331.416 523.634 341.669C525.387 321.901 527.407 301.305 537.907 284.47C547.414 269.227 563.881 258.32 581.727 256.369C599.574 254.418 618.364 261.787 629.494 275.887C640.624 289.986 643.349 310.484 635.554 326.672C629.812 338.597 619.232 347.471 608.147 354.691C572.327 377.824 529.367 387.232 487.169 381.182L489.999 378.669Z" fill="#F2F2F2"/>
<path d="M611.846 262.196C597.12 274.202 583.611 287.629 571.514 302.284C552.582 325.141 537.261 350.767 526.087 378.27C525.269 380.277 528.524 381.15 529.333 379.166C547.616 334.467 576.804 295.07 614.226 264.578C615.906 263.209 613.512 260.837 611.846 262.196Z" fill="white"/>
<path d="M206.026 376.786C217.28 367.267 224.116 352.23 222.324 337.592C220.531 322.953 209.427 309.496 195.025 306.387C180.622 303.279 164.203 311.884 159.829 325.967C157.421 298.815 154.647 270.526 140.225 247.404C127.167 226.468 104.55 211.487 80.0377 208.807C55.5256 206.127 29.7175 216.249 14.4302 235.615C-0.857082 254.981 -4.60011 283.134 6.10671 305.368C13.994 321.746 28.5253 333.936 43.7504 343.852C92.3239 375.489 152.579 388.684 209.913 380.238" fill="#F2F2F2"/>
<path d="M38.6699 216.81C58.8954 233.3 77.4501 251.743 94.0658 271.871C110.684 291.979 125.315 313.653 137.752 336.589C144.704 349.455 150.949 362.691 156.46 376.238C157.583 378.994 153.112 380.194 152.001 377.468C142.241 353.585 130.166 330.716 115.949 309.19C101.801 287.742 85.6075 267.718 67.5966 249.4C57.4096 239.044 46.6614 229.257 35.4007 220.082C33.0926 218.201 36.3808 214.944 38.6699 216.81L38.6699 216.81Z" fill="white"/>
<path d="M459.402 382.162H190.896V106.401C190.896 47.7314 238.582 0 297.195 0H353.104C411.717 0 459.402 47.7314 459.402 106.401V382.162Z" fill="#F2F2F2"/>
<path d="M403.494 382.162H190.897V106.401C190.838 83.9204 197.95 62.0076 211.197 43.8533C211.685 43.1871 212.172 42.5295 212.675 41.8791C219.082 33.4672 226.707 26.0589 235.298 19.8989C235.784 19.5454 236.271 19.1981 236.765 18.8508C243.954 13.8712 251.73 9.80052 259.917 6.73134C260.403 6.54689 260.898 6.36209 261.393 6.18483C268.798 3.53994 276.473 1.72821 284.278 0.783076C284.761 0.716915 285.258 0.665144 285.755 0.613372C293.361 -0.200632 301.031 -0.200632 308.637 0.613372C309.133 0.665144 309.629 0.716909 310.119 0.783784C317.922 1.72898 325.595 3.54049 332.997 6.18486C333.492 6.36212 333.987 6.54692 334.475 6.73172C342.561 9.76218 350.246 13.7721 357.358 18.6721C357.852 19.0119 358.347 19.3592 358.834 19.7065C363.649 23.1473 368.173 26.9804 372.357 31.1669C375.713 34.525 378.84 38.1045 381.718 41.8813C382.219 42.5296 382.706 43.1872 383.193 43.8523C396.441 62.0067 403.553 83.92 403.494 106.401V382.162Z" fill="#CCCCCC"/>
<path d="M386.207 258.824C392.707 258.824 397.977 253.55 397.977 247.043C397.977 240.536 392.707 235.261 386.207 235.261C379.706 235.261 374.437 240.536 374.437 247.043C374.437 253.55 379.706 258.824 386.207 258.824Z" fill="#55C57A"/>
<path d="M437.406 373.902H428.387L424.096 339.082L437.408 339.083L437.406 373.902Z" fill="#FFB8B8"/>
<path d="M421.945 371.323H439.338V382.284H410.994C410.994 380.845 411.277 379.419 411.827 378.089C412.378 376.759 413.184 375.551 414.201 374.533C415.218 373.515 416.426 372.708 417.754 372.157C419.083 371.606 420.507 371.323 421.945 371.323Z" fill="#2F2E41"/>
<path d="M482.28 373.902H473.261L468.97 339.082L482.281 339.083L482.28 373.902Z" fill="#FFB8B8"/>
<path d="M466.819 371.323H484.212V382.284H455.867C455.867 380.845 456.151 379.419 456.701 378.089C457.251 376.759 458.058 375.551 459.075 374.533C460.092 373.515 461.299 372.708 462.628 372.157C463.957 371.606 465.381 371.323 466.819 371.323Z" fill="#2F2E41"/>
<path d="M392.164 249.377C391.515 248.42 391.084 247.332 390.9 246.191C390.717 245.049 390.786 243.881 391.102 242.768C391.418 241.656 391.974 240.627 392.731 239.753C393.488 238.879 394.427 238.182 395.482 237.711L426.14 153.13L441.226 161.37L406.221 242.199C406.894 244.026 406.875 246.036 406.167 247.849C405.458 249.663 404.11 251.153 402.377 252.038C400.645 252.922 398.648 253.14 396.765 252.65C394.883 252.159 393.246 250.995 392.164 249.377Z" fill="#FFB8B8"/>
<path d="M477.673 265.27C476.671 264.695 475.806 263.907 475.141 262.961C474.476 262.015 474.027 260.935 473.824 259.797C473.621 258.658 473.67 257.489 473.967 256.372C474.264 255.254 474.803 254.216 475.545 253.329L466.047 163.856L483.215 164.642L487.162 252.65C488.568 253.996 489.431 255.811 489.589 257.751C489.746 259.692 489.187 261.623 488.018 263.179C486.848 264.734 485.149 265.806 483.242 266.192C481.336 266.577 479.354 266.249 477.673 265.27Z" fill="#FFB8B8"/>
<path d="M450.285 137.463C460.263 137.463 468.353 129.366 468.353 119.378C468.353 109.389 460.263 101.292 450.285 101.292C440.306 101.292 432.217 109.389 432.217 119.378C432.217 129.366 440.306 137.463 450.285 137.463Z" fill="#FFB8B8"/>
<path d="M477.557 244.921H423.086L423.152 244.497C423.249 243.863 432.86 180.848 425.772 160.233C425.06 158.207 425.123 155.989 425.947 154.007C426.772 152.024 428.299 150.417 430.237 149.494H430.237C440.368 144.719 459.815 138.839 476.228 153.109C478.644 155.244 480.53 157.911 481.738 160.901C482.945 163.891 483.442 167.122 483.187 170.337L477.557 244.921Z" fill="#55C57A"/>
<path d="M433.548 190.161L409.025 185.181L420.52 157.914C421.208 155.273 422.914 153.013 425.264 151.63C427.615 150.247 430.417 149.853 433.057 150.535C435.697 151.217 437.959 152.92 439.347 155.269C440.735 157.618 441.135 160.423 440.46 163.067L433.548 190.161Z" fill="#55C57A"/>
<path d="M464.957 199.407L463.482 165.579C462.364 159.22 466.001 153.208 471.594 152.225C477.189 151.246 482.652 155.657 483.775 162.063L489.317 193.672L464.957 199.407Z" fill="#55C57A"/>
<path d="M475.745 240.871C484.51 274.284 485.466 316.766 483.102 363.104L471.331 361.631L449.998 273.27L438.228 363.104L424.987 362.368C421.031 313.747 417.179 272.007 423.515 244.553L475.745 240.871Z" fill="#2F2E41"/>
<path d="M462.19 133.355C458.819 136.948 452.559 135.019 452.12 130.109C452.086 129.728 452.088 129.345 452.128 128.964C452.354 126.789 453.61 124.814 453.309 122.518C453.241 121.947 453.028 121.402 452.691 120.936C450.005 117.336 443.7 122.546 441.165 119.287C439.611 117.289 441.438 114.142 440.245 111.908C438.671 108.96 434.008 110.415 431.083 108.8C427.83 107.004 428.025 102.007 430.166 98.9681C432.778 95.2616 437.358 93.2839 441.88 92.9988C446.402 92.7138 450.894 93.9375 455.116 95.5844C459.913 97.4557 464.67 100.042 467.622 104.264C471.212 109.399 471.557 116.302 469.762 122.306C468.67 125.958 464.942 130.42 462.19 133.355Z" fill="#2F2E41"/>
<path d="M617.918 382.635H74.8046C74.5728 382.635 74.3506 382.542 74.1869 382.378C74.0232 382.213 73.9313 381.991 73.9313 381.759C73.9313 381.527 74.0232 381.304 74.1869 381.14C74.3506 380.975 74.5728 380.883 74.8046 380.882H617.918C618.149 380.883 618.372 380.975 618.535 381.14C618.699 381.304 618.791 381.527 618.791 381.759C618.791 381.991 618.699 382.213 618.535 382.378C618.372 382.542 618.149 382.635 617.918 382.635Z" fill="#3F3D56"/>
<path d="M349.793 148.292H244.598V149.764H349.793V148.292Z" fill="#CCCCCC"/>
<path d="M350.161 232.316H244.965V233.789H350.161V232.316Z" fill="#CCCCCC"/>
<path d="M279.172 79.1568H277.701V303.005H279.172V79.1568Z" fill="#CCCCCC"/>
<path d="M315.954 79.1568H314.483V303.005H315.954V79.1568Z" fill="#CCCCCC"/>
<path fill-rule="evenodd" clip-rule="evenodd" d="M375.276 105.981C381.109 105.981 385.705 110.954 385.244 116.77L371.496 290.46C371.176 294.499 368.451 297.945 364.596 299.188L299.462 320.192C297.467 320.836 295.32 320.836 293.324 320.192L228.191 299.188C224.335 297.945 221.611 294.499 221.291 290.46L207.543 116.77C207.082 110.954 211.677 105.981 217.511 105.981H375.276Z" fill="#C6C6C6"/>
<path fill-rule="evenodd" clip-rule="evenodd" d="M242.015 282.604C238.138 281.374 235.393 277.918 235.071 273.863L224.343 138.617C223.882 132.8 228.477 127.826 234.312 127.826H356.312C362.147 127.826 366.742 132.8 366.281 138.617L355.553 273.863C355.231 277.918 352.486 281.374 348.609 282.604L298.337 298.554C296.369 299.179 294.256 299.179 292.288 298.554L242.015 282.604Z" fill="#E6E7E6"/>
<path fill-rule="evenodd" clip-rule="evenodd" d="M340.122 198.516V198.836C340.123 198.73 340.123 198.622 340.122 198.516ZM317.003 172.782H316.802C316.775 172.782 316.747 172.782 316.719 172.782H317.086C317.058 172.782 317.031 172.782 317.003 172.782Z" fill="#C4C5C1"/>
<path fill-rule="evenodd" clip-rule="evenodd" d="M324.257 177.888C322.127 177.188 319.969 176.822 317.837 176.76C308.299 176.485 282.525 176.483 272.987 176.759C270.853 176.821 268.694 177.188 266.563 177.888C254.494 181.874 247.913 195.039 251.831 207.325C255.599 219.039 290.537 250.411 295.008 250.411C299.479 250.411 335.196 219.077 338.964 207.325C342.894 195.013 336.314 181.848 324.257 177.888Z" fill="white"/>
<path fill-rule="evenodd" clip-rule="evenodd" d="M295.289 285.85C295.289 292.614 288.712 297.427 282.265 295.382L241.992 282.604C238.115 281.374 235.369 277.918 235.048 273.863L224.32 138.617C223.859 132.8 228.454 127.826 234.289 127.826H285.289C290.812 127.826 295.289 132.303 295.289 137.826V285.85Z" fill="black" fill-opacity="0.05"/>
</g>
<defs>
<clipPath id="clip0">
<rect width="640" height="383" fill="white"/>
</clipPath>
</defs>
</svg>
