<svg width="288" height="194" viewBox="0 0 288 194" fill="none" xmlns="http://www.w3.org/2000/svg">
<g clip-path="url(#clip0)">
<path d="M187.962 84.7087C187.631 86.4944 187.233 88.2619 186.768 90.0112C186.718 90.2143 186.662 90.4144 186.605 90.6175H180.149C179.599 90.6182 179.072 90.8419 178.683 91.2398C178.294 91.6377 178.076 92.1771 178.075 92.7398V111.573C177.88 111.946 177.681 112.316 177.483 112.686C176.457 114.596 175.391 116.484 174.3 118.349C156.521 148.653 131.723 174.012 102.096 192.187L103.85 188.137C103.207 188.091 102.561 188.046 101.918 188C87.9185 187.021 73.8711 185.936 60.2 182.716C45.8979 179.348 31.9069 173.505 20.698 163.819C9.48613 154.13 1.26698 140.293 0.126214 125.322C-0.25417 120.177 0.254374 115.003 1.62852 110.039C4.25655 100.483 9.99886 91.8848 18.2833 86.7975C31.2965 78.8089 48.2713 80.437 61.9897 87.0825C75.7052 93.7251 86.8696 104.721 97.7703 115.526C86.7645 96.215 71.4407 79.8487 53.0564 67.7703C46.9646 63.7805 40.4995 60.2273 35.3202 55.0582C30.1439 49.8921 26.3246 42.6493 27.2403 35.3094C28.2802 26.9842 34.9439 20.6661 41.6194 15.7941C44.286 13.8477 47.0386 12.0014 49.8772 10.3036C57.886 5.50131 66.5497 1.87837 75.6992 0.53531C88.0933 -1.28677 101.48 1.47818 110.982 9.82154C121.687 19.223 126.078 34.3847 125.661 48.8886C132.256 39.0779 142.428 31.5682 153.915 31.2499C165.841 30.9225 177.177 38.6322 183.151 49.2009C189.121 59.7665 190.194 72.7181 187.962 84.7087Z" fill="#E6E6E6"/>
<path d="M112.508 125.454C119.493 124.824 125.945 124.089 132.714 122.129C139.275 120.23 145.589 117.05 150.259 111.857C155.283 106.272 157.995 99.019 159.908 91.7987C160.975 87.7731 161.851 83.6913 162.678 79.608C163.576 75.1777 164.373 70.7278 165.07 66.2583C166.458 57.3616 167.449 48.4125 168.043 39.411C168.115 38.3184 168.18 37.2254 168.24 36.132C168.277 35.4575 167.252 35.4596 167.215 36.132C166.727 45.0048 165.85 53.8431 164.582 62.6468C163.332 71.2964 161.732 79.9085 159.702 88.403C157.982 95.5993 155.755 102.908 151.344 108.898C147.208 114.516 141.234 118.187 134.784 120.382C128.22 122.615 121.299 123.507 114.44 124.17C113.599 124.251 113.35 124.329 112.508 124.405C111.856 124.464 111.85 125.513 112.508 125.454L112.508 125.454Z" fill="white"/>
<path d="M2.21926 110.813C11.0322 111.313 19.7554 112.886 28.2046 115.498C36.6573 118.105 44.7802 121.723 52.4048 126.277C59.7722 130.68 66.6116 135.949 72.784 141.977C78.7744 147.83 84.1133 154.344 88.7031 161.399C93.3139 168.471 97.1349 176.051 100.095 183.995C100.456 184.967 100.803 185.945 101.138 186.927C101.354 187.56 102.344 187.288 102.126 186.648C99.3571 178.536 95.7067 170.768 91.2436 163.489C86.7814 156.21 81.5445 149.46 75.6287 143.361C69.6183 137.168 62.929 131.706 55.6939 127.083C40.5025 117.401 23.2832 111.543 5.4499 109.992C4.37416 109.899 3.29728 109.823 2.21927 109.764C1.56001 109.727 1.56204 110.776 2.21927 110.813L2.21926 110.813Z" fill="white"/>
<path d="M50.154 11.5333C55.7889 13.3669 61.1299 16.0375 66.0062 19.4595C70.989 22.98 75.5334 27.1095 79.5386 31.7563C83.7593 36.6446 87.5118 41.9361 90.7444 47.5581C94.1732 53.4941 97.1518 59.6905 99.6541 66.0928C102.231 72.6658 104.398 79.3991 106.142 86.2524C107.916 93.187 109.301 100.219 110.291 107.315C111.277 114.336 111.873 121.408 112.077 128.498C112.283 135.277 112.087 142.063 111.491 148.818C110.945 155.12 109.948 161.373 108.509 167.526C107.231 173.083 105.429 178.501 103.13 183.702C102.597 184.883 102.032 186.047 101.434 187.195C101.124 187.791 102.009 188.321 102.32 187.724C104.861 182.756 106.89 177.53 108.374 172.132C110.039 166.123 111.247 159.991 111.985 153.791C112.803 147.064 113.201 140.29 113.178 133.511C113.163 126.39 112.749 119.275 111.937 112.202C111.125 105.041 109.919 97.9318 108.325 90.9094C106.735 83.8754 104.718 76.9497 102.286 70.1724C99.9421 63.6117 97.1355 57.2338 93.8886 51.089C90.7961 45.2254 87.1922 39.6597 83.1208 34.4596C79.2543 29.5084 74.8401 25.0324 69.9664 21.1211C65.2669 17.3609 60.0738 14.2958 54.5397 12.016C53.1874 11.4652 51.8163 10.9671 50.4266 10.5217C49.7957 10.3186 49.5258 11.331 50.154 11.5333H50.154Z" fill="white"/>
<path d="M110.964 194C151.465 194 184.297 192.643 184.297 190.968C184.297 189.294 151.465 187.937 110.964 187.937C70.4632 187.937 37.6309 189.294 37.6309 190.968C37.6309 192.643 70.4632 194 110.964 194Z" fill="#E6E6E6"/>
<path d="M175.753 96.0108C175.717 96.1744 175.693 96.3407 175.682 96.5081L162.954 104.021L159.861 102.199L156.562 106.617L163.181 111.444L177.702 99.7221C178.294 99.9463 178.939 99.9808 179.551 99.8208C180.163 99.6609 180.712 99.3142 181.127 98.8267C181.541 98.3393 181.801 97.7343 181.871 97.0922C181.942 96.45 181.819 95.8012 181.521 95.232C181.222 94.6628 180.761 94.2001 180.199 93.9056C179.636 93.611 179 93.4986 178.374 93.5831C177.748 93.6676 177.162 93.9452 176.694 94.3789C176.226 94.8125 175.898 95.3818 175.753 96.0108Z" fill="#FFB8B8"/>
<path d="M146.767 100.62L156.789 107.929L161.271 102.179L151.529 94.1802C151.11 93.836 150.626 93.5831 150.108 93.4368C149.59 93.2906 149.049 93.2541 148.516 93.3295C147.984 93.405 147.472 93.5909 147.013 93.8758C146.553 94.1606 146.155 94.5385 145.843 94.9863C145.236 95.8587 144.992 96.9425 145.165 97.9991C145.338 99.0556 145.914 99.9986 146.767 100.62Z" fill="#6C63FF"/>
<path d="M126.08 184.014L129.594 184.956L134.818 171.536L129.632 170.145L126.08 184.014Z" fill="#FFB8B8"/>
<path d="M135.515 190.111L124.471 187.151L125.589 182.785L132.366 184.602C133.497 184.905 134.465 185.656 135.055 186.689C135.646 187.723 135.811 188.954 135.515 190.111Z" fill="#2F2E41"/>
<path d="M157.315 186.574L160.891 185.92L160.129 171.496L154.852 172.461L157.315 186.574Z" fill="#FFB8B8"/>
<path d="M168.382 188.057L157.143 190.112L156.368 185.669L163.264 184.408C163.834 184.304 164.419 184.315 164.985 184.442C165.551 184.569 166.086 184.809 166.562 185.148C167.037 185.487 167.442 185.918 167.754 186.418C168.067 186.917 168.28 187.474 168.382 188.057Z" fill="#2F2E41"/>
<path d="M150.274 80.4954C151.155 80.7148 151.872 81.6336 152.303 82.6979C152.7 83.8158 152.969 84.9771 153.104 86.1585C153.442 88.3585 153.767 90.7403 153.067 92.7779C152.247 95.1661 150.062 96.4169 148.167 95.8291C146.272 95.2413 144.764 93.0349 144.249 90.495C143.78 87.9287 144.082 85.2773 145.116 82.8901C145.654 81.6359 146.396 80.4787 147.382 79.9128C147.866 79.6135 148.443 79.5127 148.996 79.6307C149.55 79.7487 150.039 80.0768 150.366 80.5489" fill="#2F2E41"/>
<path d="M155.26 120.329L162.068 182.72L156.445 184.905L146.075 143.067L131.637 181.321L125.482 181.671C125.482 181.671 133.927 122.148 140.185 120.795L155.26 120.329Z" fill="#2F2E41"/>
<path d="M149.542 88.4577C153.561 88.4577 156.819 85.1239 156.819 81.0114C156.819 76.899 153.561 73.5652 149.542 73.5652C145.523 73.5652 142.265 76.899 142.265 81.0114C142.265 85.1239 145.523 88.4577 149.542 88.4577Z" fill="#FFB8B8"/>
<path d="M152.664 91.5816L144.8 90.532C144.8 90.532 139.671 96.8295 140.013 107.675C140.355 118.521 139.158 121.844 139.158 121.844L155.555 122.148C153.185 118.813 163.099 99.659 152.664 91.5816Z" fill="#6C63FF"/>
<path d="M156.89 123.664C156.726 123.665 156.562 123.679 156.4 123.707L146.34 112.748L147.365 109.249L142.407 106.975L139.33 114.672L153.805 126.454C153.727 127.095 153.842 127.745 154.134 128.318C154.426 128.891 154.882 129.359 155.44 129.66C155.999 129.962 156.634 130.082 157.261 130.005C157.888 129.928 158.477 129.658 158.95 129.23C159.424 128.802 159.758 128.237 159.91 127.609C160.061 126.982 160.023 126.323 159.799 125.718C159.575 125.114 159.177 124.594 158.657 124.227C158.138 123.86 157.521 123.663 156.89 123.664Z" fill="#FFB8B8"/>
<path d="M145.871 95.8452L141.211 107.5L147.707 110.649L153.088 99.1146C153.319 98.6184 153.449 98.079 153.47 97.5296C153.49 96.9801 153.401 96.4322 153.207 95.9192C153.014 95.4063 152.72 94.9392 152.344 94.5466C151.967 94.154 151.517 93.8441 151.019 93.6359C150.54 93.435 150.026 93.3328 149.507 93.3352C148.989 93.3375 148.476 93.4443 147.998 93.6494C147.52 93.8546 147.086 94.1541 146.721 94.5308C146.356 94.9076 146.067 95.3542 145.871 95.8452Z" fill="#6C63FF"/>
<path d="M147.638 87.7811C148.779 87.108 148.9 85.4843 148.745 84.1467C148.59 82.8091 148.331 81.3179 149.1 80.2242C150.017 78.9189 151.859 78.8929 153.43 78.8503C155.001 78.8077 156.913 78.3371 157.32 76.7844C157.589 75.7584 157.014 74.6574 156.188 74.0133C155.363 73.3693 154.33 73.0845 153.326 72.8139C151.08 72.2086 148.761 71.5981 146.462 71.9308C144.184 72.2604 142.125 73.4942 140.73 75.3655C139.334 77.2367 138.715 79.5948 139.006 81.9296C139.378 84.9161 139.918 86.2203 139.564 87.5371C138.904 89.9899 136.058 91.5656 136.002 94.1089C135.957 96.0984 137.675 97.6331 139.35 98.6432C140.679 99.4445 142.114 100.124 143.646 100.312C145.177 100.5 146.826 100.14 147.967 99.0781C149.439 97.7081 149.803 95.4192 149.381 93.4297C148.959 91.4403 147.876 89.6735 146.806 87.9577" fill="#2F2E41"/>
<path d="M285.334 90.0112H180.149C179.442 90.0123 178.765 90.3001 178.265 90.8116C177.765 91.323 177.483 92.0164 177.482 92.7397V161.864C177.483 162.587 177.765 163.28 178.265 163.792C178.765 164.303 179.442 164.591 180.149 164.592H285.334C286.041 164.591 286.718 164.303 287.218 163.792C287.718 163.28 287.999 162.587 288 161.864V92.7397C287.999 92.0164 287.718 91.323 287.218 90.8116C286.718 90.3001 286.041 90.0123 285.334 90.0112ZM287.408 161.864C287.407 162.426 287.189 162.966 286.8 163.363C286.411 163.761 285.884 163.985 285.334 163.986H180.149C179.599 163.985 179.072 163.761 178.683 163.363C178.294 162.966 178.076 162.426 178.075 161.864V92.7397C178.076 92.1771 178.294 91.6377 178.683 91.2398C179.072 90.8419 179.599 90.6181 180.149 90.6175H285.334C285.884 90.6181 286.411 90.8419 286.8 91.2398C287.189 91.6377 287.407 92.1771 287.408 92.7397V161.864Z" fill="#3F3D56"/>
<path d="M202.6 124.42H186.008C185.34 124.419 184.7 124.148 184.228 123.664C183.756 123.181 183.49 122.526 183.489 121.843V104.865C183.49 104.182 183.756 103.527 184.228 103.044C184.7 102.561 185.34 102.289 186.008 102.288H202.6C203.268 102.289 203.908 102.561 204.38 103.044C204.852 103.527 205.118 104.182 205.119 104.865V121.843C205.118 122.526 204.852 123.181 204.38 123.664C203.908 124.148 203.268 124.419 202.6 124.42Z" fill="#6C63FF"/>
<path d="M279.855 142.462H185.633C185.122 142.462 184.632 142.254 184.271 141.885C183.91 141.515 183.707 141.014 183.707 140.491C183.707 139.969 183.91 139.467 184.271 139.098C184.632 138.728 185.122 138.521 185.633 138.521H279.855C280.366 138.521 280.855 138.728 281.217 139.098C281.578 139.467 281.781 139.969 281.781 140.491C281.781 141.014 281.578 141.515 281.217 141.885C280.855 142.254 280.366 142.462 279.855 142.462Z" fill="#CCCCCC"/>
<path d="M279.918 132.912H185.696C185.186 132.912 184.696 132.704 184.335 132.335C183.973 131.965 183.771 131.464 183.771 130.941C183.771 130.419 183.973 129.917 184.335 129.548C184.696 129.178 185.186 128.971 185.696 128.971H279.918C280.429 128.971 280.919 129.178 281.28 129.548C281.641 129.917 281.844 130.419 281.844 130.941C281.844 131.464 281.641 131.965 281.28 132.335C280.919 132.704 280.429 132.912 279.918 132.912Z" fill="#CCCCCC"/>
<path d="M233.401 119.872H219.475C218.964 119.872 218.474 119.665 218.113 119.295C217.752 118.926 217.549 118.424 217.549 117.902C217.549 117.379 217.752 116.878 218.113 116.508C218.474 116.139 218.964 115.931 219.475 115.931H233.401C233.911 115.931 234.401 116.139 234.762 116.508C235.124 116.878 235.327 117.379 235.327 117.902C235.327 118.424 235.124 118.926 234.762 119.295C234.401 119.665 233.911 119.872 233.401 119.872Z" fill="#CCCCCC"/>
<path d="M279.919 110.174H219.475C218.964 110.174 218.474 109.966 218.113 109.597C217.752 109.227 217.549 108.726 217.549 108.203C217.549 107.68 217.752 107.179 218.113 106.81C218.474 106.44 218.964 106.232 219.475 106.232H279.919C280.43 106.232 280.92 106.44 281.281 106.81C281.642 107.179 281.845 107.68 281.845 108.203C281.845 108.726 281.642 109.227 281.281 109.597C280.92 109.966 280.43 110.174 279.919 110.174Z" fill="#CCCCCC"/>
<path d="M231.029 152.163H185.633C185.122 152.163 184.632 151.956 184.271 151.586C183.91 151.217 183.707 150.715 183.707 150.193C183.707 149.67 183.91 149.169 184.271 148.799C184.632 148.43 185.122 148.222 185.633 148.222H231.029C231.54 148.222 232.03 148.43 232.391 148.799C232.752 149.169 232.955 149.67 232.955 150.193C232.955 150.715 232.752 151.217 232.391 151.586C232.03 151.956 231.54 152.163 231.029 152.163Z" fill="#CCCCCC"/>
</g>
<defs>
<clipPath id="clip0">
<rect width="288" height="194" fill="white"/>
</clipPath>
</defs>
</svg>
