<svg width="50" height="50" viewBox="0 0 50 50" fill="none" xmlns="http://www.w3.org/2000/svg">
<g clip-path="url(#clip0)">
<path d="M14.6162 25.156C14.6162 25.156 10.7013 20.4192 10.7954 19.1559L8.37785 26.0632L8.28984 29.0181L6.96949 30.0874L5.1916 35.167L5.14849 37.9936L3.92458 38.7871L0 49.9999L11.2205 40.1812L17.7266 32.2734V32.2733L14.6162 25.156Z" fill="#FFE278"/>
<path d="M24.6329 35.3912L17.7266 32.2734L0 50L11.2311 46.0692L12.1428 44.8039L14.94 44.7709L20.0066 42.9977L21.1799 41.6408L24.4766 41.4331L30.8438 39.2047L24.6329 35.3912Z" fill="#FFC178"/>
<path d="M38.7695 18.0789L47.6896 12.1287L49.3399 14.6026L40.4198 20.5529L38.7695 18.0789Z" fill="#FFE278"/>
<path d="M29.334 9.75342L33.7922 0.837058L36.4505 2.16623L31.9923 11.0826L29.334 9.75342Z" fill="#FF8B8B"/>
<path d="M37.291 35.4446L38.9413 32.9707L43.4014 35.9459L41.7511 38.4198L37.291 35.4446Z" fill="#FF8B8B"/>
<path d="M11.5957 8.25439L14.0697 6.60408L17.0448 11.0641L14.5708 12.7144L11.5957 8.25439Z" fill="#FFE278"/>
<path d="M14.0298 35.9696C11.2774 33.2173 10.883 31.2436 8.37722 26.0632L6.96875 30.0874C7.50062 31.1544 8.66525 34.8102 11.9272 38.0723L14.0298 35.9696Z" fill="#BE4DD8"/>
<path d="M20.0065 42.9977L24.4765 41.4333C22.4921 40.5746 17.7667 39.7058 14.0303 35.9697L11.9277 38.0723C15.5456 41.6901 19.8073 42.9012 20.0065 42.9977Z" fill="#7A3DB4"/>
<path d="M9.17242 40.827C7.276 38.9305 6.49782 37.1867 5.19085 35.1669L3.92383 38.7869C4.15081 39.1231 5.15993 41.0196 7.06974 42.9295L9.17242 40.827Z" fill="#FF6378"/>
<path d="M11.2309 46.0692L14.9398 44.771C13.4849 43.8611 11.3227 42.9766 9.1729 40.827L7.07031 42.9296C9.03335 44.8926 11.1651 46.0252 11.2309 46.0692Z" fill="#FF3D7D"/>
<path d="M27.2626 22.737C24.6338 20.1081 21.6106 17.9961 18.7502 16.79C15.5879 15.4568 13.1123 15.4568 11.7791 16.7899C10.446 18.1231 10.446 20.5987 11.7793 23.7609C12.9854 26.6214 15.0974 29.6445 17.7262 32.2734V32.2735L22.6732 28.7282L27.2626 22.737Z" fill="#FFC178"/>
<path d="M33.208 38.2205C34.5412 36.8873 34.5412 34.4116 33.2079 31.2493C32.0019 28.3889 29.8899 25.3658 27.2611 22.7369L17.7246 32.2734C20.3535 34.9022 23.3766 37.0142 26.237 38.2202C29.3991 39.5536 31.8748 39.5537 33.208 38.2205Z" fill="#FF936B"/>
<path d="M47.4626 0.435303L22.1875 25.7104L23.2388 26.7617L36.5225 14.8799L48.5139 1.48675L47.4626 0.435303Z" fill="#76E2F8"/>
<path d="M23.2363 26.7623L48.5076 1.49102L49.5587 2.54217L24.2875 27.8134L23.2363 26.7623Z" fill="#4BB9EC"/>
<path d="M47.4535 23.9092C45.8587 22.8576 43.8584 22.6791 42.1027 23.4316L27.1133 29.8557L28.2845 32.5887L43.274 26.1648C44.1207 25.8018 45.0476 25.8846 45.8166 26.3917C47.56 27.5415 47.3798 30.1271 45.5384 31.0475L44.8751 31.3792L46.205 34.0388L46.8683 33.7072C48.8002 32.7412 50.0004 30.7994 50.0003 28.6394C50.0003 26.7291 49.0484 24.9608 47.4535 23.9092Z" fill="#C6EA4B"/>
<path d="M17.4128 21.7159L23.8369 6.72635C24.1999 5.87958 24.1171 4.95273 23.6099 4.18377C22.4595 2.4387 19.874 2.62217 18.9542 4.4618L18.6225 5.1252L15.9629 3.79533L16.2945 3.13203C17.2604 1.20002 19.2023 0 21.3622 0C23.2724 0 25.0407 0.95193 26.0924 2.54684C27.144 4.14165 27.3225 6.14195 26.57 7.89773L20.1461 22.8871L17.4128 21.7159Z" fill="#BE4DD8"/>
</g>
<defs>
<clipPath id="clip0">
<rect width="50" height="50" fill="white"/>
</clipPath>
</defs>
</svg>
