<svg width="61" height="60" viewBox="0 0 61 60" fill="none" xmlns="http://www.w3.org/2000/svg">
<path d="M22.1577 0C18.844 0 16.1581 2.68663 16.1581 5.9998C16.1573 6.78691 16.3119 7.56648 16.613 8.29398C16.9141 9.02148 17.3558 9.68268 17.9129 10.2398C18.47 10.7969 19.1316 11.2391 19.8599 11.541C20.5883 11.843 21.3691 11.9988 22.1577 11.9996H28.1583V5.9998C28.1597 4.41006 27.5282 2.88488 26.4029 1.75973C25.2776 0.634578 23.7506 0.0015945 22.1577 0ZM22.1577 15.9995H6.1578C2.84411 15.9995 0.158203 18.6861 0.158203 22.0003C0.158203 25.3134 2.84411 28.0001 6.1578 28.0001H22.1587C25.4714 28.0001 28.1583 25.3134 28.1583 22.0003C28.1583 18.6861 25.4714 15.9995 22.1577 15.9995Z" fill="#36C5F0"/>
<path d="M60.1578 22.0003C60.1578 18.6861 57.4709 15.9995 54.1572 15.9995C50.8435 15.9995 48.1576 18.6861 48.1576 22.0003V28.0001H54.1572C55.7501 27.9985 57.2771 27.3655 58.4024 26.2403C59.5278 25.1152 60.1592 23.59 60.1578 22.0003ZM44.1579 22.0003V5.9998C44.1592 4.41006 43.5278 2.88488 42.4025 1.75973C41.2772 0.634578 39.7502 0.0015945 38.1573 0C34.8436 0 32.1577 2.68663 32.1577 5.9998V21.9993C32.1577 25.3144 34.8436 28.0011 38.1573 28.0011C39.7502 27.9995 41.2772 27.3665 42.4025 26.2413C43.5278 25.1162 44.1592 23.591 44.1579 22.0013" fill="#2EB67D"/>
<path d="M38.1573 60.0001C39.7502 59.9985 41.2772 59.3655 42.4025 58.2403C43.5278 57.1152 44.1593 55.59 44.1579 54.0003C44.1593 52.4105 43.5278 50.8853 42.4025 49.7602C41.2772 48.635 39.7502 48.0021 38.1573 48.0005H32.1577V54.0003C32.1577 57.3134 34.8436 60.0001 38.1573 60.0001ZM38.1573 44.0006H54.1583C57.4709 44.0006 60.1579 41.314 60.1579 37.9998C60.1592 36.4101 59.5278 34.8849 58.4025 33.7597C57.2772 32.6346 55.7501 32.0016 54.1572 32H38.1573C34.8436 32 32.1577 34.6866 32.1577 37.9998C32.1569 38.7869 32.3115 39.5665 32.6126 40.294C32.9136 41.0215 33.3553 41.6827 33.9125 42.2398C34.4696 42.7969 35.1312 43.2391 35.8595 43.541C36.5879 43.843 37.3686 43.9988 38.1573 43.9996" fill="#ECB22E"/>
<path d="M0.158206 37.9998C0.157414 38.7869 0.31197 39.5665 0.61305 40.294C0.914129 41.0215 1.35584 41.6827 1.91295 42.2398C2.47006 42.7969 3.13168 43.2391 3.86001 43.541C4.58834 43.843 5.36913 43.9988 6.1578 43.9996C7.75069 43.998 9.27771 43.365 10.403 42.2399C11.5283 41.1147 12.1597 39.5895 12.1584 37.9998V32H6.1578C2.84411 32 0.158206 34.6866 0.158206 37.9998ZM16.1581 37.9998V53.9993C16.1581 57.3134 18.844 60.0001 22.1577 60.0001C23.7506 59.9985 25.2776 59.3655 26.4029 58.2403C27.5282 57.1152 28.1597 55.59 28.1583 54.0003V37.9998C28.1591 37.2126 28.0045 36.433 27.7034 35.7054C27.4023 34.9778 26.9605 34.3166 26.4032 33.7594C25.846 33.2023 25.1843 32.7602 24.4558 32.4583C23.7274 32.1564 22.9465 32.0007 22.1577 32C18.844 32 16.1581 34.6866 16.1581 37.9998Z" fill="#E01E5A"/>
</svg>
