<svg width="46" height="55" viewBox="0 0 46 55" fill="none" xmlns="http://www.w3.org/2000/svg">
<path fill-rule="evenodd" clip-rule="evenodd" d="M45.8585 0L41.9909 48.8539L22.9292 55L3.86759 48.8539L0 0H45.8585Z" fill="#9AB15D"/>
<path fill-rule="evenodd" clip-rule="evenodd" d="M7.39078 44.6204L4.29395 5.58307H41.0118L37.9149 44.6204L22.6529 49.4622L7.39078 44.6204Z" fill="#B6D066"/>
<path fill-rule="evenodd" clip-rule="evenodd" d="M34.1067 23.6496V23.7316C34.1069 23.7044 34.1069 23.6767 34.1067 23.6496ZM28.1972 17.0726H28.1459C28.1389 17.0728 28.1318 17.0728 28.1248 17.0728H28.2184C28.2113 17.0728 28.2043 17.0728 28.1972 17.0726Z" fill="#B5D066"/>
<path fill-rule="evenodd" clip-rule="evenodd" d="M30.0514 18.3778C27.0018 17.3755 23.7243 19.0481 22.6778 22.1166C21.6313 19.0449 18.3538 17.3755 15.3042 18.3778C12.2193 19.3963 10.5372 22.761 11.5388 25.9011C12.5018 28.8948 21.4323 36.9127 22.5751 36.9127C23.7179 36.9127 32.8474 28.9046 33.8104 25.9011C34.8152 22.7545 33.1331 19.3898 30.0514 18.3778Z" fill="white"/>
<path fill-rule="evenodd" clip-rule="evenodd" d="M22.6468 49.4622L7.38468 44.6204L4.28784 5.58307H22.6468V49.4622Z" fill="black" fill-opacity="0.05"/>
</svg>
