<svg width="58" height="48" viewBox="0 0 58 48" fill="none" xmlns="http://www.w3.org/2000/svg">
<path d="M57.1078 6.34238C55.0203 7.26738 52.7778 7.89238 50.4203 8.17488C52.8253 6.73488 54.6703 4.44988 55.5403 1.72988C53.2903 3.06488 50.7978 4.03488 48.1453 4.55488C46.0203 2.29488 42.9953 0.879883 39.6453 0.879883C33.2153 0.879883 28.0003 6.09488 28.0003 12.5299C28.0003 13.4399 28.1053 14.3249 28.3003 15.1799C18.6178 14.6924 10.0403 10.0549 4.29527 3.00988C3.29527 4.73488 2.72027 6.73488 2.72027 8.86488C2.72027 12.9049 4.77777 16.4724 7.90027 18.5599C5.99027 18.4974 4.19527 17.9749 2.62527 17.1024V17.2524C2.62527 22.8949 6.63777 27.6024 11.9678 28.6724C10.9878 28.9374 9.96027 29.0774 8.90027 29.0774C8.15027 29.0774 7.41777 29.0074 6.70777 28.8724C8.19027 33.4974 12.4903 36.8674 17.5878 36.9574C13.6003 40.0824 8.57777 41.9449 3.12277 41.9449C2.18277 41.9449 1.25527 41.8899 0.342773 41.7824C5.49777 45.0899 11.6178 47.0149 18.1928 47.0149C39.6178 47.0149 51.3303 29.2699 51.3303 13.8799C51.3303 13.3799 51.3178 12.8749 51.2953 12.3749C53.5703 10.7299 55.5453 8.68238 57.1028 6.34988L57.1078 6.34238Z" fill="#1DA1F2"/>
</svg>
