<svg width="402" height="314" viewBox="0 0 402 314" fill="none" xmlns="http://www.w3.org/2000/svg">
<g clip-path="url(#clip0)">
<path opacity="0.1" d="M141.014 307.918C179.742 307.918 211.137 301.981 211.137 294.657C211.137 287.334 179.742 281.397 141.014 281.397C102.286 281.397 70.8906 287.334 70.8906 294.657C70.8906 301.981 102.286 307.918 141.014 307.918Z" fill="#D69139"/>
<path opacity="0.1" d="M233.563 44.2824C207.791 43.392 183.246 35.0841 159.808 25.9972C136.37 16.9103 113.155 6.84547 88.0002 2.0317C71.8213 -1.06485 53.3169 -1.50608 40.2837 7.1436C27.7364 15.4912 23.6827 29.8609 21.5046 43.2051C19.864 53.2461 18.9003 63.8157 23.392 73.2167C26.5139 79.7437 32.0489 85.2292 35.8796 91.4819C49.2074 113.233 39.786 140.057 25.3472 161.296C18.5778 171.257 10.7133 180.773 5.48494 191.367C0.256561 201.96 -2.16052 214.14 2.41481 224.976C6.94634 235.708 17.7495 243.754 29.4527 249.418C53.2213 260.926 81.2188 264.217 108.539 266.085C168.998 270.211 229.776 268.427 290.394 266.634C312.829 265.974 335.359 265.302 357.427 261.84C369.684 259.916 382.335 256.863 391.234 249.494C402.527 240.14 405.327 224.304 397.757 212.577C385.062 192.901 349.973 188.016 341.089 166.904C336.207 155.281 341.22 142.339 348.32 131.562C363.547 108.439 389.068 88.1548 390.41 61.7288C391.334 43.5788 379.065 25.4009 360.095 16.8109C340.213 7.80743 312.637 8.94032 297.976 23.8427C282.864 39.1705 256.32 45.0734 233.563 44.2824Z" fill="#D69139"/>
<path d="M213.085 143.793L200.888 135.585L207.04 126.442L174.826 123.878L163.25 132.814L148.759 124.705L136.674 126.156L136.531 122.976C136.381 119.66 136.047 116.356 135.531 113.078C135.583 112.084 135.619 110.943 135.615 109.703C135.615 104.476 134.906 97.5474 131.792 92.9284L132.509 86.4968L126.695 79.6399C127.629 77.7833 128.693 75.9954 129.881 74.2895C130.08 74.0033 130.279 73.725 130.494 73.4547C138.04 72.9101 143.993 66.717 143.993 59.1446C143.993 58.7948 143.993 58.445 143.953 58.0991C143.953 57.96 143.925 57.8169 143.909 57.6778C144.646 58.0753 145.391 58.4728 146.135 58.8703C146.275 59.069 146.434 59.2678 146.609 59.5023L146.645 59.546L146.868 59.8203L146.94 59.9038C147.019 59.9992 147.103 60.0906 147.186 60.186L147.242 60.2496C147.453 60.4842 147.676 60.7227 147.915 60.9572C147.944 60.9803 147.97 61.0055 147.995 61.0327L148.293 61.311L148.377 61.3865C148.632 61.6131 148.903 61.8317 149.173 62.0384L149.261 62.102L149.603 62.3365L149.715 62.4081C149.846 62.4876 149.982 62.571 150.113 62.6466L150.161 62.6744C150.316 62.7579 150.476 62.8374 150.635 62.9129L150.714 62.9447C150.85 63.003 150.983 63.0587 151.113 63.1117L151.236 63.1554C151.375 63.2031 151.511 63.2468 151.654 63.2866L151.742 63.3104C151.917 63.3541 152.092 63.3899 152.271 63.4177H152.291C152.46 63.445 152.63 63.4622 152.801 63.4694H152.917C153.069 63.4774 153.222 63.4774 153.374 63.4694H153.474C153.665 63.4584 153.855 63.4359 154.043 63.4018C154.934 63.2849 155.79 62.9785 156.552 62.5035C156.746 62.3739 156.918 62.2142 157.062 62.0304C157.858 60.989 156.982 59.8481 156.982 59.8481C156.672 59.1088 154.657 58.5881 154.657 58.5881C154.657 58.5881 148.285 55.9327 148.285 53.818C148.285 51.7033 146.693 40.7322 130.251 38.224C130.251 38.224 119.555 37.6237 116.549 43.3398L116.485 44.0076C115.601 44.5602 114.868 45.6692 113.996 45.9951C113.62 46.0759 113.256 46.2098 112.917 46.3927V46.3171C112.817 46.405 112.734 46.5117 112.674 46.6312C112.487 47.0032 112.375 47.4084 112.344 47.8237C112.254 48.3309 112.078 48.819 111.822 49.2666C111.751 49.3938 111.671 49.516 111.583 49.6323L111.516 49.7396C111.978 49.7756 112.442 49.7006 112.869 49.521C112.802 50.0652 112.668 50.5992 112.471 51.111C112.724 51.1192 112.975 51.0546 113.192 50.9249C113.409 50.7953 113.585 50.606 113.698 50.3796V50.3478L113.749 50.2763C113.85 50.0922 113.932 49.8993 113.996 49.6999L113.953 49.7476C114.032 49.4892 114.104 49.2268 114.191 48.9724C114.232 48.8291 114.298 48.6944 114.387 48.5749C114.493 48.468 114.623 48.3874 114.766 48.3398C114.909 48.2922 115.062 48.2788 115.211 48.3007L115.048 51.747H115.119C115.023 51.9977 114.906 52.2397 114.769 52.4705C114.203 53.3847 113.176 54.0088 112.798 55.0105C112.635 55.4937 112.572 56.005 112.615 56.5131C112.615 56.8112 112.65 57.1133 112.674 57.4115V57.3876C112.73 58.1826 112.746 58.9379 112.316 59.5778C112.021 60.0151 111.547 60.345 111.384 60.8419C111.339 60.9804 111.319 61.1257 111.324 61.2712C111.356 61.7068 111.447 62.1361 111.595 62.5472C111.597 62.5393 111.597 62.5312 111.595 62.5233C111.695 62.8258 111.718 63.1479 111.663 63.4615C111.484 64.2565 110.516 64.9203 110.564 65.6795C110.561 65.7794 110.576 65.8789 110.608 65.9737C110.794 66.3445 111.116 66.6293 111.508 66.7687C112.122 67.1172 112.827 67.2724 113.53 67.2139C113.794 67.1663 114.049 67.0792 114.287 66.9555C114.008 67.5955 113.722 68.2275 113.431 68.8277C113.387 68.9232 113.339 69.0186 113.292 69.114C113.292 69.114 110.831 67.4723 109.433 70.8192C109.025 71.5148 108.733 72.272 108.569 73.0612C108.499 73.3769 108.4 73.6855 108.274 73.9834C107.654 75.032 106.725 75.8647 105.614 76.3684C102.763 77.6722 91.2471 92.0102 91.044 95.7228C90.9444 97.1721 90.6989 98.6077 90.3113 100.008C89.4048 103.305 89.1719 106.751 89.6264 110.14C89.7687 111.236 90.0045 112.317 90.3312 113.372C91.5537 117.081 92.37 124.001 92.37 124.001L93.6921 136.014C93.643 137.672 93.7149 139.331 93.9071 140.979C92.5572 142.517 87.1377 148.929 89.2083 150.674C90.8011 152.049 93.5885 151.823 95.1535 151.54C93.8354 154.796 91.7608 160.456 91.486 164.344C91.0878 170.096 92.167 177.716 93.8752 180.642C95.5835 183.567 101.278 191.072 101.278 191.072C101.278 191.072 101.011 201.367 103.046 205.108C105.081 208.848 105.901 216.608 105.901 216.608C105.901 216.608 107.8 223.159 106.849 225.567C105.897 227.976 108.613 229.98 105.762 231.582C102.91 233.184 99.2629 269.289 99.2629 269.289C99.2629 269.289 97.7935 292.952 99.2629 294.157C99.3415 294.214 99.4256 294.263 99.5138 294.304V302.254C99.5138 302.254 98.4944 303.923 102.64 304.261C105.479 304.488 113.526 305.001 118.301 305.299L122 305.529C122 305.529 130.761 307.27 134.631 305.529C138.502 303.788 145.363 303.828 144.343 299.229C144.208 298.603 144.027 297.988 143.802 297.388C142.683 294.534 140.783 294.208 137.283 293.413C137.08 293.37 136.885 293.33 136.706 293.298C133.018 292.658 131.808 294.371 129.741 292.141C127.945 290.213 122.227 288.055 120.28 287.371C120.328 287.228 120.387 287.089 120.435 286.942C119.884 286.849 119.371 286.599 118.958 286.222L124.234 286.556L127.376 286.751C127.376 286.751 134.822 288.234 138.127 286.751C141.432 285.268 147.246 285.308 146.378 281.401C146.264 280.868 146.111 280.345 145.92 279.835C144.968 277.41 143.352 277.143 140.377 276.472C140.206 276.436 140.047 276.4 139.887 276.372C136.754 275.828 135.726 277.283 133.97 275.39C132.465 273.777 127.714 271.968 126.006 271.352C126.006 270.469 124.811 269.213 124.059 267.953C123.175 266.482 124.808 261.335 124.808 261.335L125.739 239.977C126.094 239.819 126.469 239.712 126.854 239.659C126.854 239.659 131.067 235.644 130.116 231.367C129.922 230.073 129.82 228.768 129.813 227.46C131.199 226.176 133.106 224.279 133.648 223.111C134.532 221.207 133.648 211.981 133.648 211.981V176.702L140.696 177.414L147.091 178.07L149.038 178.268L155.433 178.912L170.131 180.395L183.375 177.891L189.105 176.81L200.888 174.584V145.804L213.085 143.793ZM116.079 48.4279L115.259 48.3404C115.529 48.3523 115.816 48.404 116.079 48.4279Z" fill="url(#paint0_linear)"/>
<path d="M184.498 162.48C180.516 168.168 166.2 165.155 166.2 165.155L155.107 154.792L153.613 153.389L156.118 148.078C156.118 148.078 156.914 148.297 158.28 148.686C165.452 150.765 187.859 157.698 184.498 162.48Z" fill="#EFB7B9"/>
<path opacity="0.1" d="M158.272 148.686C157.782 150.388 156.441 152.936 155.107 154.792L153.613 153.389L156.118 148.078C156.118 148.078 156.922 148.297 158.272 148.686Z" fill="black"/>
<path d="M120.226 88.7983C120.226 88.7983 110.001 93.3259 110.502 104.444C110.863 111.607 111.645 118.742 112.844 125.814C112.844 125.814 110.753 142.545 119.458 146.858C128.162 151.171 136.218 154.716 136.218 154.716C136.218 154.716 149.837 156.179 151.529 156.783C153.221 157.388 158.509 148.15 157.534 146.711C156.558 145.272 144.059 142.255 142.466 139.854C140.873 137.453 137.19 135.97 137.19 135.97C137.19 135.97 133.387 133.673 133.128 131.598C132.869 129.523 133.873 127.976 134.128 127.066C134.382 126.156 135.027 117.367 135.027 117.367C135.027 117.367 139.32 86.0834 120.226 88.7983Z" fill="#DCE6F2"/>
<path opacity="0.1" d="M126.974 125.357C126.974 125.357 112.946 127.702 114.304 132.603C114.304 132.603 119.397 127.312 126.974 125.357Z" fill="black"/>
<path opacity="0.1" d="M127.079 127.34C127.079 127.34 119.366 133.625 120.875 133.947C122.385 134.269 127.079 127.34 127.079 127.34Z" fill="black"/>
<path opacity="0.1" d="M130.787 129.531C130.787 129.531 128.721 133.756 129.991 133.47C131.261 133.184 130.787 129.531 130.787 129.531Z" fill="black"/>
<path opacity="0.1" d="M158.79 149.135L157.938 148.893C158.181 148.098 158.248 147.454 158.049 147.156C157.074 145.717 144.582 142.704 142.993 140.299C141.404 137.894 137.717 136.415 137.717 136.415C137.717 136.415 133.914 134.118 133.655 132.043C133.397 129.968 134.4 128.421 134.655 127.511C134.91 126.601 135.555 117.808 135.555 117.808C135.555 117.808 139.836 86.5286 120.742 89.2435C120.742 89.2435 110.516 93.7751 111.014 104.893C111.375 112.056 112.158 119.192 113.359 126.263C113.359 126.263 111.269 142.994 119.973 147.307C128.678 151.62 136.734 155.166 136.734 155.166C136.734 155.166 150.348 156.624 152.044 157.233C152.685 157.463 153.844 156.275 154.979 154.641L155.624 155.241L166.718 165.6C166.718 165.6 181.033 168.617 185.015 162.929C188.38 158.143 165.977 151.21 158.79 149.135Z" fill="black"/>
<path d="M114.339 47.0684C113.949 47.1445 113.575 47.2884 113.236 47.4937C112.837 47.8237 112.837 48.3881 112.738 48.881C112.621 49.5667 112.348 50.2166 111.941 50.7811C112.395 50.8143 112.849 50.7393 113.267 50.5625C113.199 51.1065 113.066 51.6404 112.869 52.1525C113.117 52.1588 113.362 52.0935 113.574 51.9645C113.786 51.8354 113.956 51.6481 114.064 51.425C114.275 50.9771 114.441 50.5098 114.562 50.0298C114.599 49.8862 114.664 49.7512 114.753 49.6323C115.119 49.199 115.8 49.3938 116.365 49.4494C116.836 49.489 117.309 49.4023 117.734 49.1982C118.16 48.9941 118.523 48.6801 118.786 48.2887C119.388 47.3784 119.424 45.0491 117.99 44.8026C116.493 44.5562 115.561 46.6152 114.339 47.0684Z" fill="#965D7B"/>
<g opacity="0.1">
<path opacity="0.1" d="M113.199 47.9827C113.235 47.7879 113.259 47.5852 113.303 47.3904C112.925 47.7203 112.905 48.2808 112.805 48.7777C112.755 49.0644 112.676 49.3453 112.57 49.6164C112.884 49.1175 113.098 48.5627 113.199 47.9827Z" fill="black"/>
<path opacity="0.1" d="M113.326 51.266C113.524 50.7546 113.658 50.2205 113.724 49.676C113.325 49.8436 112.894 49.9183 112.462 49.8947C112.336 50.1742 112.183 50.4406 112.004 50.6897C112.455 50.7245 112.909 50.6509 113.326 50.475C113.26 51.0195 113.126 51.5536 112.928 52.065C113.176 52.0708 113.42 52.0054 113.632 51.8764C113.844 51.7474 114.014 51.5604 114.122 51.3376C114.222 51.1569 114.302 50.9664 114.361 50.7692C114.244 50.9322 114.088 51.0631 113.907 51.15C113.726 51.2368 113.526 51.2768 113.326 51.266Z" fill="black"/>
<path opacity="0.1" d="M116.821 48.563C116.256 48.5074 115.571 48.3126 115.205 48.7459C115.117 48.8658 115.053 49.0005 115.014 49.1434C114.978 49.2467 114.946 49.3541 114.918 49.4614C115.296 49.1633 115.909 49.3223 116.423 49.3739C116.894 49.4123 117.366 49.325 117.791 49.121C118.217 48.917 118.58 48.6037 118.844 48.2132C118.965 48.0202 119.055 47.8097 119.111 47.5891C118.838 47.9261 118.487 48.1911 118.088 48.3609C117.689 48.5307 117.254 48.6001 116.821 48.563Z" fill="black"/>
</g>
<path d="M126.324 79.8982L132.397 87.1884L131.604 94.5462L124.266 83.0783L126.324 79.8982Z" fill="#DCE6F2"/>
<path opacity="0.1" d="M132.393 87.1884L131.648 94.109L131.6 94.5462L124.978 84.1952L124.266 83.0783L124.473 82.7563L126.32 79.8982L126.73 80.3911L132.393 87.1884Z" fill="black"/>
<path d="M135.549 70.0282C133.494 70.6165 131.531 72.6358 129.823 75.0884C128.668 76.7806 127.636 78.5527 126.733 80.3911C126.171 81.5121 125.678 82.5893 125.268 83.5274L124.981 84.1952C124.288 85.829 123.902 86.9221 123.902 86.9221C123.902 86.9221 108.173 75.1163 110.662 74.3212C111.498 74.0549 112.597 72.2662 113.684 70.0123L113.819 69.7261C114.508 68.2792 115.185 66.6653 115.786 65.1469C117.017 62.0265 117.929 59.3155 117.929 59.3155C117.929 59.3155 141.821 68.2394 135.549 70.0282Z" fill="#EFB7B9"/>
<path d="M144.957 58.6517C144.957 58.6517 148.589 65.2105 153.467 64.3161C158.345 63.4217 156.338 60.7942 156.338 60.7942L144.957 58.6517Z" fill="#444053"/>
<path d="M137.924 285.686C134.706 287.153 127.431 285.686 127.431 285.686L124.365 285.495C120.383 285.241 113.717 284.811 111.36 284.62C107.919 284.338 108.763 282.931 108.763 282.931V274.428L125.456 270.207C125.456 270.207 132.054 272.461 133.862 274.428C135.578 276.305 136.582 274.862 139.644 275.402C139.795 275.43 139.954 275.462 140.122 275.502C143.029 276.166 144.605 276.428 145.537 278.833C145.724 279.338 145.875 279.856 145.987 280.383C146.847 284.255 141.137 284.227 137.924 285.686Z" fill="#A36468"/>
<path opacity="0.1" d="M145.537 278.833C144.939 279.206 144.31 279.528 143.658 279.795C141.468 280.793 139.385 282.009 137.171 282.951C134.957 283.893 132.572 284.565 130.175 284.386C128.92 284.295 127.638 283.988 126.44 284.346C125.698 284.632 125 285.019 124.365 285.495C120.383 285.241 113.717 284.811 111.36 284.621C107.919 284.338 108.763 282.931 108.763 282.931V281.937C108.887 281.937 109.026 281.902 109.185 281.89C110.01 281.877 110.83 281.999 111.614 282.251C113.343 282.72 115.063 283.182 116.791 283.643C116.933 283.107 117.183 282.606 117.525 282.17C117.868 281.734 118.295 281.372 118.782 281.107C119.768 280.584 120.876 280.33 121.992 280.371C124.671 280.407 127.208 281.675 129.884 281.802C130.632 281.871 131.385 281.745 132.07 281.436C132.436 281.254 132.759 280.987 133.117 280.785C133.691 280.508 134.297 280.303 134.921 280.176C136.676 279.74 138.399 279.185 140.078 278.515C140.556 278.328 141.113 277.99 141.05 277.481C140.966 276.806 139.903 276.726 139.624 276.106C139.575 275.994 139.552 275.872 139.558 275.75C139.563 275.628 139.597 275.509 139.656 275.402C139.807 275.43 139.966 275.462 140.134 275.502C143.029 276.166 144.605 276.428 145.537 278.833Z" fill="black"/>
<path d="M134.519 304.289C130.736 306.014 122.174 304.289 122.174 304.289L118.571 304.078C113.904 303.78 106.043 303.283 103.268 303.049C99.2181 302.715 100.214 301.061 100.214 301.061V291.04L119.857 286.071C119.857 286.071 127.622 288.723 129.748 291.04C131.767 293.246 132.934 291.549 136.553 292.185C136.733 292.217 136.92 292.257 137.115 292.3C140.535 293.095 142.391 293.393 143.486 296.224C143.708 296.818 143.885 297.428 144.016 298.048C145.003 302.604 138.302 302.568 134.519 304.289Z" fill="#A36468"/>
<path opacity="0.1" d="M143.478 296.224C142.775 296.662 142.035 297.041 141.268 297.357C138.692 298.529 136.239 299.96 133.635 301.069C131.03 302.178 128.223 302.965 125.4 302.759C123.927 302.651 122.417 302.282 121.02 302.711C120.144 303.051 119.32 303.512 118.571 304.078C113.904 303.78 106.043 303.283 103.268 303.049C99.2181 302.715 100.214 301.061 100.214 301.061V299.893C100.378 299.866 100.545 299.847 100.711 299.837C101.681 299.819 102.648 299.963 103.57 300.262L109.659 301.9C109.829 301.268 110.125 300.678 110.531 300.164C110.937 299.651 111.444 299.226 112.02 298.915C113.181 298.297 114.485 297.998 115.799 298.048C118.953 298.092 121.935 299.583 125.085 299.734C125.962 299.813 126.845 299.667 127.65 299.308C128.084 299.09 128.446 298.776 128.884 298.541C129.558 298.212 130.271 297.971 131.007 297.826C133.06 297.308 135.077 296.655 137.043 295.87C137.605 295.647 138.262 295.25 138.186 294.653C138.087 293.858 136.836 293.763 136.506 293.032C136.45 292.9 136.425 292.757 136.432 292.614C136.438 292.471 136.477 292.331 136.546 292.205C136.725 292.237 136.912 292.276 137.107 292.32C140.528 293.083 142.383 293.393 143.478 296.224Z" fill="black"/>
<path d="M125.959 235.525L124.896 260.5C124.896 260.5 123.303 265.6 124.167 267.059C125.031 268.518 126.489 269.972 125.959 270.835C125.43 271.698 119.058 281.023 117 277.446C114.941 273.868 112.91 258.365 112.91 258.365L114.81 239.218L125.959 235.525Z" fill="#444053"/>
<path d="M130.571 173.3L133.525 177.243V211.539C133.525 211.539 134.389 220.682 133.525 222.57C132.661 224.458 128.281 228.235 128.281 228.235L124.598 209.353L125.394 189.379L130.571 173.3Z" fill="#444053"/>
<path opacity="0.1" d="M125.959 235.525L124.896 260.5C124.896 260.5 123.303 265.6 124.167 267.059C125.031 268.518 126.489 269.972 125.959 270.835C125.43 271.698 119.058 281.023 117 277.446C114.941 273.868 112.91 258.365 112.91 258.365L114.81 239.218L125.959 235.525Z" fill="black"/>
<path opacity="0.1" d="M130.571 173.3L133.525 177.243V211.539C133.525 211.539 134.389 220.682 133.525 222.57C132.661 224.458 128.281 228.235 128.281 228.235L124.598 209.353L125.394 189.379L130.571 173.3Z" fill="black"/>
<path d="M133.527 158.672V177.223L130.21 191.664C130.21 191.664 129.146 226.513 130.074 230.751C131.002 234.988 126.889 238.967 126.889 238.967C126.889 238.967 124.499 239.234 124.499 241.086C124.499 242.938 120.517 248.241 120.517 248.241L120.649 258.576C120.649 258.576 122.377 277.923 119.721 281.631C117.065 285.34 120.649 285.873 120.649 285.873C117.332 296.736 101.404 294.22 99.9662 293.028C98.5287 291.835 99.9662 268.383 99.9662 268.383C99.9662 268.383 103.526 232.607 106.314 231.017C109.101 229.427 106.449 227.44 107.377 225.055C108.305 222.67 106.449 216.178 106.449 216.178C106.449 216.178 105.652 208.491 103.661 204.782C101.67 201.073 101.933 190.869 101.933 190.869C101.933 190.869 96.3585 183.448 94.702 180.534C93.0454 177.621 91.9783 170.068 92.3765 164.368C92.6472 160.516 94.6741 154.907 95.9603 151.679C96.5775 150.133 97.0235 149.131 97.0235 149.131L97.4018 149.231L119.152 154.915L133.527 158.672Z" fill="#444053"/>
<path opacity="0.1" d="M135.548 70.0282C133.493 70.6165 131.53 72.6358 129.822 75.0884H129.376C126.872 75.0902 124.412 74.4321 122.244 73.1806C120.077 71.9292 118.279 70.1287 117.032 67.9612C116.51 67.0631 116.091 66.1098 115.781 65.119C117.012 61.9986 117.924 59.2877 117.924 59.2877C117.924 59.2877 141.82 68.2394 135.548 70.0282Z" fill="black"/>
<path d="M143.612 60.0906C143.616 62.2656 143.119 64.4123 142.16 66.3655C141.202 68.3187 139.807 70.0262 138.083 71.3565C136.359 72.6867 134.353 73.6043 132.218 74.0384C130.083 74.4725 127.877 74.4117 125.769 73.8605C123.661 73.3093 121.708 72.2826 120.061 70.8593C118.413 69.4361 117.115 67.6543 116.266 65.6512C115.417 63.6482 115.04 61.4773 115.164 59.3058C115.287 57.1344 115.909 55.0202 116.98 53.1263C117.412 52.3568 117.916 51.6301 118.486 50.956C119.425 49.8392 120.528 48.8715 121.759 48.086C123.837 46.7675 126.223 46.0098 128.682 45.8869C131.142 45.764 133.591 46.2801 135.791 47.3847C137.991 48.4894 139.866 50.1448 141.233 52.1893C142.601 54.2338 143.413 56.5974 143.592 59.0491C143.6 59.3989 143.612 59.7448 143.612 60.0906Z" fill="#EFB7B9"/>
<path opacity="0.1" d="M131.651 94.109L131.603 94.5462L124.981 84.2111C124.288 85.8449 123.902 86.938 123.902 86.938C123.902 86.938 108.173 75.1163 110.662 74.3212C111.498 74.0549 112.597 72.2662 113.684 70.0123L113.819 69.7261C114.974 73.1605 121.684 80.0254 124.475 82.7761C124.798 83.0941 125.064 83.3565 125.272 83.5473L125.698 83.9448L125.921 84.1674C126.936 85.2128 131.221 89.8239 131.651 94.109Z" fill="black"/>
<path d="M136.597 129.177L135.872 152.459L135.745 156.605C135.745 156.605 127.159 155.809 119.148 154.935C112.697 154.231 106.616 153.472 105.68 153.027C104.486 152.466 101.925 152.033 99.9065 151.759C98.3456 151.548 97.1191 151.437 97.1191 151.437C97.1191 151.437 96.6612 151.572 95.9563 151.699C94.4193 151.978 91.7195 152.204 90.1466 150.841C88.1357 149.096 93.4198 142.755 94.7378 141.233L95.0285 140.903L94.5308 136.312L93.2366 124.407C93.2366 124.407 92.4402 117.55 91.2456 113.873C90.9263 112.827 90.6958 111.757 90.5567 110.673C90.1129 107.315 90.3403 103.902 91.2257 100.632C91.604 99.2426 91.8441 97.8192 91.9425 96.3827C92.1416 92.7058 103.391 78.495 106.178 77.2032C107.432 76.6195 108.441 75.615 109.029 74.365C109.223 73.9719 109.369 73.5568 109.463 73.1287C110.658 67.9612 113.68 70.0123 113.68 70.0123C114.409 74.0549 125.69 84.7557 125.69 84.7557L125.913 84.9783C127.032 86.1231 132.017 91.4974 131.663 96.0846C131.592 97.7919 131.848 99.4971 132.416 101.109C134.71 108.322 136.029 115.808 136.338 123.369L136.597 129.177Z" fill="#DCE6F2"/>
<path opacity="0.1" d="M120.612 101.53C120.612 101.53 117.825 108.288 115.734 109.381C113.644 110.474 121.608 111.687 120.612 101.53Z" fill="black"/>
<path opacity="0.1" d="M122.707 114.151C122.707 114.151 116.336 114.946 116.336 116.139C116.336 117.331 122.707 114.151 122.707 114.151Z" fill="black"/>
<path opacity="0.1" d="M129.376 121.902C129.376 121.902 120.118 141.579 117.529 142.175C114.941 142.771 129.376 121.902 129.376 121.902Z" fill="black"/>
<path opacity="0.1" d="M125.517 85.7534L117.859 89.0766L108.617 75.1401C108.811 74.747 108.957 74.3319 109.051 73.9039C110.246 68.7363 113.268 70.7874 113.268 70.7874C113.997 74.83 125.278 85.5308 125.278 85.5308L125.517 85.7534Z" fill="black"/>
<path d="M125.915 84.9584L118.258 88.2816L109.016 74.3451C109.21 73.952 109.356 73.5369 109.45 73.1088C110.644 67.9413 113.667 69.9924 113.667 69.9924C114.395 74.035 125.676 84.7358 125.676 84.7358L125.915 84.9584Z" fill="#DCE6F2"/>
<path opacity="0.1" d="M135.748 156.605C135.748 156.605 127.162 155.809 119.151 154.935L133.526 158.691V163.064C132.897 163.632 132.351 163.927 131.997 163.775C130.34 163.08 116.821 160.894 116.821 160.894C116.821 160.894 108.969 156.919 100.495 152.148C100.289 152.035 100.09 151.91 99.8976 151.775C98.9095 151.105 98.0582 150.254 97.3889 149.267C95.824 147.005 95.0594 144.099 94.7289 141.249C94.5431 139.616 94.4739 137.971 94.5218 136.328C94.5629 134.465 94.7332 132.606 95.0315 130.767C94.212 123.641 93.8132 116.474 93.8369 109.302C93.9365 98.1715 104.389 94.1964 104.389 94.1964C123.602 92.507 117.645 123.512 117.645 123.512C117.645 123.512 116.534 132.257 116.232 133.152C115.929 134.046 114.842 135.537 114.989 137.624C115.137 139.711 118.808 142.207 118.808 142.207C118.808 142.207 122.392 143.884 123.869 146.369C124.944 148.201 131.929 150.686 135.875 152.459L135.748 156.605Z" fill="black"/>
<path opacity="0.1" d="M142.183 51.2661C142.191 51.9208 142.055 52.5692 141.785 53.1661C141.581 53.6532 141.344 54.126 141.076 54.5812C140.657 55.4187 140.062 56.1562 139.332 56.7437C138.412 57.3995 137.25 57.5824 136.147 57.8487C135.044 58.115 133.897 58.5404 133.268 59.4785C132.927 60.0815 132.699 60.7416 132.595 61.4262C132.489 62.1103 132.215 62.7577 131.798 63.3104C131.581 63.5803 131.28 63.7705 130.943 63.851C130.605 63.9316 130.251 63.8981 129.935 63.7556C129.602 63.5315 129.349 63.207 129.214 62.8294C128.76 61.8078 128.644 60.675 128.461 59.5739C128.278 58.4728 128.019 57.3399 127.342 56.4535C126.665 55.567 125.467 54.9827 124.404 55.3285C124.048 55.4653 123.723 55.6724 123.45 55.9374C123.176 56.2025 122.959 56.52 122.811 56.8709C122.517 57.5734 122.314 58.3109 122.21 59.0651C121.716 61.7628 121.133 64.4446 120.461 67.1106C120.441 67.2198 120.396 67.3231 120.33 67.4127C120.224 67.518 120.081 67.5779 119.932 67.5796C119.04 67.6989 118.184 67.0748 117.284 67.1424C117.191 67.1485 117.099 67.1632 117.009 67.1861C115.554 64.6618 114.912 61.752 115.169 58.851C115.426 55.95 116.57 53.198 118.447 50.9679L118.518 50.948C119.117 50.7359 119.661 50.3938 120.111 49.9463C120.686 49.3721 121.218 48.757 121.704 48.1059L122.022 47.7084C122.938 46.6077 123.98 45.619 125.128 44.7629C125.442 44.5066 125.801 44.3123 126.188 44.1905C126.518 44.1262 126.857 44.1155 127.191 44.1587C128.566 44.3235 129.953 44.3753 131.336 44.3137C132.3 44.1624 133.272 44.0642 134.247 44.0196C136.768 44.0911 138.918 45.868 140.511 47.8157C141.367 48.8135 142.132 49.9622 142.183 51.2661Z" fill="black"/>
<path d="M115.12 53.504C114.567 54.4103 113.567 55.0264 113.193 56.0202C112.643 57.4631 113.571 59.2598 112.719 60.5478C112.436 60.981 111.97 61.303 111.811 61.7999C111.54 62.6386 112.281 63.533 112.09 64.3956C111.899 65.2582 110.76 65.9856 111.063 66.8283C111.241 67.1958 111.555 67.4805 111.939 67.6233C112.542 67.9688 113.236 68.1227 113.93 68.0645C115.017 67.8857 115.825 66.8204 116.928 66.7409C117.824 66.6772 118.68 67.2974 119.572 67.1821C119.722 67.1769 119.864 67.1159 119.97 67.0112C120.038 66.9226 120.083 66.8189 120.102 66.7091C120.771 64.0458 121.355 61.364 121.854 58.6636C121.956 57.9092 122.156 57.1714 122.451 56.4694C122.6 56.1192 122.818 55.8023 123.091 55.5374C123.365 55.2725 123.689 55.065 124.044 54.927C125.107 54.5852 126.302 55.1655 126.983 56.052C127.664 56.9384 127.922 58.0713 128.106 59.1724C128.289 60.2735 128.404 61.4064 128.854 62.4279C128.991 62.8068 129.245 63.1325 129.579 63.3581C130.176 63.7039 130.981 63.4296 131.439 62.9129C131.858 62.3599 132.132 61.7107 132.235 61.0248C132.339 60.3413 132.567 59.6826 132.908 59.081C133.537 58.1429 134.688 57.7175 135.787 57.4512C136.886 57.1849 138.045 56.998 138.972 56.3422C139.702 55.7553 140.296 55.0193 140.717 54.1837C141.306 53.1582 141.855 52.0451 141.808 50.8646C141.756 49.5767 140.991 48.4279 140.175 47.4262C138.582 45.4784 136.428 43.7015 133.907 43.634C132.932 43.6747 131.96 43.7729 130.997 43.9281C129.613 43.9902 128.226 43.9371 126.851 43.7691C126.517 43.7292 126.178 43.7413 125.848 43.8049C125.461 43.9228 125.102 44.1175 124.793 44.3773C123.643 45.232 122.599 46.2193 121.683 47.3188C121.091 48.1013 120.45 48.8448 119.763 49.5448C119.313 49.993 118.769 50.3364 118.17 50.5505C117.772 50.6618 117.374 50.5823 116.996 50.7056C115.821 51.0752 115.666 52.6056 115.12 53.504Z" fill="#965D7B"/>
<path opacity="0.1" d="M153.467 64.3121C150.281 64.8965 147.641 62.3246 146.18 60.4484C145.731 59.8786 145.322 59.2782 144.957 58.6517L155.892 60.7107L156.334 60.7942C156.334 60.7942 158.345 63.4217 153.467 64.3121Z" fill="black"/>
<g opacity="0.1">
<path opacity="0.1" d="M112.089 63.2587C112.134 62.7388 112.055 62.2158 111.858 61.7323C111.858 61.7721 111.823 61.8118 111.811 61.8516C111.639 62.3842 111.87 62.9367 112.018 63.4893C112.049 63.415 112.073 63.3378 112.089 63.2587Z" fill="black"/>
<path opacity="0.1" d="M113.036 56.7516C112.995 57.3012 113.006 57.8535 113.068 58.4012C113.109 57.8515 113.098 57.2992 113.036 56.7516Z" fill="black"/>
<path opacity="0.1" d="M140.693 53.0349C140.273 53.8724 139.679 54.6099 138.948 55.1973C138.029 55.8532 136.87 56.0361 135.763 56.3024C134.656 56.5687 133.513 56.994 132.884 57.9322C132.543 58.5355 132.315 59.1954 132.211 59.8799C132.107 60.5657 131.833 61.2148 131.414 61.7681C130.957 62.2848 130.152 62.5631 129.555 62.2133C129.221 61.9877 128.967 61.662 128.83 61.2831C128.38 60.2615 128.261 59.1326 128.082 58.0276C127.902 56.9225 127.636 55.7936 126.959 54.9072C126.282 54.0207 125.083 53.4364 124.02 53.7822C123.664 53.9196 123.34 54.1269 123.067 54.3918C122.793 54.6568 122.575 54.974 122.427 55.3245C122.132 56.0266 121.931 56.7643 121.83 57.5187C121.333 60.2191 120.749 62.901 120.078 65.5642C120.059 65.6741 120.014 65.7777 119.946 65.8663C119.84 65.9711 119.698 66.0321 119.548 66.0373C118.656 66.1525 117.8 65.5324 116.904 65.596C115.801 65.6755 114.993 66.7408 113.906 66.9157C113.212 66.9778 112.517 66.8237 111.915 66.4745C111.638 66.3556 111.389 66.1795 111.186 65.9578C111.093 66.0909 111.031 66.2435 111.005 66.4039C110.98 66.5644 110.991 66.7285 111.039 66.8839C111.214 67.254 111.529 67.5398 111.915 67.6789C112.517 68.0281 113.212 68.1823 113.906 68.1202C114.993 67.9453 115.801 66.88 116.904 66.8005C117.8 66.7369 118.656 67.357 119.548 67.2417C119.698 67.2365 119.84 67.1755 119.946 67.0708C120.014 66.9822 120.059 66.8785 120.078 66.7687C120.747 64.1186 121.331 61.4368 121.83 58.7232C121.931 57.9688 122.132 57.231 122.427 56.529C122.575 56.1784 122.793 55.8612 123.067 55.5963C123.34 55.3313 123.664 55.124 124.02 54.9867C125.083 54.6408 126.278 55.2252 126.959 56.1116C127.64 56.998 127.898 58.1309 128.082 59.232C128.265 60.3331 128.38 61.466 128.83 62.4875C128.967 62.8664 129.221 63.1922 129.555 63.4177C130.152 63.7635 130.957 63.4893 131.414 62.9725C131.833 62.4192 132.107 61.7702 132.211 61.0844C132.315 60.3998 132.543 59.7399 132.884 59.1366C133.513 58.1985 134.664 57.7771 135.763 57.5068C136.862 57.2365 138.021 57.0576 138.948 56.4018C139.679 55.8143 140.273 55.0768 140.693 54.2393C141.282 53.2178 141.831 52.1047 141.784 50.9242C141.776 50.7724 141.76 50.6211 141.736 50.471C141.544 51.3808 141.19 52.2491 140.693 53.0349Z" fill="black"/>
</g>
<path opacity="0.1" d="M141.801 53.1542C142.822 54.9666 143.427 56.9828 143.573 59.0571C140.025 57.0696 136.688 54.8873 135.003 54.1281C132.069 52.8044 121.094 53.0031 116.969 53.1263C117.4 52.3568 117.904 51.6301 118.474 50.956C119.417 49.8383 120.524 48.8705 121.759 48.086C123.394 47.0501 125.224 46.3579 127.136 46.0518C129.048 45.7457 131.003 45.8321 132.881 46.3057C134.759 46.7793 136.52 47.6302 138.057 48.8064C139.594 49.9825 140.875 51.4592 141.82 53.1462L141.801 53.1542Z" fill="black"/>
<path opacity="0.1" d="M154.462 62.6267C152.547 63.215 149.421 62.0782 146.18 60.4484C145.731 59.8786 145.322 59.2782 144.957 58.6517L155.892 60.7107C156.616 61.2036 156.8 61.9072 154.462 62.6267Z" fill="black"/>
<path d="M130.223 39.3727C130.223 39.3727 119.771 38.7765 116.832 44.4409L116.358 49.4614L115.562 49.3739L115.402 52.7885C115.402 52.7885 131.378 52.0928 135.014 53.7306C138.649 55.3683 149.946 63.6205 154.474 62.2292C159.001 60.8379 154.076 59.546 154.076 59.546C154.076 59.546 147.844 56.9106 147.844 54.8436C147.844 52.7766 146.299 41.8571 130.223 39.3727Z" fill="#444053"/>
<path opacity="0.1" d="M110.062 225.484C110.062 225.484 116.732 231.943 119.619 231.446C119.619 231.446 111.456 230.751 110.062 225.484Z" fill="black"/>
<path opacity="0.1" d="M108.672 228.477C108.672 228.477 109.269 231.8 110.862 231.474C112.455 231.148 108.672 228.477 108.672 228.477Z" fill="black"/>
<path opacity="0.1" d="M119.12 284.016C119.12 284.016 109.651 291.37 111.248 291.569C112.845 291.768 119.12 284.016 119.12 284.016Z" fill="black"/>
<path d="M131.789 138.065L162.451 133.084V162.062L133.318 160.54L131.789 138.065Z" fill="#D69139"/>
<path opacity="0.05" d="M131.789 138.065L162.451 133.084V162.062L133.318 160.54L131.789 138.065Z" fill="black"/>
<path d="M162.449 133.084L199.219 135.831L197.184 161.049L162.449 162.062V133.084Z" fill="#D69139"/>
<path opacity="0.1" d="M162.449 133.084L199.219 135.831L197.184 161.049L162.449 162.062V133.084Z" fill="black"/>
<path d="M173.754 124.24L162.449 133.084L199.219 135.831L205.228 126.78L173.754 124.24Z" fill="#D69139"/>
<path d="M120.688 128.406L148.291 125.051L162.451 133.084L131.789 138.065L120.688 128.406Z" fill="#D69139"/>
<path d="M169.172 140.609V180.228L154.809 178.757L148.561 178.121L146.658 177.923L140.414 177.283L131.789 176.4V138.065L162.447 140.148L169.172 140.609Z" fill="#D69139"/>
<path d="M199.22 135.831V174.468L187.708 176.674L182.109 177.748L169.172 180.228V140.609L199.22 135.831Z" fill="#D69139"/>
<path opacity="0.05" d="M199.22 135.831V174.468L187.708 176.674L182.109 177.748L169.172 180.228V140.609L199.22 135.831Z" fill="black"/>
<path d="M120.688 146.405L131.789 138.065L169.172 140.609L163.669 149.863L120.688 146.405Z" fill="#D69139"/>
<path opacity="0.1" d="M120.688 146.405L131.789 138.065L169.172 140.609L163.669 149.863L120.688 146.405Z" fill="white"/>
<path d="M199.22 135.831L169.172 140.609L178.952 149.354L211.138 143.964L199.22 135.831Z" fill="#D69139"/>
<path opacity="0.1" d="M199.22 135.831L169.172 140.609L178.952 149.354L211.138 143.964L199.22 135.831Z" fill="white"/>
<path opacity="0.1" d="M187.708 176.674L182.109 177.748V169.492L187.354 168.172L187.708 176.674Z" fill="white"/>
<path opacity="0.1" d="M154.81 173.296V178.757L148.562 178.121V173.296H154.81Z" fill="white"/>
<path opacity="0.1" d="M146.658 175.017V177.923L140.414 177.283V175.017H146.658Z" fill="white"/>
<path opacity="0.1" d="M165.413 170.398C161.133 175.864 146.997 172.087 146.997 172.087L136.492 161.148L135.066 159.665L137.854 154.498C137.854 154.498 138.65 154.76 139.98 155.221C147.02 157.678 169.017 165.799 165.413 170.398Z" fill="black"/>
<path d="M165.015 169.603C160.734 175.069 146.598 171.292 146.598 171.292L136.094 160.353L134.668 158.87L137.455 153.703C137.455 153.703 138.252 153.965 139.582 154.426C146.622 156.883 168.619 165.004 165.015 169.603Z" fill="#EFB7B9"/>
<path opacity="0.1" d="M139.566 154.426C138.985 156.096 137.507 158.568 136.078 160.353L134.652 158.87L137.44 153.703C137.44 153.703 138.24 153.965 139.566 154.426Z" fill="black"/>
<path d="M104.788 92.6064C104.788 92.6064 94.3349 96.5815 94.2354 107.712C94.2116 114.884 94.6105 122.051 95.43 129.177C95.43 129.177 92.4435 145.773 100.905 150.543C109.367 155.313 117.231 159.288 117.231 159.288C117.231 159.288 130.75 161.474 132.411 162.17C134.071 162.865 139.841 153.921 138.945 152.431C138.049 150.94 125.741 147.263 124.28 144.779C122.818 142.294 119.219 140.621 119.219 140.621C119.219 140.621 115.547 138.121 115.4 136.034C115.252 133.947 116.336 132.456 116.642 131.562C116.949 130.667 118.06 121.922 118.06 121.922C118.06 121.922 124.001 90.8972 104.788 92.6064Z" fill="#DCE6F2"/>
<path opacity="0.1" d="M109.566 129.455C109.566 129.455 95.4303 131.045 96.5253 136.014C96.5253 136.014 101.897 131.001 109.566 129.455Z" fill="black"/>
<path opacity="0.1" d="M109.567 131.443C109.567 131.443 101.543 137.306 103.017 137.703C104.49 138.101 109.567 131.443 109.567 131.443Z" fill="black"/>
<path opacity="0.1" d="M113.15 133.828C113.15 133.828 110.86 137.938 112.154 137.723C113.448 137.508 113.15 133.828 113.15 133.828Z" fill="black"/>
<path d="M260.331 44.6754C260.331 44.6754 245.2 43.7651 246.968 54.3626C246.968 54.3626 246.614 56.2348 248.314 57.0855C248.314 57.0855 248.342 56.2905 249.867 56.5648C250.41 56.656 250.962 56.6827 251.511 56.6443C252.256 56.5947 252.964 56.3029 253.526 55.8135C253.526 55.8135 257.783 54.0605 259.44 47.1121C259.44 47.1121 260.666 45.5937 260.634 45.2041L258.078 46.2972C258.078 46.2972 258.95 48.1377 258.261 49.6681C258.261 49.6681 258.181 46.3648 257.687 46.4403C257.588 46.4403 256.361 47.0803 256.361 47.0803C256.361 47.0803 257.863 50.2842 256.728 52.6175C256.728 52.6175 257.158 48.6664 255.892 47.3109L254.092 48.3603C254.092 48.3603 255.848 51.6715 254.657 54.3745C254.657 54.3745 254.964 50.2285 253.713 48.6147L252.081 49.8827C252.081 49.8827 253.733 53.1502 252.726 55.3921C252.726 55.3921 252.594 50.5664 251.726 50.2007C251.726 50.2007 250.301 51.4568 250.086 51.9736C250.086 51.9736 251.213 54.3586 250.512 55.5949C250.512 55.5949 250.082 52.379 249.715 52.3631C249.715 52.3631 248.294 54.4938 248.147 55.9407C248.215 54.5918 248.637 53.2843 249.369 52.1485C248.55 52.3032 247.794 52.6943 247.195 53.2734C247.195 53.2734 247.414 51.7669 249.719 51.6357C249.719 51.6357 250.914 50.0179 251.209 49.9185C251.209 49.9185 248.915 49.7277 247.525 50.3438C247.525 50.3438 248.748 48.9247 251.631 49.5488L253.224 48.2371C253.224 48.2371 250.205 47.8396 248.923 48.2808C248.923 48.2808 250.396 47.0247 253.658 47.9389L255.41 46.8935C255.41 46.8935 252.837 46.337 251.304 46.5397C251.304 46.5397 252.921 45.6692 255.923 46.6113L257.178 46.0508C257.178 46.0508 255.29 45.6811 254.741 45.6215C254.191 45.5619 254.159 45.4108 254.159 45.4108C255.353 45.2124 256.579 45.3501 257.699 45.8083C257.699 45.8083 260.387 44.8424 260.331 44.6754Z" fill="#D69139"/>
<path opacity="0.1" d="M306.308 97.6786C306.308 97.6786 291.176 96.7683 292.944 107.366C292.944 107.366 292.59 109.238 294.29 110.089C294.29 110.089 294.318 109.294 295.847 109.568C296.39 109.659 296.943 109.686 297.492 109.647C298.228 109.594 298.926 109.304 299.483 108.821C299.483 108.821 303.744 107.064 305.4 100.115C305.4 100.115 306.623 98.6008 306.575 98.2112L304.018 99.3004C304.018 99.3004 304.89 101.141 304.206 102.671C304.206 102.671 304.122 99.368 303.632 99.4435C303.533 99.4435 302.302 100.083 302.302 100.083C302.302 100.083 303.807 103.291 302.673 105.621C302.673 105.621 303.103 101.67 301.832 100.314L300.052 101.351C300.052 101.351 301.808 104.663 300.618 107.366C300.618 107.366 300.924 103.22 299.674 101.606L298.045 102.878C298.045 102.878 299.694 106.141 298.691 108.383C298.691 108.383 298.559 103.558 297.691 103.192C297.691 103.192 296.265 104.448 296.046 104.965C296.046 104.965 297.177 107.35 296.477 108.586C296.477 108.586 296.046 105.37 295.68 105.354C295.68 105.354 294.259 107.485 294.111 108.932C294.182 107.583 294.605 106.276 295.338 105.14C294.517 105.295 293.76 105.686 293.159 106.265C293.159 106.265 293.382 104.758 295.688 104.627C295.688 104.627 296.863 103.009 297.177 102.91C297.177 102.91 294.884 102.719 293.494 103.335C293.494 103.335 294.716 101.916 297.595 102.56L299.188 101.248C299.188 101.248 296.166 100.851 294.888 101.292C294.888 101.292 296.361 100.036 299.622 100.95L301.374 99.9046C301.374 99.9046 298.798 99.352 297.265 99.5508C297.265 99.5508 298.886 98.6803 301.888 99.6223L303.142 99.0619C303.142 99.0619 301.255 98.6922 300.701 98.6326C300.148 98.5729 300.12 98.4219 300.12 98.4219C301.315 98.2234 302.543 98.361 303.664 98.8194C303.664 98.8194 306.356 97.8455 306.308 97.6786Z" fill="#D69139"/>
<path opacity="0.1" d="M214.383 88.2697C214.383 88.2697 217.867 73.5262 207.099 73.4746C207.099 73.4746 205.312 72.8068 204.185 74.3332C204.185 74.3332 204.953 74.4962 204.432 75.951C204.251 76.4655 204.131 76.999 204.073 77.541C203.996 78.2799 204.162 79.0238 204.547 79.6597C204.547 79.6597 205.554 84.1515 212.113 86.9658C212.113 86.9658 213.403 88.4287 213.793 88.4446L213.156 85.7455C213.156 85.7455 211.189 86.2901 209.795 85.348C209.795 85.348 213.072 85.829 213.076 85.348C213.076 85.2486 212.678 83.9329 212.678 83.9329C212.678 83.9329 209.258 84.863 207.147 83.3486C207.147 83.3486 210.974 84.4457 212.531 83.432L211.814 81.4763C211.814 81.4763 208.23 82.641 205.777 81.0073C205.777 81.0073 209.819 82.0169 211.627 81.0629L210.651 79.2423C210.651 79.2423 207.147 80.3077 205.104 78.9363C205.104 78.9363 209.883 79.6279 210.401 78.8409C210.401 78.8409 209.405 77.223 208.931 76.9209C208.931 76.9209 206.399 77.6285 205.284 76.7261C205.284 76.7261 208.529 76.8494 208.605 76.5075C208.605 76.5075 206.745 74.7466 205.327 74.3491C206.649 74.6493 207.869 75.2877 208.867 76.2014C208.853 75.3684 208.595 74.5576 208.127 73.8681C208.127 73.8681 209.576 74.3451 209.321 76.6506C209.321 76.6506 210.715 78.0816 210.759 78.4076C210.759 78.4076 211.336 76.1855 210.966 74.7108C210.966 74.7108 212.161 76.1577 211.034 78.8806L212.053 80.6893C212.053 80.6893 212.977 77.7875 212.742 76.4519C212.742 76.4519 213.733 78.1134 212.272 81.1663L213.009 83.0703C213.009 83.0703 213.992 80.6296 214.056 79.0953C214.056 79.0953 214.641 80.8363 213.196 83.6308L213.538 84.9585C213.538 84.9585 214.223 83.1657 214.375 82.6331C214.526 82.1004 214.681 82.0964 214.681 82.0964C214.675 83.3057 214.332 84.4895 213.69 85.515C213.69 85.515 214.211 88.2895 214.383 88.2697Z" fill="#D69139"/>
<path opacity="0.1" d="M181.247 93.2941C181.247 93.2941 169.094 84.2191 164.749 94.0494C164.749 94.0494 163.423 95.4207 164.375 97.0624C164.375 97.0624 164.829 96.4224 165.968 97.4838C166.371 97.8584 166.818 98.184 167.298 98.4537C167.948 98.8152 168.699 98.9548 169.436 98.8512C169.436 98.8512 173.96 99.7217 179.168 94.8285C179.168 94.8285 181.028 94.2322 181.203 93.8824L178.459 93.4014C178.459 93.4014 178.173 95.4168 176.759 96.3191C176.759 96.3191 178.507 93.5127 178.053 93.31C177.962 93.2663 176.592 93.1112 176.592 93.1112C176.592 93.1112 176.082 96.6172 173.852 97.9409C173.852 97.9409 176.389 94.8762 176.074 93.0476L173.992 92.9363C173.992 92.9363 173.637 96.6689 171.152 98.2748C171.152 98.2748 173.689 94.9795 173.542 92.9443L171.479 93.1112C171.479 93.1112 171.061 96.7405 168.986 98.0602C168.986 98.0602 171.531 93.9579 171.009 93.1788C171.009 93.1788 169.126 93.4451 168.66 93.7552C168.66 93.7552 168.297 96.3549 167.023 97.0147C167.023 97.0147 168.437 94.0931 168.15 93.8904C168.15 93.8904 165.789 94.8881 164.861 96.0249C165.663 94.9364 166.737 94.076 167.975 93.5286C167.205 93.209 166.358 93.1206 165.538 93.2742C165.538 93.2742 166.549 92.1374 168.548 93.2941C168.548 93.2941 170.42 92.5905 170.738 92.678C170.738 92.678 168.926 91.2589 167.425 91.0124C167.425 91.0124 169.233 90.4957 171.284 92.6024L173.351 92.3918C173.351 92.3918 171.053 90.4042 169.735 90.0703C169.735 90.0703 171.658 89.8279 173.876 92.3798L175.915 92.4713C175.915 92.4713 174.071 90.595 172.682 89.9193C172.682 89.9193 174.509 90.0783 176.5 92.515L177.858 92.7336C177.858 92.7336 176.484 91.39 176.054 91.0402C175.624 90.6904 175.684 90.5434 175.684 90.5434C176.792 91.0331 177.742 91.8202 178.428 92.8171C178.428 92.8171 181.195 93.4571 181.247 93.2941Z" fill="#D69139"/>
<path opacity="0.1" d="M221.708 8.9796C221.708 8.9796 209.555 -0.0993824 205.21 9.73486C205.21 9.73486 203.884 11.1062 204.836 12.7479C204.836 12.7479 205.29 12.108 206.429 13.1693C206.834 13.542 207.282 13.8661 207.763 14.1352C208.413 14.497 209.164 14.6366 209.901 14.5327C209.901 14.5327 214.425 15.4033 219.633 10.506C219.633 10.506 221.493 9.91373 221.664 9.55996L218.92 9.08693C218.92 9.08693 218.638 11.1023 217.22 12.0046C217.22 12.0046 218.972 9.19823 218.518 8.9955C218.427 8.95178 217.057 8.79675 217.057 8.79675C217.057 8.79675 216.531 12.3107 214.301 13.6264C214.301 13.6264 216.834 10.5617 216.523 8.73315L214.441 8.62185C214.441 8.62185 214.082 12.3544 211.601 13.9563C211.601 13.9563 214.138 10.661 213.991 8.62582L211.932 8.79277C211.932 8.79277 211.51 12.426 209.435 13.7457C209.435 13.7457 211.984 9.64343 211.462 8.86433C211.462 8.86433 209.579 9.13065 209.113 9.4407C209.113 9.4407 208.75 12.0404 207.476 12.7002C207.476 12.7002 208.89 9.77858 208.603 9.57188C208.603 9.57188 206.242 10.5736 205.314 11.7104C206.115 10.6208 207.189 9.76002 208.428 9.21413C207.657 8.89217 206.808 8.8037 205.987 8.95973C205.987 8.95973 207.002 7.82287 209.001 8.9796C209.001 8.9796 210.873 8.27204 211.191 8.36347C211.191 8.36347 209.379 6.94438 207.878 6.69396C207.878 6.69396 209.682 6.18118 211.733 8.28397L213.8 8.07329C213.8 8.07329 211.506 6.08577 210.184 5.7479C210.184 5.7479 212.107 5.50939 214.329 8.06137L216.368 8.14882C216.368 8.14882 214.524 6.2726 213.131 5.60082C213.131 5.60082 214.962 5.75982 216.953 8.19652L218.307 8.41514C218.307 8.41514 216.929 7.08748 216.499 6.74563C216.069 6.40378 216.129 6.25273 216.129 6.25273C217.237 6.74189 218.187 7.52915 218.873 8.52645C218.873 8.52645 221.64 9.13065 221.708 8.9796Z" fill="#D69139"/>
<path opacity="0.1" d="M268.145 20.4794C268.145 20.4794 263.287 6.12555 254.124 11.7661C254.124 11.7661 252.253 12.1636 252.105 14.0359C252.105 14.0359 252.842 13.7656 253.169 15.2761C253.29 15.8134 253.473 16.3349 253.714 16.8303C254.043 17.497 254.58 18.0395 255.243 18.3766C255.243 18.3766 258.477 21.656 265.549 20.5708C265.549 20.5708 267.416 21.1353 267.759 20.9405L265.768 18.9888C265.768 18.9888 264.39 20.4873 262.71 20.4277C262.71 20.4277 265.748 19.108 265.497 18.6827C265.445 18.5992 264.406 17.6969 264.406 17.6969C264.406 17.6969 261.993 20.2926 259.404 20.1216C259.404 20.1216 263.231 19.0325 264.012 17.3391L262.363 16.0711C262.363 16.0711 259.95 18.9411 256.991 18.8536C256.991 18.8536 260.973 17.5776 261.981 15.8127L260.189 14.7832C260.189 14.7832 257.8 17.5379 255.323 17.4504C255.323 17.4504 259.751 15.5146 259.763 14.5765C259.763 14.5765 258.063 13.7298 257.501 13.7218C257.501 13.7218 255.725 15.6577 254.315 15.4828C254.315 15.4828 257.135 13.8729 257.015 13.543C257.015 13.543 254.507 13.0302 253.093 13.4436C254.372 12.9992 255.744 12.8964 257.075 13.1455C256.621 12.4454 255.972 11.8929 255.207 11.5554C255.207 11.5554 256.689 11.1937 257.68 13.2766C257.68 13.2766 259.623 13.7576 259.831 14.008C259.831 14.008 259.146 11.8178 258.051 10.7604C258.051 10.7604 259.831 11.3607 260.316 14.2664L262.14 15.2602C262.14 15.2602 261.388 12.3147 260.48 11.2851C260.48 11.2851 262.204 12.1756 262.578 15.5345L264.211 16.7627C264.211 16.7627 263.757 14.171 262.992 12.8275C262.992 12.8275 264.41 13.9961 264.665 17.1324L265.656 18.0785C265.656 18.0785 265.29 16.1943 265.139 15.6617C264.987 15.129 265.111 15.0932 265.111 15.0932C265.744 16.1244 266.079 17.3103 266.078 18.5197C266.078 18.5197 268.006 20.5828 268.145 20.4794Z" fill="#D69139"/>
<path opacity="0.1" d="M236.438 21.1869C236.438 21.1869 221.346 19.5095 222.593 30.1983C222.593 30.1983 222.143 32.0507 223.787 32.9809C223.787 32.9809 223.855 32.1859 225.38 32.5436C225.919 32.6594 226.469 32.7141 227.021 32.7066C227.765 32.6932 228.485 32.4378 229.071 31.9792C229.071 31.9792 233.416 30.4408 235.443 23.5839C235.443 23.5839 236.741 22.133 236.713 21.7395L234.105 22.7014C234.105 22.7014 234.901 24.5816 234.105 26.0762C234.105 26.0762 234.188 22.773 233.707 22.8247C233.607 22.8247 232.349 23.3971 232.349 23.3971C232.349 23.3971 233.687 26.6765 232.436 28.9621C232.436 28.9621 233.065 25.0348 231.867 23.6197L230.015 24.5737C230.015 24.5737 231.608 27.9723 230.274 30.6118C230.274 30.6118 230.792 26.4857 229.625 24.8122L227.933 26.0047C227.933 26.0047 229.414 29.3477 228.295 31.5379C228.295 31.5379 228.41 26.7122 227.562 26.3028C227.562 26.3028 226.073 27.4953 225.83 27.9882C225.83 27.9882 226.838 30.413 226.077 31.6254C226.077 31.6254 225.81 28.3937 225.46 28.3619C225.46 28.3619 223.931 30.417 223.708 31.8679C223.846 30.5227 224.335 29.2372 225.125 28.1393C224.299 28.2533 223.524 28.6056 222.895 29.1529C222.895 29.1529 223.19 27.6623 225.5 27.6464C225.5 27.6464 226.754 26.0921 227.092 26.0087C227.092 26.0087 224.811 25.7026 223.389 26.2472C223.389 26.2472 224.683 24.8877 227.526 25.6787L229.203 24.4505C229.203 24.4505 226.173 23.8383 224.89 24.2358C224.89 24.2358 226.427 23.0433 229.637 24.1364L231.441 23.1784C231.441 23.1784 228.896 22.4947 227.355 22.618C227.355 22.618 229.016 21.823 231.966 22.924L233.249 22.4272C233.249 22.4272 231.381 21.9621 230.831 21.8746C230.282 21.7872 230.262 21.6361 230.262 21.6361C231.466 21.4982 232.684 21.6964 233.782 22.2085C233.782 22.2085 236.466 21.3539 236.438 21.1869Z" fill="#D69139"/>
<path opacity="0.1" d="M368.481 138.121C368.481 138.121 353.397 136.443 354.644 147.12C354.644 147.12 354.194 148.972 355.838 149.903C355.838 149.903 355.906 149.108 357.431 149.461C357.969 149.581 358.52 149.636 359.072 149.624C359.817 149.613 360.537 149.357 361.122 148.897C361.122 148.897 365.467 147.359 367.474 140.506C367.474 140.506 368.772 139.051 368.744 138.661L366.136 139.619C366.136 139.619 366.932 141.503 366.136 142.998C366.136 142.998 366.219 139.691 365.737 139.746C365.638 139.746 364.38 140.315 364.38 140.315C364.38 140.315 365.717 143.594 364.467 145.88C364.467 145.88 365.096 141.956 363.898 140.537L362.046 141.495C362.046 141.495 363.639 144.894 362.309 147.533C362.309 147.533 362.823 143.407 361.656 141.73L359.963 142.922C359.963 142.922 361.445 146.265 360.326 148.452C360.326 148.452 360.441 143.626 359.593 143.221C359.593 143.221 358.108 144.413 357.861 144.906C357.861 144.906 358.872 147.331 358.108 148.543C358.108 148.543 357.841 145.311 357.491 145.28C357.491 145.28 355.962 147.335 355.739 148.786C355.877 147.44 356.365 146.155 357.156 145.057C356.329 145.169 355.554 145.521 354.926 146.071C354.926 146.071 355.221 144.576 357.53 144.56C357.53 144.56 358.789 143.006 359.123 142.926C359.123 142.926 356.842 142.616 355.42 143.161C355.42 143.161 356.714 141.805 359.561 142.596L361.234 141.368C361.234 141.368 358.239 140.804 356.937 141.193C356.937 141.193 358.474 140.001 361.684 141.09L363.488 140.136C363.488 140.136 360.943 139.452 359.402 139.575C359.402 139.575 361.063 138.78 364.013 139.882L365.295 139.381C365.295 139.381 363.428 138.916 362.878 138.832C362.329 138.749 362.309 138.594 362.309 138.594C363.512 138.453 364.731 138.65 365.829 139.162C365.829 139.162 368.521 138.291 368.481 138.121Z" fill="#D69139"/>
<path opacity="0.1" d="M391.543 152.184C391.543 152.184 376.46 150.511 377.706 161.184C377.706 161.184 377.26 163.036 378.901 163.966C378.901 163.966 378.968 163.171 380.493 163.529C381.031 163.646 381.58 163.699 382.13 163.688C382.871 163.673 383.588 163.419 384.173 162.965C384.173 162.965 388.513 161.426 390.52 154.569C390.52 154.569 391.822 153.118 391.79 152.725L389.182 153.683C389.182 153.683 389.979 155.567 389.182 157.062C389.182 157.062 389.266 153.758 388.784 153.81C388.684 153.81 387.426 154.378 387.426 154.378C387.426 154.378 388.764 157.658 387.514 159.944C387.514 159.944 388.143 156.02 386.944 154.605L385.093 155.559C385.093 155.559 386.685 158.958 385.355 161.597C385.355 161.597 385.869 157.471 384.702 155.798L383.01 156.99C383.01 156.99 384.491 160.333 383.376 162.523C383.376 162.523 383.488 157.694 382.64 157.288C382.64 157.288 381.154 158.481 380.908 158.974C380.908 158.974 381.919 161.398 381.154 162.611C381.154 162.611 380.888 159.379 380.537 159.347C380.537 159.347 379.008 161.402 378.789 162.853C378.927 161.509 379.414 160.223 380.203 159.125C379.376 159.239 378.601 159.591 377.973 160.138C377.973 160.138 378.271 158.644 380.581 158.632C380.581 158.632 381.835 157.078 382.174 156.994C382.174 156.994 379.892 156.688 378.471 157.233C378.471 157.233 379.765 155.873 382.612 156.664L384.284 155.436C384.284 155.436 381.29 154.871 379.988 155.261C379.988 155.261 381.525 154.068 384.734 155.162L386.538 154.204C386.538 154.204 383.994 153.52 382.453 153.643C382.453 153.643 384.113 152.848 387.064 153.949L388.346 153.452C388.346 153.452 386.478 152.987 385.933 152.9C385.387 152.812 385.359 152.661 385.359 152.661C386.563 152.523 387.782 152.722 388.88 153.234C388.88 153.234 391.583 152.355 391.543 152.184Z" fill="#D69139"/>
<path opacity="0.1" d="M340.348 33.7242C340.348 33.7242 328.195 24.6492 323.851 34.4795C323.851 34.4795 322.525 35.8509 323.477 37.4925C323.477 37.4925 323.931 36.8526 325.069 37.9139C325.473 38.2885 325.919 38.6141 326.399 38.8838C327.05 39.245 327.801 39.3846 328.538 39.2813C328.538 39.2813 333.061 40.1518 338.274 35.2586C338.274 35.2586 340.129 34.6623 340.305 34.3125L337.569 33.8196C337.569 33.8196 337.282 35.8349 335.869 36.7373C335.869 36.7373 337.617 33.9309 337.163 33.7282C337.071 33.6845 335.705 33.5294 335.705 33.5294C335.705 33.5294 335.192 37.0354 332.962 38.3591C332.962 38.3591 335.498 35.2943 335.184 33.4658L333.101 33.3545C333.101 33.3545 332.747 37.0871 330.262 38.693C330.262 38.693 332.802 35.3977 332.651 33.3625L330.588 33.5294C330.588 33.5294 330.19 37.1586 328.096 38.4783C328.096 38.4783 330.644 34.3761 330.119 33.597C330.119 33.597 328.235 33.8633 327.769 34.1734C327.769 34.1734 327.411 36.7731 326.137 37.4329C326.137 37.4329 327.546 34.5113 327.26 34.3085C327.26 34.3085 324.898 35.3063 323.97 36.4431C324.773 35.3546 325.846 34.4941 327.084 33.9468C326.314 33.6272 325.467 33.5388 324.647 33.6924C324.647 33.6924 325.663 32.5555 327.662 33.7123C327.662 33.7123 329.529 33.0087 329.848 33.0961C329.848 33.0961 328.036 31.6771 326.535 31.4306C326.535 31.4306 328.343 30.9139 330.393 33.0206L332.46 32.81C332.46 32.81 330.166 30.8224 328.844 30.4885C328.844 30.4885 330.768 30.246 332.986 32.798L335.028 32.8894C335.028 32.8894 333.181 31.0132 331.791 30.3375C331.791 30.3375 333.623 30.4965 335.61 32.9332L336.968 33.1518C336.968 33.1518 335.594 31.8082 335.164 31.4584C334.734 31.1086 334.797 30.9934 334.797 30.9934C335.904 31.4839 336.852 32.2709 337.537 33.2671C337.537 33.2671 340.297 33.8872 340.348 33.7242Z" fill="#D69139"/>
<path opacity="0.1" d="M349.737 99.2407C349.737 99.2407 345.548 84.6802 336.126 89.9073C336.126 89.9073 334.239 90.1975 334.004 92.0817C334.004 92.0817 334.753 91.8472 335.011 93.3696C335.107 93.9166 335.268 94.4503 335.489 94.9596C335.785 95.6446 336.296 96.2142 336.947 96.5814C336.947 96.5814 340.029 100 347.141 99.2367C347.141 99.2367 348.98 99.8807 349.331 99.7058L347.447 97.6626C347.447 97.6626 346.002 99.1016 344.329 98.9664C344.329 98.9664 347.419 97.7739 347.18 97.3486C347.133 97.2612 346.137 96.3111 346.137 96.3111C346.137 96.3111 343.612 98.7995 341.032 98.5093C341.032 98.5093 344.907 97.5951 345.759 95.9494L344.166 94.6058C344.166 94.6058 341.625 97.3645 338.675 97.1499C338.675 97.1499 342.689 96.0488 343.796 94.3355L342.052 93.2265C342.052 93.2265 339.523 95.8699 337.07 95.6711C337.07 95.6711 341.582 93.9341 341.637 92.9999C341.637 92.9999 339.973 92.0777 339.411 92.0459C339.411 92.0459 337.552 93.8983 336.138 93.6598C336.138 93.6598 339.029 92.1771 338.926 91.8432C338.926 91.8432 336.441 91.2191 335.011 91.5649C336.306 91.1817 337.679 91.1419 338.993 91.4497C338.572 90.7304 337.949 90.15 337.201 89.7802C337.201 89.7802 338.699 89.482 339.591 91.6087C339.591 91.6087 341.506 92.1731 341.705 92.4355C341.705 92.4355 341.12 90.2134 340.072 89.1123C340.072 89.1123 341.825 89.7881 342.179 92.7137L343.955 93.791C343.955 93.791 343.334 90.8097 342.474 89.7603C342.474 89.7603 344.154 90.7262 344.381 94.097L345.974 95.3969C345.974 95.3969 345.635 92.7892 344.935 91.4218C344.935 91.4218 346.3 92.6541 346.412 95.7944L347.36 96.7881C347.36 96.7881 347.081 94.8881 346.961 94.3475C346.842 93.8069 346.961 93.7313 346.961 93.7313C347.551 94.7887 347.833 95.9889 347.778 97.1976C347.778 97.1976 349.593 99.3361 349.737 99.2407Z" fill="#D69139"/>
<path opacity="0.1" d="M256.389 132.051C256.389 132.051 248.253 119.259 240.699 126.915C240.699 126.915 238.971 127.71 239.274 129.598C239.274 129.598 239.931 129.161 240.608 130.552C240.851 131.045 241.153 131.507 241.508 131.927C241.983 132.501 242.633 132.904 243.359 133.072C243.359 133.072 247.282 135.489 253.892 132.754C253.892 132.754 255.839 132.858 256.126 132.591L253.737 131.16C253.737 131.16 252.753 132.949 251.108 133.287C251.108 133.287 253.744 131.299 253.39 130.934C253.322 130.862 252.096 130.234 252.096 130.234C252.096 130.234 250.372 133.327 247.815 133.776C247.815 133.776 251.276 131.808 251.634 129.988L249.727 129.149C249.727 129.149 248.066 132.508 245.175 133.124C245.175 133.124 248.719 130.942 249.297 128.986L247.306 128.414C247.306 128.414 245.625 131.661 243.216 132.158C243.216 132.158 247.055 129.224 246.844 128.31C246.844 128.31 244.988 127.893 244.454 128.02C244.454 128.02 243.192 130.322 241.767 130.488C241.767 130.488 244.124 128.255 243.929 127.96C243.929 127.96 241.368 128.06 240.094 128.795C241.231 128.06 242.541 127.635 243.893 127.563C243.287 126.991 242.528 126.608 241.707 126.462C241.707 126.462 243.057 125.758 244.494 127.547C244.494 127.547 246.485 127.547 246.76 127.746C246.76 127.746 245.565 125.758 244.255 125.015C244.255 125.015 246.127 125.174 247.29 127.881L249.301 128.414C249.301 128.414 247.863 125.73 246.744 124.963C246.744 124.963 248.628 125.416 249.794 128.592L251.674 129.387C251.674 129.387 250.615 126.983 249.551 125.858C249.551 125.858 251.208 126.653 252.199 129.638L253.394 130.326C253.394 130.326 252.598 128.58 252.315 128.099C252.032 127.619 252.144 127.507 252.144 127.507C253.005 128.357 253.613 129.429 253.9 130.604C253.9 130.604 256.281 132.186 256.389 132.051Z" fill="#D69139"/>
<path d="M309.856 66.6932C309.856 66.6932 302.119 53.659 294.326 61.0764C294.326 61.0764 292.574 61.8317 292.821 63.7159C292.821 63.7159 293.486 63.2945 294.123 64.7056C294.351 65.2073 294.638 65.6797 294.979 66.1128C295.436 66.699 296.075 67.1182 296.795 67.3053C296.795 67.3053 300.637 69.8414 307.331 67.3053C307.331 67.3053 309.274 67.4683 309.569 67.2099L307.232 65.7073C307.232 65.7073 306.196 67.4603 304.54 67.7505C304.54 67.7505 307.236 65.8306 306.897 65.4688C306.826 65.3933 305.623 64.7255 305.623 64.7255C305.623 64.7255 303.803 67.7664 301.243 68.1361C301.243 68.1361 304.763 66.2758 305.173 64.4711L303.293 63.5887C303.293 63.5887 301.529 66.8999 298.619 67.4285C298.619 67.4285 302.23 65.3575 302.867 63.4217L300.9 62.7857C300.9 62.7857 299.116 65.9657 296.695 66.403C296.695 66.403 300.621 63.5887 300.438 62.6704C300.438 62.6704 298.599 62.1934 298.049 62.3047C298.049 62.3047 296.715 64.5665 295.286 64.6897C295.286 64.6897 297.711 62.5353 297.527 62.2332C297.527 62.2332 294.963 62.253 293.669 62.9487C294.828 62.2506 296.15 61.867 297.504 61.8357C296.915 61.2448 296.166 60.8385 295.349 60.667C295.349 60.667 296.723 60.0032 298.137 61.8357C298.137 61.8357 300.128 61.9032 300.395 62.106C300.395 62.106 299.268 60.1184 297.977 59.2996C297.977 59.2996 299.841 59.5142 300.92 62.257L302.911 62.8533C302.911 62.8533 301.561 60.1264 300.462 59.3234C300.462 59.3234 302.334 59.8362 303.401 63.0441L305.253 63.9067C305.253 63.9067 304.269 61.47 303.262 60.3291C303.262 60.3291 304.89 61.1758 305.794 64.1889L306.961 64.9123C306.961 64.9123 306.212 63.1434 305.949 62.6545C305.687 62.1656 305.798 62.0583 305.798 62.0583C306.633 62.934 307.208 64.0239 307.459 65.2065C307.459 65.2065 309.74 66.8243 309.856 66.6932Z" fill="#D69139"/>
<path d="M260.904 94.101C260.904 94.101 261.302 78.9562 250.762 81.0907C250.762 81.0907 248.875 80.8006 248.078 82.5257C248.078 82.5257 248.875 82.5257 248.652 84.0561C248.579 84.6018 248.571 85.1542 248.628 85.7018C248.7 86.4445 249.014 87.1429 249.524 87.6893C249.524 87.6893 251.423 91.879 258.435 93.3021C258.435 93.3021 259.992 94.4747 260.383 94.4111L259.188 91.8989C259.188 91.8989 257.376 92.829 255.819 92.197C255.819 92.197 259.124 92.0022 259.033 91.5173C259.033 91.4179 258.348 90.2095 258.348 90.2095C258.348 90.2095 255.186 91.8194 252.817 90.762C252.817 90.762 256.799 91.0601 258.101 89.7524L256.99 87.9914C256.99 87.9914 253.733 89.8517 250.985 88.7546C250.985 88.7546 255.146 88.9216 256.723 87.6217L255.397 86.0317C255.397 86.0317 252.184 87.7887 249.906 86.8585C249.906 86.8585 254.732 86.5683 255.083 85.6899C255.083 85.6899 253.776 84.3105 253.251 84.0999C253.251 84.0999 250.917 85.2924 249.643 84.6484C249.643 84.6484 252.829 84.1157 252.849 83.762C252.849 83.762 250.67 82.4144 249.201 82.3151C250.556 82.3392 251.881 82.7175 253.044 83.4122C252.862 82.5997 252.447 81.8578 251.849 81.2776C251.849 81.2776 253.366 81.4485 253.573 83.7421C253.573 83.7421 255.234 84.8631 255.341 85.1731C255.341 85.1731 255.457 82.8795 254.792 81.5121C254.792 81.5121 256.257 82.6847 255.708 85.5786L257.074 87.1447C257.074 87.1447 257.384 84.1157 256.886 82.8557C256.886 82.8557 258.192 84.2827 257.388 87.5661L258.491 89.2793C258.491 89.2793 258.961 86.6916 258.71 85.1691C258.71 85.1691 259.634 86.7591 258.79 89.7841L259.395 91.0164C259.395 91.0164 259.702 89.1203 259.741 88.5678C259.781 88.0153 259.933 87.9795 259.933 87.9795C260.172 89.1653 260.077 90.3942 259.658 91.5292C259.658 91.5292 260.729 94.1527 260.904 94.101Z" fill="#D69139"/>
<path opacity="0.1" d="M278.333 286.54C284.255 286.54 289.056 285.731 289.056 284.732C289.056 283.733 284.255 282.923 278.333 282.923C272.41 282.923 267.609 283.733 267.609 284.732C267.609 285.731 272.41 286.54 278.333 286.54Z" fill="#D69139"/>
<path opacity="0.1" d="M239.239 314C245.162 314 249.963 313.19 249.963 312.191C249.963 311.192 245.162 310.383 239.239 310.383C233.317 310.383 228.516 311.192 228.516 312.191C228.516 313.19 233.317 314 239.239 314Z" fill="#D69139"/>
<path opacity="0.1" d="M37.0868 299.932C43.0093 299.932 47.8104 299.123 47.8104 298.124C47.8104 297.125 43.0093 296.315 37.0868 296.315C31.1644 296.315 26.3633 297.125 26.3633 298.124C26.3633 299.123 31.1644 299.932 37.0868 299.932Z" fill="#D69139"/>
<path opacity="0.1" d="M320.575 312.191C326.498 312.191 331.299 311.382 331.299 310.383C331.299 309.384 326.498 308.574 320.575 308.574C314.653 308.574 309.852 309.384 309.852 310.383C309.852 311.382 314.653 312.191 320.575 312.191Z" fill="#D69139"/>
<path d="M331.742 290.138C340.585 290.138 347.754 288.928 347.754 287.435C347.754 285.942 340.585 284.732 331.742 284.732C322.899 284.732 315.73 285.942 315.73 287.435C315.73 288.928 322.899 290.138 331.742 290.138Z" fill="#D69139"/>
<path d="M338.381 283.011C339.112 282.418 339.645 281.616 339.907 280.713C340.106 279.799 339.715 278.706 338.843 278.372C337.864 277.998 336.817 278.674 336.02 279.358C335.224 280.041 334.32 280.824 333.28 280.681C333.814 280.197 334.213 279.584 334.439 278.901C334.665 278.218 334.711 277.488 334.571 276.782C334.526 276.489 334.402 276.214 334.212 275.987C333.667 275.406 332.683 275.657 332.03 276.114C329.959 277.569 329.382 280.375 329.37 282.903C329.163 281.993 329.338 281.043 329.334 280.121C329.33 279.199 329.072 278.133 328.279 277.648C327.793 277.378 327.243 277.24 326.686 277.251C325.754 277.219 324.715 277.31 324.082 277.99C323.286 278.833 323.497 280.252 324.182 281.17C324.867 282.088 325.914 282.681 326.877 283.325C327.649 283.784 328.307 284.411 328.805 285.157C328.861 285.261 328.908 285.37 328.944 285.483H334.782C336.089 284.826 337.3 283.994 338.381 283.011Z" fill="#D69139"/>
<path d="M29.8906 289.717C29.8906 289.717 36.003 289.53 37.8546 288.218C39.7063 286.906 47.2641 285.344 47.7221 287.447C48.18 289.55 56.9126 297.897 50.0077 297.953C43.1029 298.008 33.9642 296.88 32.1245 295.759C30.2848 294.638 29.8906 289.717 29.8906 289.717Z" fill="#A8A8A8"/>
<path opacity="0.2" d="M50.1232 297.221C43.2184 297.277 34.0797 296.148 32.24 295.027C30.8383 294.176 30.2809 291.12 30.0937 289.709H29.8906C29.8906 289.709 30.2888 294.634 32.1166 295.751C33.9443 296.868 43.095 298 49.9998 297.945C51.9908 297.945 52.6797 297.221 52.6438 296.172C52.3651 296.812 51.6045 297.209 50.1232 297.221Z" fill="black"/>
</g>
<defs>
<linearGradient id="paint0_linear" x1="88.7942" y1="172.286" x2="213.085" y2="172.286" gradientUnits="userSpaceOnUse">
<stop stop-color="#808080" stop-opacity="0.25"/>
<stop offset="0.54" stop-color="#808080" stop-opacity="0.12"/>
<stop offset="1" stop-color="#808080" stop-opacity="0.1"/>
</linearGradient>
<clipPath id="clip0">
<rect width="402" height="314" fill="white"/>
</clipPath>
</defs>
</svg>
